<svg width="78" height="78" viewBox="0 0 78 78" fill="none" xmlns="http://www.w3.org/2000/svg">
<mask id="mask0_1_1588" style="mask-type:alpha" maskUnits="userSpaceOnUse" x="0" y="0" width="78" height="78">
<rect width="77.9128" height="77.9131" rx="10" fill="white"/>
</mask>
<g mask="url(#mask0_1_1588)">
<rect width="77.9128" height="77.9131" fill="white"/>
<path d="M15 41.3392C16.0551 42.5714 17.3534 43.4743 18.8186 44.1485C19.3349 44.3862 19.8683 44.575 20.4989 44.7356C17.4577 41.6949 16.9941 38.0035 17.3897 34.001C17.6283 34.1516 17.5231 34.3503 17.5775 34.4946C17.6383 34.6552 17.661 34.8313 17.6964 35.0009C18.179 37.2912 18.9729 39.449 20.4036 41.3319C20.7493 41.7865 21.1448 42.2012 21.5957 42.556C21.6093 42.5669 21.6547 42.5379 21.6846 42.5279C21.7717 42.5188 21.8244 42.576 21.8697 42.635C22.6744 43.6767 23.2569 44.7955 23.2052 46.1684C23.1743 46.9923 23.2034 47.819 23.1979 48.6447C23.1943 49.1338 23.0945 49.1919 22.679 48.9478C21.5531 48.2881 20.5324 47.4832 19.5526 46.6938C20.067 47.4569 20.6114 48.2518 21.2301 48.9941C21.759 49.6283 22.2916 50.2581 22.9366 50.7798C23.09 50.9041 23.1898 51.0539 23.1943 51.258C23.227 52.6591 23.9246 53.7498 24.8237 54.7434C25.2021 55.1617 25.6321 55.5247 26.0839 55.8631C26.1964 55.9475 26.3597 56.0083 26.3352 56.2007C25.6566 55.933 25.0823 55.4938 24.4998 55.0728C23.1734 54.1164 21.9405 53.0484 20.8255 51.8524C19.4038 50.327 18.1763 48.6583 17.1756 46.8235C16.3201 45.2555 15.6396 43.6177 15.1479 41.9009C15.1143 41.7847 15.1016 41.654 15.0009 41.5651C15 41.4889 15 41.4136 15 41.3392Z" fill="#E0E6EE"/>
<path d="M26.3352 56.1997C25.6284 55.6262 24.9063 55.0672 24.3474 54.3367C23.6388 53.4103 23.0818 52.4212 23.1081 51.2044C23.1126 50.9984 22.9602 50.9322 22.8441 50.8305C21.4006 49.5692 20.3147 48.0212 19.3013 46.4096C20.5161 47.3488 21.7109 48.3107 23.1099 49.0838C23.0727 47.7154 23.1997 46.3942 23.0165 45.0821C22.8776 44.083 22.2435 43.3199 21.6846 42.5268C20.262 40.2583 19.392 37.8174 19.3303 35.1124C19.2885 33.2949 19.5526 31.5336 20.2103 29.8395C20.2956 29.6199 20.1931 29.5155 20.0978 29.3758C19.265 28.1526 18.9837 26.8577 19.5834 25.4485C19.5925 25.4277 19.6106 25.4104 19.6551 25.3496C19.9082 26.4902 20.6884 27.0338 21.7427 27.3232C21.2246 24.8723 20.9252 22.5058 23.0673 20.6075C22.6109 21.8316 22.8713 22.8143 23.9908 23.5593C23.8892 21.6991 24.3782 20.6683 25.7119 19.9433C25.2946 21.7772 25.7046 23.3198 27.2733 24.5538C26.5974 22.3942 26.6101 20.4251 28.2713 18.6802C28.6296 20.2409 29.183 21.6247 30.6156 22.5094C30.6564 21.8008 30.6637 21.1393 30.8397 20.4977C30.9431 20.1212 31.0901 19.7655 31.3632 19.4769C31.5083 19.3226 31.59 19.2972 31.6744 19.5558C32.1534 21.0349 32.8992 22.3643 33.9761 23.4949C34.3898 23.9286 34.8434 24.3161 35.3995 24.65C35.3188 23.8724 35.3279 23.1356 35.4095 22.3951C35.6862 19.8898 37.4644 17.8272 39.8959 17.1975C40.1517 17.1312 40.2053 17.2846 40.2778 17.4361C40.6072 18.1267 40.6843 18.8698 40.7124 19.6212C40.7242 19.9397 40.7142 20.2582 40.7142 20.6175C41.2822 19.9315 41.6587 19.1793 41.841 18.2673C42.849 19.0967 43.5657 20.0794 43.9704 21.289C44.3732 22.4931 44.3469 23.7154 44.1046 24.9967C46.0416 24.1083 47.7636 23.0457 48.7978 21.1456C49.1054 20.5803 49.2968 19.9723 49.3095 19.3263C49.3159 19.0087 49.4048 18.9914 49.6443 19.1412C51.0143 19.9987 51.7455 21.2336 51.8444 22.8443C51.8526 22.9804 51.8453 23.1174 51.8453 23.3016C53.2098 22.8025 54.2994 22.0258 55.0388 20.7282C56.0196 22.475 56.5784 24.2217 55.6694 26.208C56.7871 25.7997 57.5664 25.1182 57.9756 23.974C58.2051 24.5384 58.3104 25.0829 58.3739 25.64C58.5309 27.0102 58.1444 28.3105 57.8767 29.6271C57.8622 29.6997 57.8568 29.7751 57.8477 29.8486C57.4576 30.0473 57.0901 29.8885 56.73 29.7587C56.0822 29.5255 55.6177 29.0528 55.2003 28.5301C54.7231 27.9321 54.3938 27.2361 53.9501 26.6155C53.8639 26.4948 53.795 26.3605 53.6807 26.2607C53.5555 26.3106 53.5727 26.4294 53.5364 26.5147C53.384 26.8759 53.2026 27.2153 52.895 27.4711C52.7653 27.5791 52.6246 27.776 52.4532 27.6472C52.3189 27.5474 52.4631 27.3704 52.5203 27.2379C52.7444 26.7135 52.8052 26.1826 52.6274 25.63C52.5248 25.3142 52.3252 25.1228 51.9995 25.0565C51.1277 24.8805 50.3148 25.032 49.5436 25.4703C48.8868 25.8433 48.2798 26.2879 47.7373 26.8042C46.4136 28.0619 45.128 29.3567 44.1137 30.8912C43.9268 31.1743 43.7671 31.471 43.661 31.7931C43.632 31.8811 43.5439 31.9909 43.6428 32.0681C43.7299 32.137 43.8325 32.0536 43.9214 32.0154C44.3659 31.8258 44.7179 31.5046 45.0799 31.197C45.1924 31.1017 45.3113 30.8757 45.4646 31.0218C45.5971 31.148 45.4256 31.3204 45.3285 31.4438C44.9094 31.9773 44.4548 32.471 43.8252 32.7704C43.5485 32.902 43.5467 33.0526 43.8061 33.2187C44.0602 33.3811 44.3487 33.4001 44.639 33.3756C45.1897 33.3285 45.6705 33.0916 46.1287 32.8004C47.0922 32.1869 47.9296 31.4138 48.8078 30.6924C48.972 30.5572 49.1408 30.4284 49.305 30.2932C50.0816 29.6516 50.9344 29.5972 51.8362 29.9765C52.6092 30.3014 53.3069 30.7768 54.079 31.1053C54.2423 31.1752 54.3112 31.314 54.3375 31.4891C54.4945 32.549 54.3647 33.6079 54.3366 34.6678C54.3312 34.8656 54.2305 34.9936 54.0445 35.0607C53.9265 35.1034 53.8095 35.1451 53.6898 35.1832C52.3742 35.6033 51.5922 36.4472 51.5477 37.8773C51.5514 38.0116 51.5314 38.1486 51.5523 38.2176C51.5296 38.1903 51.5532 38.0896 51.5477 37.9934C51.5913 37.3428 52.063 36.9753 52.5149 36.636C53.2479 36.0861 54.0944 35.7884 55.0207 35.7567C55.4943 35.7403 55.5614 35.6796 55.5696 35.2104C55.5841 34.3647 55.3654 33.5535 55.1967 32.735C55.1359 32.4419 55.0506 32.1543 54.9808 31.8621C54.8356 31.2587 54.949 31.1316 55.5877 31.1734C55.6966 31.255 55.7265 31.3784 55.7501 31.5009C55.9597 32.5681 56.1203 33.6415 56.1457 34.7304C56.1548 35.1197 56.0831 35.5017 55.9597 35.8719C55.8354 36.2458 55.5832 36.4799 55.1903 36.5588C53.3904 36.9209 52.21 38.4562 52.1719 40.3826C52.1665 40.6703 52.1638 40.9579 52.1737 41.2447C52.1837 41.5614 52.2527 41.5958 52.533 41.4298C52.738 41.3091 52.9213 41.1576 53.1073 41.0106C53.1463 40.9797 53.1799 40.9416 53.2207 40.9126C53.3749 40.8037 53.5464 40.5505 53.7124 40.7048C53.8694 40.85 53.658 41.0668 53.5573 41.2302C53.3014 41.6467 53.0066 42.035 52.6455 42.3662C52.455 42.5414 52.3624 42.7437 52.4405 43.0023C52.4913 43.1793 52.4514 43.4524 52.6147 43.5087C52.8016 43.574 52.954 43.3435 53.0964 43.2138C54.0028 42.3935 54.7422 41.4407 55.3491 40.3799C55.4507 40.2021 55.4843 39.9389 55.7646 39.9081C55.8672 40.0723 55.781 40.2238 55.7229 40.369C55.1414 41.8272 54.3348 43.1484 53.2515 44.2863C53.0066 44.5431 52.9249 44.7645 53.1082 45.0685C53.325 45.6392 53.2742 45.6692 53.7415 45.2055C55.0724 43.8861 56.1702 42.3916 57.0611 40.7465C57.3759 40.1649 57.6082 39.5433 57.806 38.9099C58.1117 37.7185 58.2659 36.5098 58.1897 35.2812C58.0917 33.7123 57.9257 32.1525 57.4095 30.6525C57.3687 30.5346 57.3179 30.4202 57.3378 30.2905C57.4385 30.0709 57.5546 29.8712 57.8513 29.9275C58.3512 31.2632 58.7132 32.6316 58.8502 34.0562C59.0643 36.2902 58.8547 38.4617 57.923 40.5306C57.8831 40.6195 57.8531 40.7129 57.8187 40.8046C57.8713 40.9688 57.7742 41.095 57.7034 41.2238C57.3133 41.937 56.8797 42.623 56.387 43.27C56.1448 43.5885 55.9225 43.9206 55.6957 44.25C55.1795 44.9995 54.842 45.7953 54.9372 46.7372C54.9781 47.1437 54.9418 47.5584 54.9463 48.0112C55.1804 47.9441 55.3491 47.8179 55.517 47.7045C56.5739 46.9895 57.5982 46.2327 58.4555 45.2763C58.4973 45.23 58.5354 45.1801 58.5853 45.142C58.6352 45.1048 58.6914 45.063 58.7513 45.113C58.7912 45.1465 58.7885 45.2028 58.7785 45.2536C58.764 45.328 58.7268 45.3933 58.6914 45.4596C57.7905 47.1664 56.6256 48.6709 55.2148 49.9839C55.0234 50.1618 54.9254 50.3432 54.9418 50.6019C54.9545 50.8006 54.9336 51.002 54.9463 51.2017C55.0406 52.7306 54.3466 53.8903 53.2398 54.8567C53.1554 54.9302 53.0728 55.0073 52.983 55.0754C50.4182 57.117 47.6946 58.9083 44.7061 60.2748C44.2425 60.4871 43.7553 60.645 43.2854 60.8438C42.4044 61.2149 41.4772 61.1595 40.5545 61.1505C40.0238 61.145 39.474 61.2476 39.0004 60.8919C38.9288 60.8374 38.8634 60.8782 38.7899 60.8991C37.1097 61.3719 35.4576 61.2249 33.8291 60.655C31.6263 59.8837 29.7011 58.6161 27.8231 57.2677C27.3268 56.9129 26.8314 56.5563 26.3352 56.1997Z" fill="#00030B"/>
<path d="M55.5817 31.2171C54.9547 31.3468 54.9674 31.3441 55.1135 31.9539C55.3748 33.0418 55.6887 34.1226 55.6796 35.2577C55.6751 35.8103 55.6261 35.843 55.0872 35.863C53.9368 35.9065 52.9216 36.2895 52.0996 37.117C51.851 37.3675 51.6596 37.6578 51.607 38.0199C51.4609 38.0743 51.5417 37.9101 51.4782 37.8856C51.4555 36.5789 52.1368 35.6525 53.4923 35.147C54.2244 34.8739 54.2217 34.8739 54.2616 34.0935C54.3052 33.2324 54.3188 32.3722 54.2489 31.512C54.2398 31.3958 54.2879 31.2642 54.1155 31.2034C53.4306 30.963 52.8272 30.5574 52.1849 30.2298C51.1035 29.6781 50.1055 29.6717 49.1492 30.5301C48.398 31.2043 47.6033 31.8332 46.8013 32.4484C46.1489 32.9484 45.4676 33.4202 44.6039 33.4883C44.2455 33.5164 43.9026 33.4656 43.6232 33.2224C43.3673 33.0001 43.3945 32.8531 43.6976 32.7215C44.4968 32.3758 45.0339 31.7597 45.4259 30.9838C45.3116 31.0946 45.2 31.208 45.0829 31.3151C44.9632 31.4248 44.8407 31.531 44.7146 31.6326C44.4034 31.8858 44.0659 32.0945 43.6794 32.2152C43.6095 32.237 43.5352 32.2896 43.4707 32.2333C43.4045 32.1753 43.449 32.0927 43.4698 32.0246C43.5805 31.6671 43.7184 31.3169 43.9307 31.0083C45.3769 28.9032 47.0807 27.0421 49.1855 25.5775C49.8397 25.1229 50.5709 24.8552 51.392 24.8716C52.6902 24.897 52.9334 25.5204 52.7882 26.729C52.7501 27.0439 52.5977 27.3352 52.4126 27.6818C53.1484 27.3043 53.426 26.7027 53.5848 25.984C53.9649 26.3824 54.2126 26.8152 54.4739 27.2372C54.8613 27.8624 55.2215 28.5094 55.7676 29.0175C56.3528 29.5619 57.026 29.8995 57.8507 29.8505C57.8516 29.8768 57.8516 29.904 57.8525 29.9303C57.6475 29.9476 57.5704 30.1536 57.4089 30.2343C57.3072 30.4576 57.0931 30.5483 56.9035 30.669C56.6831 30.8178 56.459 30.9612 56.2167 31.0728C56.0081 31.1372 55.8184 31.2833 55.5817 31.2171Z" fill="#E0E6EE"/>
<path d="M52.9822 55.077C53.2952 54.7213 53.6399 54.3964 53.9312 54.0198C54.6152 53.1333 54.9727 52.1551 54.8339 51.0236C54.7722 50.5218 54.8693 50.1361 55.2957 49.7541C56.6466 48.5464 57.6963 47.0873 58.5636 45.4975C58.6217 45.3904 58.6734 45.2806 58.7133 45.1581C57.6028 46.3985 56.2791 47.3622 54.8076 48.2605C54.8965 47.178 54.6488 46.1445 55.0689 45.1608C55.3011 44.6182 55.6386 44.1382 55.9834 43.6654C56.652 42.7499 57.308 41.8261 57.8169 40.808C58.0247 40.7354 58.1027 40.5349 58.2107 40.3779C59.5933 38.3852 60.3654 36.1521 60.7755 33.7792C60.7963 33.6567 60.8217 33.5397 60.9633 33.3491C61.1438 35.2311 61.1665 37.016 60.7773 38.7917C60.3863 40.5739 59.6523 42.1864 58.4293 43.5711C60.252 42.9849 61.7363 41.9087 63.0001 40.4859C62.8068 41.2944 62.5101 42.0566 62.2117 42.817C61.1629 45.4821 59.7131 47.9184 57.9612 50.1752C57.0893 51.2985 56.1494 52.3684 55.107 53.3357C54.4882 53.9101 53.8804 54.5035 53.1772 54.9817C53.1192 55.0225 53.0484 55.0461 52.9822 55.077Z" fill="#E0E6EE"/>
<path d="M42.015 26.9339C43.1092 26.5936 44.2332 26.3486 45.282 25.8677C47.0866 25.0402 48.4964 23.7308 49.7348 22.219C49.9816 21.9178 50.1685 21.9967 50.3753 22.1991C50.7609 22.5775 50.9642 23.0638 51.1048 23.572C51.1919 23.8887 51.3597 23.9921 51.6872 24.013C52.7097 24.0765 53.6487 23.8624 54.4952 23.2816C54.6676 23.1636 54.7719 23.1999 54.9089 23.3342C55.2827 23.699 55.4124 24.1627 55.4442 24.6545C55.4777 25.1781 55.4659 25.7044 55.3217 26.2153C55.2518 26.463 55.3326 26.5564 55.5911 26.551C56.3832 26.5347 57.0881 26.3105 57.6606 25.738C57.7531 25.6454 57.881 25.4367 57.9554 25.7425C58.1441 26.5129 58.0398 28.1843 57.2015 28.883C57.1825 28.8985 57.1589 28.9084 57.0836 28.952C57.3585 28.393 57.6334 27.8813 57.6161 27.2071C57.3403 27.5791 57.1552 27.9375 56.8105 28.1535C56.7152 28.2134 56.6227 28.276 56.5247 28.3295C56.2353 28.4874 56.023 28.452 55.8642 28.1235C55.6202 27.6181 55.3553 27.1218 55.0785 26.6336C54.4199 25.4712 53.5253 24.5865 52.1762 24.2761C51.2545 24.0638 50.3708 24.2444 49.5171 24.6064C48.3168 25.1155 47.3034 25.904 46.3426 26.7661C45.9706 27.1 45.6068 27.443 45.2448 27.7878C44.9708 28.0482 44.695 28.1716 44.3575 27.8858C44.1688 27.7261 43.9538 27.7333 43.7225 27.8159C43.0946 28.041 42.612 28.4801 42.1139 28.8939C41.6893 29.2469 41.2457 29.569 40.7421 29.7986C39.9764 30.148 39.3767 30.0155 38.8433 29.364C38.2635 28.6562 37.6529 27.9802 36.919 27.4285C36.3737 27.0183 35.7904 26.6926 35.0773 26.6898C34.6427 26.688 34.2734 26.8368 33.9532 27.1254C33.8044 27.2588 33.6565 27.3931 33.5014 27.5192C32.9897 27.9348 32.6322 27.943 32.077 27.5845C30.8631 26.8005 29.5439 26.3378 28.086 26.4203C26.814 26.4929 25.6763 27.0129 24.5667 27.5991C23.762 28.0246 22.9691 28.4765 22.0927 28.7515C20.6293 29.2097 19.5605 28.4239 19.5768 26.8949C19.5778 26.8332 19.5768 26.7715 19.5768 26.6145C19.6748 26.8259 19.732 26.9575 19.7955 27.0855C20.2718 28.04 21.2625 28.393 22.2269 27.9357C23.038 27.551 23.6776 26.9212 24.3626 26.3632C25.366 25.5456 26.4493 24.9948 27.7857 25.1273C28.0406 25.1527 28.0696 25.061 28.0206 24.8251C27.9308 24.3968 27.8945 23.9594 28.2357 23.5393C28.9352 24.7734 30.0311 25.4394 31.333 25.9149C30.8939 24.2979 30.8885 24.1409 31.2477 23.6337C31.4845 23.8905 31.6896 24.1709 31.9645 24.3877C32.9171 25.1418 34.0375 25.4204 35.2097 25.483C36.4835 25.551 37.5042 26.0746 38.3425 26.9947C38.3497 26.4312 38.1184 25.8423 37.6566 25.2298C37.3073 24.7661 36.8899 24.3723 36.4236 24.0329C36.2866 23.9331 36.2231 23.8324 36.2313 23.6636C36.2875 22.464 36.7303 21.4378 37.5785 20.5839C37.74 20.4215 37.8888 20.4705 38.0539 20.5412C39.354 21.0984 40.0862 22.1038 40.3629 23.4694C40.4337 23.8197 40.4527 24.1745 40.4845 24.5347C41.0243 23.6264 41.2321 22.6591 41.0606 21.6211C41.7283 22.2345 42.0313 24.0683 41.6294 26.1C41.634 26.3341 41.5587 26.5256 41.3745 26.6835C41.0833 26.933 40.929 27.2624 40.8628 27.6045C41.1014 27.1626 41.506 26.9648 42.015 26.9339Z" fill="#637298"/>
<path d="M49.8395 55.9219C50.461 55.1787 50.9818 54.4555 51.3846 53.6561C52.4506 51.54 52.7546 49.3731 51.762 47.1409C51.2413 45.9704 50.4574 45.1101 49.072 45.0194C48.0985 44.9559 47.1613 45.1138 46.2423 45.4277C45.6626 45.6255 45.1327 45.9286 44.5784 46.18C43.5514 46.6446 42.479 46.8796 41.3477 46.8242C40.8478 46.7997 40.4604 46.4313 40.435 45.9277C40.3896 45.043 40.3524 44.1574 40.3007 43.2726C40.2898 43.0848 40.3216 43.0068 40.5275 42.9541C41.1853 42.7872 41.7051 42.3716 42.2023 41.9324C42.4454 41.7173 42.6641 41.476 42.8945 41.2464C43.1549 40.9878 43.301 40.6448 43.8471 40.8644C44.3752 41.0767 44.9985 40.3462 45.0102 39.6131C45.0229 38.8354 44.6401 38.2075 44.2164 37.5977C44.1511 37.5033 43.9814 37.4262 44.0513 37.2974C44.1239 37.164 44.2971 37.2121 44.4323 37.2084C44.6483 37.203 44.8497 37.2701 45.0493 37.3409C46.6732 37.918 47.9806 38.9207 49.0076 40.2963C49.3732 40.7863 49.7198 41.2909 50.0791 41.7854C50.1498 41.8834 50.1825 42.0177 50.3168 42.0621C50.5436 41.3698 50.9038 40.7773 51.5506 40.3499C51.0426 42.2209 51.5896 43.9278 52.2474 45.6047C52.9215 47.326 53.445 49.0809 53.7108 50.9139C53.8514 51.8821 53.5457 52.6752 52.9042 53.3784C52.0415 54.3267 51.058 55.1324 50.0128 55.8674C49.9856 55.8865 49.9493 55.8883 49.8395 55.9219Z" fill="#E0E6EE"/>
<path d="M21.9651 33.8286C22.1366 34.521 22.3761 35.1879 22.7254 35.8122C22.8007 35.9465 22.8179 36.0899 22.8052 36.2441C22.6937 37.627 23.0484 38.7204 24.0055 39.8629C23.8604 39.47 23.7406 39.1496 23.6227 38.8275C23.4966 38.4845 23.4612 38.1225 23.4258 37.764C23.3895 37.4029 23.4258 37.0417 23.5056 36.6579C23.8323 36.8557 24.1652 36.971 24.1825 37.4737C24.1988 37.9501 24.5045 38.3421 24.9219 38.7386C24.735 38.225 24.6978 37.784 24.774 37.3103C26.8053 37.9346 28.5155 37.0962 30.1939 36.1371C30.7782 35.8031 31.3289 35.4129 31.9286 35.0999C32.5954 34.7514 33.2985 34.6661 34.0343 34.7269C34.2493 34.7451 34.3101 34.7941 34.2403 35.0264C34.076 35.5745 33.9599 36.1334 33.8891 36.7051C33.7975 37.4437 33.8374 38.1442 34.2802 38.8184C33.4274 38.931 32.6135 39.0843 31.8134 39.3066C30.8244 39.5816 29.88 39.9545 28.9818 40.4572C27.4404 41.3202 26.6175 42.6531 26.3281 44.3672C26.1358 45.5024 26.202 46.6258 26.3825 47.7555C26.0169 46.9706 25.7774 46.1458 25.5805 45.3082C25.4009 44.5415 25.2748 43.7656 25.2839 42.9753C25.2857 42.8147 25.2149 42.7203 25.1006 42.635C24.1797 41.9508 23.4703 41.0661 22.7726 40.1705C22.7036 40.0825 22.6791 39.9591 22.6338 39.852C22.1883 39.2903 21.9824 38.6261 21.8163 37.9437C21.7664 37.7386 21.7374 37.5263 21.6267 37.3385C21.4888 36.2414 21.5496 35.1534 21.7728 34.0727C21.7955 33.9711 21.8236 33.8504 21.9651 33.8286Z" fill="#8FA0BD"/>
<path d="M34.9158 39.9258C34.7743 39.4004 34.9539 39.0202 35.266 38.6845C35.5845 38.3424 35.9692 38.0883 36.3865 37.885C36.5326 37.8134 36.6106 37.738 36.6305 37.5611C36.8247 35.876 37.0533 34.1946 37.2611 32.5123C37.4471 31.0033 36.7893 29.7456 35.7841 28.6549C35.599 28.4535 35.4284 28.2384 35.2406 28.0161C36.0345 27.9281 36.7712 28.1177 37.3845 28.7012C37.927 29.2166 38.3589 29.8418 38.9567 30.3055C39.1645 30.467 39.3768 30.6185 39.6118 30.7356C40.2677 31.0604 40.7948 30.9606 41.2965 30.4216C41.9316 29.7374 42.9868 29.036 43.6872 28.8436C43.2236 29.4162 42.7781 29.9688 42.4061 30.5741C42.1847 30.9343 41.9661 31.3018 41.8645 31.7156C41.791 32.015 41.6685 32.0749 41.3682 31.9769C40.6025 31.7274 39.942 31.9161 39.4285 32.5531C39.3832 32.6085 39.3523 32.6756 39.2915 32.7736C39.3995 32.7373 39.4675 32.7174 39.5338 32.6929C40.1806 32.4578 40.5952 32.6529 40.7377 33.3181C40.8919 34.0358 40.9908 34.7654 41.116 35.4886C41.1759 35.8334 41.2829 36.1655 41.429 36.4822C41.6649 36.9931 42.0278 37.3524 42.5903 37.5121C43.2725 37.7063 43.738 38.1455 43.9348 38.8424C43.9548 38.914 43.9657 38.9885 43.9729 39.0629C43.9775 39.1055 43.9684 39.1491 43.9602 39.2589C43.6554 38.6736 43.1682 38.4567 42.6266 38.3034C42.398 38.2389 42.2936 38.2643 42.2337 38.5193C42.1231 38.9957 41.9216 39.4403 41.6277 39.8342C40.9681 40.7198 40.0763 41.0882 38.9858 40.9875C38.4886 40.9421 38.1856 40.6172 37.9488 40.2162C37.7401 39.8623 37.5632 39.4884 37.3337 39.1491C37.0152 38.679 36.7258 38.6173 36.2096 38.8587C35.7015 39.0955 35.3323 39.5057 34.9158 39.9258Z" fill="#E0E6EE"/>
<path d="M48.2447 56.6157C47.4018 57.6928 46.295 58.4214 45.0584 58.9541C42.9091 59.8796 40.6473 60.2571 38.3166 60.2308C37.7695 60.2244 37.2225 60.1437 36.7035 59.9468C35.6202 59.5366 34.9062 58.7916 34.8445 57.6084C34.7883 56.5195 35.3735 55.7391 36.2998 55.2183C37.2107 54.7065 38.2086 54.6012 39.232 54.653C39.4407 54.6638 39.6484 54.6929 39.8617 54.7147C38.4218 55.5322 38.1034 56.407 38.7802 57.7708C38.6532 57.0158 38.7666 56.3643 39.2973 55.8371C39.7954 55.3426 40.4269 55.1194 41.0982 54.9987C42.0926 54.8199 42.8964 55.1493 43.4662 55.9805C43.9815 56.7327 43.8445 57.6737 43.165 58.2799C43.0661 58.3688 42.9617 58.4523 42.8402 58.5539C44.113 58.5775 46.5826 58.161 48.2447 56.6157Z" fill="#E0E6EE"/>
<path d="M55.5814 31.2161C55.7892 31.1381 55.9961 31.06 56.2038 30.9811C56.5114 31.1698 56.6302 31.4983 56.7754 31.796C57.0394 32.3386 57.2127 32.9121 57.2054 33.4728C57.1501 32.5437 57.2417 31.5437 56.8707 30.5982C57.0494 30.4766 57.2281 30.355 57.4068 30.2334C57.5937 30.9385 57.845 31.6254 57.9666 32.3486C58.3295 34.52 58.5282 36.6887 57.9321 38.8538C57.9167 38.9109 57.8795 38.9617 57.8532 39.0162C57.4967 39.8211 57.1265 40.6159 56.6375 41.3537C55.7511 42.6921 54.6996 43.879 53.4666 44.9053C53.3487 45.0033 53.2335 45.1394 53.0448 45.0985C52.8125 44.7828 52.8552 44.5541 53.15 44.2519C54.2795 43.0968 55.107 41.7384 55.6767 40.2258C55.7157 40.1223 55.7302 40.0107 55.7565 39.9027C55.6613 39.7684 55.713 39.6423 55.7801 39.5189C55.9262 39.2494 56.0514 38.9699 56.1712 38.6877C55.4082 40.4199 54.1952 41.7874 52.7154 42.9371C52.6202 43.0106 52.524 43.1022 52.3825 43.0705C52.2192 42.7729 52.2972 42.5496 52.544 42.3182C53.0348 41.8582 53.4539 41.3373 53.6898 40.6731C53.3469 40.939 53.0121 41.2148 52.6583 41.4653C52.505 41.5742 52.3253 41.7856 52.1448 41.684C51.9896 41.5959 52.0804 41.3392 52.0704 41.1577C52.0051 40.0134 52.152 38.9127 52.8415 37.9554C53.4186 37.1542 54.2024 36.6451 55.1768 36.4655C55.5597 36.3947 55.7756 36.1824 55.8817 35.8339C56.0432 35.3022 56.0714 34.7541 56.0278 34.2051C55.9453 33.1988 55.8083 32.2007 55.5814 31.2161Z" fill="#8FA0BD"/>
<path d="M34.725 29.4872C35.3456 30.204 35.8736 30.8764 36.0705 31.7393C36.2211 32.4008 35.8754 32.9135 35.2031 33.0832C34.0972 33.3627 33.0847 33.1576 32.1548 32.5034C31.3337 31.9263 30.6315 31.2112 29.8785 30.5561C29.0402 29.8265 28.1338 29.6577 27.1041 30.0325C26.7956 30.145 26.4817 30.2049 26.1524 30.1178C25.6743 29.9917 25.442 29.6514 25.3159 29.1142C25.2333 29.6705 25.2751 30.1251 25.6017 30.4935C25.7777 30.6922 25.6824 30.7339 25.5218 30.8265C24.0058 31.703 22.6041 31.3274 21.2514 30.4381C20.9302 30.2267 20.6499 29.9645 20.3687 29.616C21.5771 29.8637 22.508 29.3265 23.4588 28.7894C24.8514 28.0026 26.303 27.362 27.9297 27.2168C29.6371 27.0644 30.9699 27.7168 31.9896 29.057C32.3897 29.5833 32.7545 30.136 33.1446 30.6695C33.3814 30.9925 33.6363 31.3038 34.0183 31.4689C34.529 31.6894 34.8448 31.4971 34.8838 30.9417C34.911 30.5515 34.8538 30.1695 34.7667 29.7902C34.7513 29.7213 34.7468 29.6487 34.725 29.4872Z" fill="#E0E6EE"/>
<path d="M48.4582 52.3601C46.2871 52.5016 44.1514 52.1949 42.0303 51.8029C40.2067 51.4653 38.3849 51.2458 36.5314 51.4771C35.3202 51.6287 34.1281 51.8909 32.9287 52.1141C32.6838 52.1595 32.437 52.194 32.192 52.233C31.7974 52.3564 31.7502 52.0406 31.6486 51.8419C31.703 52.2902 31.703 52.2902 31.1242 52.3637C30.4764 52.3564 29.8259 52.3782 29.189 52.2239C28.9949 52.1768 28.8062 52.1114 28.6556 51.9699C28.4877 51.8129 28.4478 51.626 28.5612 51.4291C28.9867 50.6895 29.5247 50.0961 30.4456 50.0108C30.8021 49.9781 31.1333 50.1514 31.4617 50.1614C31.7584 50.1696 31.9825 49.7803 32.3354 49.744C33.0603 49.6696 33.7135 49.8892 34.335 50.2249C34.5164 50.3229 34.6316 50.3529 34.8158 50.1968C35.3874 49.715 36.0524 49.7422 36.7274 49.93C37.1003 50.0344 37.4532 50.1913 37.7816 50.3973C37.9222 50.4853 38.0229 50.5071 38.1817 50.41C39.0971 49.8493 39.9989 49.9137 40.8799 50.5035C40.9688 50.5634 41.0359 50.6823 41.1856 50.5425C42.0384 49.7467 43.1072 49.9581 43.9709 50.6296C44.1741 50.7875 44.2621 50.7812 44.4345 50.5997C44.7956 50.2222 45.2483 50.3057 45.6929 50.4218C45.7409 50.4345 45.7917 50.4472 45.8317 50.4745C46.2245 50.734 46.6028 50.7712 47.0583 50.5661C47.5464 50.3456 48.0018 50.587 48.411 50.881C48.5852 50.3855 48.8129 50.2304 49.3355 50.2939C49.6966 50.3374 50.0567 50.3429 50.4187 50.3465C50.8079 50.3873 50.9377 50.5543 50.9513 51.0307C50.7163 51.606 50.2373 51.8882 49.6848 52.0778C49.5097 52.1377 49.33 52.1831 49.1531 52.2348C48.9871 52.3065 48.9073 52.1758 48.7957 52.0624C48.6841 52.1686 48.6596 52.3782 48.4582 52.3601Z" fill="#F5F8FA"/>
<path d="M31.3655 45.7017C32.3789 45.4403 33.2989 45.7452 34.2007 46.1663C34.3005 46.2134 34.4021 46.257 34.5028 46.3024C34.6706 46.3514 34.6516 46.5002 34.6733 46.6318C34.8049 46.6717 34.9101 46.5056 35.0444 46.5837C37.005 47.6517 39.088 48.1834 41.328 48.0101C42.3251 47.933 43.2968 47.7107 44.2449 47.3985C44.4989 47.315 44.693 47.2733 44.8518 47.6726C44.8554 47.2869 44.9734 47.1227 45.2564 47.0437C45.7346 46.9103 46.1955 46.718 46.6709 46.5719C47.3223 46.3713 48.1887 46.9666 48.2259 47.639C48.2413 47.9176 48.1161 48.1607 47.8866 48.3132C47.1825 48.7832 46.396 48.9792 45.5531 48.9747C45.2846 48.9729 45.0532 48.6507 44.879 48.7261C44.6767 48.8132 44.5025 49.0409 44.2657 49.1181C43.5499 49.3522 42.8123 49.4647 42.0575 49.4429C41.9595 49.4402 41.8361 49.4393 41.7699 49.383C41.4242 49.0954 41.0758 49.2723 40.7102 49.3213C39.6914 49.4592 38.6861 49.3195 37.7426 48.9348C37.4359 48.8095 37.1937 48.7179 36.8526 48.7605C36.2302 48.8377 35.6069 48.7297 35.0118 48.5282C34.6189 48.3949 34.286 48.1871 34.3567 47.6707C33.1718 48.4257 31.4925 47.9956 30.9808 46.8278C30.8946 46.3795 30.8475 45.9439 31.3655 45.7017Z" fill="#F5F8FA"/>
<path d="M28.1566 46.2335C28.2002 44.2771 28.9967 42.5013 30.7913 41.7545C31.4663 41.4732 32.1658 41.4242 32.8807 41.5032C33.0794 41.525 33.2155 41.5939 33.2953 41.8317C33.5557 42.6147 34.2978 43.1129 35.2032 43.1374C36.3255 43.1674 37.4433 43.2254 38.551 43.435C38.8894 43.4986 39.0201 43.6229 38.9429 43.9668C38.8939 44.1846 38.8822 44.4114 38.864 44.6346C38.8041 45.4005 38.3578 45.719 37.6147 45.484C36.8944 45.2562 36.2021 44.945 35.4654 44.7589C33.4885 44.2617 31.5488 44.2327 29.6772 45.1727C29.1428 45.4431 28.6692 45.807 28.1566 46.2335Z" fill="#E0E6EE"/>
<path d="M27.5654 52.512C28.264 52.6899 28.9082 52.865 29.565 52.9884C30.7617 53.2144 31.9438 53.1463 33.1351 52.9403C35.3977 52.5483 37.6677 52.2099 39.9766 52.2961C41.8447 52.366 43.6483 52.7924 45.4374 53.2942C46.2185 53.5129 47.0088 53.6672 47.828 53.6672C49.0664 53.6672 50.0372 53.1518 50.8092 52.2126C50.8864 52.1191 50.9607 52.023 51.0905 51.8596C51.1123 52.3505 50.9607 52.7044 50.7521 53.0338C50.2304 53.8568 49.4148 54.2298 48.5157 54.472C47.1657 54.835 45.8729 54.5356 44.5891 54.1354C43.1266 53.6799 41.6614 53.2461 40.1145 53.1654C38.9079 53.1019 37.7276 53.2616 36.5463 53.463C35.0122 53.7243 33.4907 54.0692 31.9393 54.2243C30.3044 54.3886 28.8301 54.08 27.7242 52.7362C27.6779 52.6799 27.6398 52.6173 27.5654 52.512Z" fill="#F5F8FA"/>
<path d="M27.5546 55.5598C28.5017 56.1623 29.5015 56.6532 30.5666 57.0044C31.5882 57.342 32.6397 57.5361 33.7121 57.6205C33.8201 57.6287 33.9834 57.5552 33.9915 57.7648C34.0296 58.7666 34.5286 59.5043 35.3778 60.0896C32.1888 59.4163 28.9254 57.4971 27.5546 55.5598Z" fill="#8FA0BD"/>
<path d="M48.978 55.244C47.8131 56.4517 46.484 57.3764 44.8364 57.7766C44.7756 57.7911 44.7148 57.8011 44.654 57.8147C44.1759 57.9236 44.165 57.909 44.2793 57.4463C44.4535 56.7394 44.3229 56.0879 43.8983 55.4981C43.7831 55.3375 43.6533 55.1877 43.4619 54.9473C44.4182 55.3229 45.3154 55.5407 46.2454 55.5933C47.1726 55.646 48.0826 55.5507 48.978 55.244Z" fill="#8FA0BD"/>
<path d="M45.8694 36.3674C46.2269 36.7331 46.5444 36.9954 46.7984 37.3375C46.6433 37.3629 46.5589 37.2531 46.4591 37.1959C45.5873 36.6914 44.6691 36.323 43.6548 36.2386C43.5695 36.2313 43.4842 36.2395 43.4325 36.1388C43.2846 35.852 43.0887 35.588 43.0152 35.2658C42.9118 34.8167 43.0669 34.6134 43.5233 34.6624C44.9123 34.8121 46.1343 35.3702 47.2239 36.2295C47.7601 36.6524 48.241 37.1297 48.6229 37.7059C47.7737 37.1877 46.9037 36.7231 45.8694 36.3674Z" fill="#8FA0BD"/>
<path d="M50.6869 35.1014C49.6944 34.9962 48.73 34.7875 47.9053 34.1732C47.585 33.9345 47.3836 33.6169 47.3056 33.2149C47.2539 32.9454 47.2602 32.8438 47.6023 32.8946C48.6275 33.0471 49.6599 33.1006 50.6851 32.8611C51.0961 32.7649 51.4762 32.6052 51.8255 32.3674C51.1532 33.5489 50.1489 34.1596 48.7545 34.126C49.3623 34.5606 50.0518 34.7657 50.6869 35.1014Z" fill="#F4F7F9"/>
<path d="M26.7234 32.3083C28.136 33.2947 28.8917 33.3909 31.2778 32.8492C31.3241 33.3727 31.1027 33.772 30.7189 34.0887C30.033 34.6549 29.1984 34.8591 28.3537 35.0324C28.1723 35.0696 27.9872 35.0886 27.7949 35.0923C28.4526 34.7411 29.1684 34.5161 29.8126 34.0832C28.3628 34.2021 27.3285 33.6232 26.7234 32.3083Z" fill="#F4F7F9"/>
<path d="M53.0453 45.0986C55.112 43.5424 56.6298 41.5525 57.7004 39.2077C57.734 39.1333 57.7095 39.0054 57.8537 39.0163C57.3157 40.8211 56.2914 42.351 55.132 43.8019C54.5795 44.4925 53.9707 45.1322 53.3193 45.7783C53.165 45.5632 53.1151 45.3264 53.0453 45.0986Z" fill="#DFE5ED"/>
<path d="M21.9659 33.8285C21.6302 34.9446 21.6647 36.0924 21.6829 37.2376C21.6838 37.2793 21.7273 37.3202 21.7509 37.3619C21.8616 37.9898 21.9986 38.6096 22.2608 39.1958C22.2989 39.2802 22.3615 39.3745 22.2762 39.4707C21.7101 38.7321 21.4515 37.8701 21.2682 36.9763C21.0396 35.8602 21.1412 34.294 21.5304 33.2051C21.7373 33.3866 21.8788 33.5862 21.9659 33.8285Z" fill="#E0E6EE"/>
<path d="M52.38 43.0701C54.0484 41.8642 55.3458 40.3479 56.224 38.4451C56.224 38.749 56.1542 38.9686 55.9074 39.4532C55.8348 39.5966 55.7486 39.7336 55.755 39.9033C55.461 40.3742 55.178 40.8524 54.8713 41.3143C54.2462 42.258 53.4742 43.0647 52.556 43.7697C52.4608 43.5247 52.38 43.3088 52.38 43.0701Z" fill="#DFE5ED"/>
<path d="M42.0162 26.9337C41.5508 27.0997 41.1053 27.3003 40.7633 27.7939C40.8123 27.2513 40.9928 26.8783 41.3349 26.6007C41.5027 26.4655 41.5454 26.2749 41.6315 26.1025C41.6579 26.2958 41.7613 26.2323 41.8674 26.1751C42.2004 25.9963 42.5624 25.9001 42.9271 25.8221C43.0632 25.7931 43.2492 25.7268 43.3399 25.8802C43.437 26.0435 43.2673 26.1433 43.1766 26.2577C43.0015 26.4782 42.7393 26.5281 42.5025 26.637C42.3329 26.715 42.0915 26.6968 42.0162 26.9337Z" fill="#637298"/>
<path d="M31.3654 45.7007C31.0343 46.0065 30.9408 46.3939 30.9789 46.8268C30.9363 46.3649 30.6687 46.4348 30.3539 46.5446C29.2379 46.932 28.5493 47.7396 28.1021 48.8104C28.1755 47.4057 29.7006 45.9602 31.3654 45.7007Z" fill="#8E9FBC"/>
<path d="M50.9513 51.0303C50.8605 50.7345 50.7417 50.4605 50.4187 50.3461C51.0556 49.7563 51.1327 49.0549 50.7762 48.2183C51.4403 48.9759 51.4938 50.171 50.9513 51.0303Z" fill="#8E9EBC"/>
<path d="M22.277 39.4702C22.1246 38.9131 21.866 38.3877 21.7925 37.8051C21.7735 37.6572 21.7626 37.5102 21.7517 37.3623C21.8533 37.7244 21.9604 38.0855 22.0565 38.4494C22.1872 38.9439 22.4485 39.3831 22.6363 39.8531C22.5383 39.9212 22.4485 39.8949 22.4566 39.7815C22.4684 39.6217 22.3251 39.5782 22.277 39.4702Z" fill="#434E71"/>
<path d="M31.1238 52.3631C31.4767 52.3223 31.7443 52.2125 31.5529 51.717C31.8323 51.8813 31.8523 52.2615 32.1916 52.2334C32.2125 52.3386 32.3286 52.482 32.0682 52.4448C31.7561 52.4003 31.4386 52.3885 31.1238 52.3631Z" fill="#4F5F86"/>
<path d="M48.4575 52.3593C48.6644 52.2658 48.639 52.0326 48.7324 51.8748C48.9592 51.9056 48.8812 52.2695 49.1525 52.2332C48.9393 52.3784 48.7515 52.6651 48.4575 52.3593Z" fill="#51628A"/>
<path d="M35.0443 46.583C34.8946 46.6538 34.7449 46.7246 34.5889 46.7981C34.5381 46.6239 34.6596 46.4379 34.5027 46.3017C34.8229 46.1248 34.9409 46.3399 35.0443 46.583Z" fill="#52638A"/>
<path d="M51.4789 37.885C51.5213 37.9295 51.5646 37.9748 51.607 38.0193C51.607 38.1246 51.607 38.2289 51.607 38.3659C51.46 38.2062 51.45 38.0502 51.4789 37.885Z" fill="#747C9E"/>
<path d="M56.8711 30.5981C57.0824 30.6199 57.0598 30.8105 57.0924 30.9384C57.3256 31.8431 57.3129 32.7623 57.2113 33.6924C57.1033 32.7015 56.7386 31.8095 56.2042 30.9811C56.4265 30.854 56.6488 30.7261 56.8711 30.5981Z" fill="#00030B"/>
</g>
</svg>
