<svg width="78" height="78" viewBox="0 0 78 78" fill="none" xmlns="http://www.w3.org/2000/svg">
<mask id="mask0_1_1628" style="mask-type:alpha" maskUnits="userSpaceOnUse" x="0" y="0" width="78" height="78">
<rect width="77.9128" height="77.9131" rx="10" fill="white"/>
</mask>
<g mask="url(#mask0_1_1628)">
<rect width="77.9128" height="77.9131" fill="white"/>
<path d="M27.4582 37.14C29.5382 37.14 31.2282 37.76 32.5282 39C33.8482 40.24 34.5082 41.96 34.5082 44.16C34.5082 46.4 33.7582 48.16 32.2582 49.44C30.7782 50.72 28.7782 51.36 26.2582 51.36C20.3982 51.36 17.4682 47.82 17.4682 40.74C17.4682 37.02 18.2382 34.24 19.7782 32.4C21.3182 30.56 23.4982 29.64 26.3182 29.64C28.4382 29.64 30.1582 30.16 31.4782 31.2C32.7982 32.22 33.5682 33.71 33.7882 35.67L29.1982 35.94C29.0782 35.22 28.7682 34.63 28.2682 34.17C27.7682 33.71 27.1182 33.48 26.3182 33.48C24.7982 33.48 23.6982 34.26 23.0182 35.82C22.5982 36.74 22.3382 37.97 22.2382 39.51C23.4182 37.93 25.1582 37.14 27.4582 37.14ZM23.6782 46.62C24.3182 47.22 25.1682 47.52 26.2282 47.52C27.2882 47.52 28.1382 47.22 28.7782 46.62C29.4182 46 29.7382 45.18 29.7382 44.16C29.7382 43.14 29.4182 42.33 28.7782 41.73C28.1382 41.13 27.2882 40.83 26.2282 40.83C25.1682 40.83 24.3182 41.13 23.6782 41.73C23.0582 42.33 22.7482 43.14 22.7482 44.16C22.7482 45.18 23.0582 46 23.6782 46.62ZM45.982 36.81C48.022 36.81 49.682 37.44 50.962 38.7C52.242 39.96 52.882 41.7 52.882 43.92C52.882 46.32 52.112 48.16 50.572 49.44C49.032 50.72 47.022 51.36 44.542 51.36C42.342 51.36 40.472 50.83 38.932 49.77C37.392 48.71 36.482 47.17 36.202 45.15L40.822 44.85C41.022 45.73 41.472 46.39 42.172 46.83C42.872 47.27 43.662 47.49 44.542 47.49C45.642 47.49 46.512 47.18 47.152 46.56C47.792 45.92 48.112 45.04 48.112 43.92C48.112 42.78 47.772 41.91 47.092 41.31C46.412 40.69 45.532 40.38 44.452 40.38C42.892 40.38 41.732 40.97 40.972 42.15L36.742 41.76L37.612 30H51.592V33.87H41.182L40.822 38.79C42.102 37.47 43.822 36.81 45.982 36.81Z" fill="#252D4D"/>
<path d="M55.2089 34.212C54.8169 33.828 54.6209 33.308 54.6209 32.652C54.6209 31.996 54.8169 31.48 55.2089 31.104C55.6009 30.72 56.1329 30.528 56.8049 30.528C57.4769 30.528 58.0089 30.72 58.4009 31.104C58.7929 31.48 58.9889 31.996 58.9889 32.652C58.9889 33.308 58.7929 33.828 58.4009 34.212C58.0089 34.588 57.4769 34.776 56.8049 34.776C56.1329 34.776 55.6009 34.588 55.2089 34.212ZM55.9409 39L61.8689 30.6H63.0449L57.1289 39H55.9409ZM56.1689 31.872C56.0089 32.048 55.9289 32.308 55.9289 32.652C55.9289 32.996 56.0089 33.26 56.1689 33.444C56.3289 33.62 56.5409 33.708 56.8049 33.708C57.0689 33.708 57.2809 33.62 57.4409 33.444C57.6009 33.26 57.6809 32.996 57.6809 32.652C57.6809 32.308 57.6009 32.048 57.4409 31.872C57.2809 31.688 57.0689 31.596 56.8049 31.596C56.5409 31.596 56.3289 31.688 56.1689 31.872ZM60.5849 38.508C60.1929 38.124 59.9969 37.604 59.9969 36.948C59.9969 36.292 60.1929 35.772 60.5849 35.388C60.9769 35.004 61.5089 34.812 62.1809 34.812C62.8609 34.812 63.3929 35.004 63.7769 35.388C64.1689 35.764 64.3649 36.284 64.3649 36.948C64.3649 37.604 64.1689 38.124 63.7769 38.508C63.3929 38.884 62.8609 39.072 62.1809 39.072C61.5089 39.072 60.9769 38.884 60.5849 38.508ZM61.2929 36.948C61.2929 37.284 61.3729 37.544 61.5329 37.728C61.7009 37.912 61.9169 38.004 62.1809 38.004C62.4449 38.004 62.6569 37.912 62.8169 37.728C62.9769 37.544 63.0569 37.284 63.0569 36.948C63.0569 36.604 62.9769 36.34 62.8169 36.156C62.6569 35.972 62.4449 35.88 62.1809 35.88C61.9169 35.88 61.7009 35.972 61.5329 36.156C61.3729 36.34 61.2929 36.604 61.2929 36.948Z" fill="#252D4D"/>
</g>
</svg>
