<svg width="107" height="40" fill="none" xmlns="http://www.w3.org/2000/svg"><path d="M.91 22.154c.945 1.1 2.107 1.907 3.419 2.509.462.212.94.38 1.504.524-2.722-2.716-3.137-6.012-2.783-9.587.213.135.12.312.168.441.054.143.075.3.106.452.432 2.046 1.143 3.973 2.424 5.654.31.406.664.777 1.067 1.094.013.01.053-.017.08-.026.078-.008.125.043.166.096.72.93 1.242 1.93 1.195 3.156-.027.736-.001 1.474-.006 2.211-.003.437-.093.489-.465.271-1.008-.59-1.922-1.308-2.799-2.013.46.682.948 1.392 1.502 2.054.474.567.95 1.13 1.528 1.595.137.111.227.245.23.427.03 1.252.655 2.226 1.46 3.113a7.83 7.83 0 001.128 1c.1.075.247.13.225.302-.608-.24-1.122-.632-1.643-1.008a22.334 22.334 0 01-3.29-2.876 22.09 22.09 0 01-3.268-4.491 21.506 21.506 0 01-1.815-4.396c-.03-.104-.042-.221-.132-.3v-.202z" fill="#E0E6EE"/><path d="M11.059 35.426c-.633-.512-1.28-1.011-1.78-1.664-.635-.827-1.133-1.71-1.11-2.797.004-.184-.132-.243-.236-.334-1.292-1.127-2.265-2.51-3.172-3.948 1.088.838 2.157 1.697 3.41 2.388-.033-1.222.08-2.402-.084-3.574-.124-.892-.692-1.574-1.192-2.282-1.274-2.026-2.053-4.206-2.108-6.622-.037-1.623.199-3.196.788-4.71.076-.195-.016-.288-.1-.413-.747-1.093-.998-2.25-.461-3.508.008-.018.024-.034.064-.088.226 1.019.925 1.504 1.869 1.763-.464-2.19-.732-4.303 1.186-5.998-.409 1.093-.176 1.97.827 2.636-.091-1.661.346-2.582 1.54-3.23-.373 1.638-.006 3.016 1.398 4.118-.605-1.929-.593-3.687.894-5.246.32 1.394.816 2.63 2.099 3.42.036-.633.043-1.223.2-1.796.093-.337.225-.654.47-.912.13-.138.202-.16.278.07.429 1.321 1.096 2.509 2.06 3.518.37.388.777.734 1.275 1.032a9.314 9.314 0 01.009-2.014A5.395 5.395 0 0123.2.593c.229-.059.277.078.342.213.294.617.363 1.28.389 1.952.01.284.001.569.001.89a4.61 4.61 0 001.01-2.1c.902.741 1.543 1.62 1.906 2.7.36 1.075.337 2.166.12 3.31 1.734-.793 3.276-1.742 4.202-3.439.275-.505.446-1.048.458-1.625.006-.283.085-.299.3-.165 1.226.766 1.88 1.869 1.97 3.307.007.122 0 .244 0 .409 1.222-.446 2.197-1.14 2.86-2.298.877 1.56 1.378 3.12.564 4.894 1-.365 1.698-.974 2.065-1.996.205.504.3.99.356 1.488.14 1.224-.205 2.385-.445 3.561-.013.065-.018.132-.026.198-.35.177-.678.036-1-.08-.58-.209-.996-.63-1.37-1.098-.427-.534-.722-1.155-1.12-1.71-.077-.107-.138-.227-.24-.316-.113.044-.097.15-.13.226-.136.323-.299.626-.574.855-.116.096-.242.272-.396.157-.12-.09.01-.247.06-.366.201-.468.255-.942.096-1.436-.091-.282-.27-.453-.562-.512-.78-.157-1.508-.022-2.199.37a8.243 8.243 0 00-1.617 1.191c-1.185 1.123-2.336 2.28-3.244 3.65-.167.253-.31.518-.405.806-.026.078-.105.176-.017.245.078.062.17-.013.25-.047.398-.17.713-.456 1.037-.73.1-.086.207-.288.344-.157.119.112-.034.266-.121.377-.376.476-.783.917-1.346 1.184-.248.118-.25.252-.017.4.227.146.485.163.745.14.493-.041.924-.253 1.334-.513.863-.548 1.612-1.238 2.399-1.882.147-.121.298-.236.445-.357.695-.573 1.459-.622 2.266-.283.692.29 1.317.715 2.008 1.008.146.063.208.187.231.343.141.947.025 1.892 0 2.839-.005.177-.095.29-.262.35-.105.039-.21.076-.317.11-1.178.376-1.878 1.13-1.918 2.406.003.12-.015.243.004.304-.02-.024 0-.114-.004-.2.039-.581.461-.91.866-1.212a3.906 3.906 0 012.243-.786c.424-.014.484-.069.492-.487.013-.756-.183-1.48-.334-2.211-.055-.262-.131-.519-.194-.78-.13-.539-.028-.652.544-.615.097.073.124.183.145.293.188.953.332 1.911.354 2.884.008.348-.056.689-.166 1.02a.862.862 0 01-.689.613c-1.612.323-2.668 1.694-2.703 3.415-.004.257-.007.514.002.77.01.283.07.313.322.165.183-.108.347-.243.514-.374.035-.028.065-.062.102-.088.138-.097.291-.323.44-.186.14.13-.049.324-.14.47a4.69 4.69 0 01-.816 1.014c-.17.157-.253.337-.183.569.046.157.01.401.156.452.167.058.304-.148.431-.264a10.227 10.227 0 002.017-2.53c.091-.16.121-.394.372-.422.092.147.015.282-.037.412-.52 1.302-1.243 2.482-2.213 3.498-.22.23-.292.427-.128.699.194.51.148.536.567.122a16.899 16.899 0 002.972-3.982 9.15 9.15 0 00.667-1.64c.273-1.064.412-2.144.343-3.241-.087-1.401-.236-2.794-.698-4.134-.037-.105-.082-.208-.064-.323.09-.197.194-.375.46-.325.447 1.193.771 2.415.894 3.688.191 1.995.004 3.934-.83 5.782-.036.08-.063.163-.094.245.047.146-.04.259-.103.374a14.47 14.47 0 01-1.179 1.828c-.216.284-.416.58-.619.875-.462.67-.764 1.38-.679 2.221.037.363.004.733.009 1.138.209-.06.36-.173.51-.274.947-.639 1.864-1.314 2.631-2.169.038-.041.072-.086.116-.12.045-.033.096-.07.15-.026.035.03.032.08.023.126-.012.067-.046.125-.077.184a15.156 15.156 0 01-3.113 4.04c-.172.16-.26.322-.245.553.012.177-.007.357.005.535.084 1.366-.537 2.402-1.528 3.265-.076.065-.15.134-.23.195-2.297 1.823-4.735 3.423-7.41 4.644-.416.19-.852.33-1.273.508-.788.331-1.619.282-2.445.273-.475-.004-.967.087-1.391-.23-.064-.049-.123-.013-.189.006-1.504.422-2.983.291-4.441-.218-1.972-.689-3.696-1.82-5.377-3.025-.445-.317-.888-.636-1.332-.954z" fill="#00030B"/><path d="M37.243 13.113c-.56.116-.55.114-.419.658.234.972.515 1.937.507 2.95-.004.494-.048.523-.53.541-1.03.04-1.94.381-2.675 1.12-.223.224-.394.483-.441.807-.13.048-.059-.098-.115-.12-.02-1.167.59-1.995 1.803-2.446.655-.244.653-.244.689-.94.039-.77.05-1.538-.012-2.306-.008-.104.035-.222-.12-.276-.612-.215-1.153-.577-1.728-.87-.968-.492-1.861-.498-2.717.269a35.269 35.269 0 01-2.103 1.713c-.584.446-1.194.868-1.967.929-.32.025-.628-.02-.878-.238-.23-.198-.205-.33.067-.447.715-.309 1.196-.86 1.547-1.552-.102.099-.202.2-.307.296a6.818 6.818 0 01-.33.283c-.279.226-.58.413-.927.52-.062.02-.129.067-.187.017-.059-.052-.02-.126 0-.187a3.3 3.3 0 01.412-.907c1.295-1.88 2.82-3.543 4.705-4.85.586-.407 1.24-.646 1.975-.631 1.163.023 1.38.58 1.25 1.659-.034.281-.17.541-.336.85.659-.336.907-.874 1.05-1.515.34.355.562.742.796 1.119.347.558.669 1.136 1.158 1.59.524.486 1.127.787 1.865.744 0 .023 0 .047.002.07-.184.016-.253.2-.398.272-.09.2-.282.28-.452.389a4.396 4.396 0 01-.615.36c-.187.058-.356.188-.569.13zm-2.327 21.311c.28-.318.589-.608.85-.944.612-.792.932-1.666.808-2.676-.055-.449.032-.793.413-1.134 1.21-1.079 2.15-2.382 2.926-3.802.052-.095.098-.194.134-.303-.994 1.108-2.18 1.969-3.497 2.77.08-.966-.142-1.889.234-2.767.208-.485.51-.914.819-1.336.599-.818 1.186-1.643 1.642-2.552.186-.065.256-.244.352-.384 1.238-1.78 1.93-3.774 2.297-5.893a.775.775 0 01.168-.384c.161 1.68.182 3.274-.167 4.86-.35 1.592-1.007 3.032-2.102 4.269 1.632-.524 2.96-1.485 4.092-2.756-.173.722-.438 1.403-.706 2.082-.939 2.38-2.237 4.556-3.805 6.572a23.418 23.418 0 01-2.556 2.822c-.554.514-1.098 1.043-1.727 1.47-.052.037-.116.058-.175.086z" fill="#E0E6EE"/><path d="M25.097 9.289c.98-.304 1.986-.523 2.925-.952 1.616-.74 2.878-1.909 3.987-3.259.22-.269.388-.199.573-.018.346.338.527.772.653 1.226.078.283.229.376.522.394.915.057 1.756-.134 2.514-.653.154-.105.248-.073.37.047.335.326.451.74.48 1.18.03.467.019.937-.11 1.393-.063.221.01.305.241.3.71-.015 1.34-.215 1.853-.726.083-.083.197-.27.264.004.169.688.075 2.18-.675 2.805-.017.013-.038.022-.106.061.246-.499.492-.956.477-1.558-.247.332-.413.652-.721.845-.086.053-.168.11-.256.157-.26.141-.45.11-.591-.184a22.825 22.825 0 00-.704-1.33c-.59-1.039-1.39-1.829-2.598-2.106-.826-.19-1.617-.028-2.381.295-1.075.455-1.982 1.16-2.842 1.929a45.37 45.37 0 00-.983.913c-.245.232-.492.342-.794.087-.17-.143-.362-.136-.57-.062-.561.2-.993.593-1.44.962-.38.316-.777.603-1.227.808-.686.312-1.223.194-1.7-.388-.52-.632-1.066-1.236-1.723-1.728-.488-.367-1.01-.658-1.65-.66a1.443 1.443 0 00-1.006.389c-.133.119-.265.239-.404.352-.458.37-.778.378-1.276.058-1.086-.7-2.267-1.114-3.573-1.04-1.138.065-2.157.53-3.15 1.053-.721.38-1.43.784-2.216 1.03-1.31.408-2.267-.293-2.252-1.659v-.25c.088.188.139.306.196.42.426.853 1.313 1.168 2.177.76.726-.344 1.298-.906 1.912-1.405.898-.73 1.868-1.222 3.064-1.104.229.023.255-.059.21-.27-.08-.382-.112-.773.193-1.148.627 1.102 1.608 1.697 2.773 2.122-.393-1.444-.398-1.585-.076-2.038.212.23.396.48.642.674.853.673 1.856.922 2.905.978 1.14.06 2.054.528 2.805 1.35.007-.503-.2-1.029-.614-1.576a5.184 5.184 0 00-1.104-1.069c-.123-.09-.18-.18-.172-.33.05-1.071.447-1.988 1.206-2.75.145-.145.278-.102.426-.038 1.164.497 1.82 1.395 2.067 2.615.063.313.08.63.109.951.483-.811.67-1.675.516-2.602.598.548.869 2.186.509 4a.627.627 0 01-.228.521c-.261.223-.4.517-.458.823.213-.395.576-.572 1.031-.6z" fill="#637298"/><path d="M32.102 35.177c.557-.663 1.023-1.31 1.384-2.023.954-1.89 1.226-3.825.338-5.819-.466-1.045-1.168-1.814-2.409-1.895-.871-.056-1.71.085-2.533.365-.52.177-.994.447-1.49.672-.92.415-1.88.625-2.892.575a.837.837 0 01-.818-.8c-.04-.79-.073-1.581-.12-2.372-.01-.167.019-.237.203-.284.59-.15 1.055-.52 1.5-.913.217-.192.413-.407.62-.612.233-.231.363-.538.852-.341.473.19 1.031-.463 1.042-1.118.011-.694-.332-1.255-.711-1.8-.059-.084-.21-.153-.148-.268.065-.12.22-.076.341-.08.194-.004.374.056.553.119 1.454.515 2.624 1.41 3.544 2.64.327.437.637.887.959 1.33.063.087.093.207.213.246.203-.618.525-1.147 1.104-1.529-.454 1.671.035 3.195.624 4.693.604 1.537 1.072 3.105 1.31 4.742.126.864-.147 1.573-.722 2.2-.772.848-1.653 1.567-2.588 2.224-.025.017-.057.018-.156.048z" fill="#E0E6EE"/><path d="M7.146 15.446c.154.619.368 1.214.68 1.772a.65.65 0 01.072.386c-.1 1.235.218 2.211 1.075 3.232l-.343-.925c-.113-.306-.145-.63-.176-.95-.033-.322 0-.645.071-.988.293.177.59.28.606.729.015.425.289.775.662 1.13a2.418 2.418 0 01-.132-1.276c1.819.557 3.35-.192 4.852-1.048.524-.298 1.017-.647 1.553-.926.598-.312 1.227-.388 1.886-.333.192.016.247.06.184.267-.147.49-.25.989-.314 1.5-.082.659-.046 1.285.35 1.887-.764.1-1.492.237-2.209.436-.885.245-1.73.578-2.535 1.027-1.38.771-2.117 1.962-2.376 3.492-.172 1.014-.113 2.017.049 3.026-.327-.7-.542-1.437-.718-2.185-.16-.685-.274-1.378-.266-2.084.002-.143-.061-.228-.164-.304-.824-.61-1.46-1.4-2.084-2.2-.062-.08-.084-.19-.124-.285-.4-.502-.584-1.095-.732-1.704-.045-.184-.07-.373-.17-.541a8.84 8.84 0 01.13-2.917c.021-.09.046-.198.173-.218z" fill="#8FA0BD"/><path d="M18.741 20.893c-.127-.47.034-.809.314-1.108.285-.306.63-.533 1.003-.715.13-.064.2-.13.218-.289.174-1.505.379-3.006.565-4.509.166-1.348-.422-2.47-1.323-3.445-.165-.18-.318-.372-.486-.57.71-.079 1.37.09 1.92.611.485.46.872 1.02 1.407 1.433.186.144.376.28.586.384.588.29 1.06.201 1.509-.28.569-.611 1.513-1.237 2.14-1.41-.415.512-.814 1.006-1.147 1.546-.198.322-.394.65-.485 1.02-.065.267-.175.32-.444.233-.686-.223-1.277-.054-1.737.515-.04.049-.068.109-.122.197.096-.033.157-.05.217-.073.579-.21.95-.035 1.077.559.139.64.227 1.292.34 1.938.053.308.149.605.28.888.21.456.536.777 1.04.92.61.173 1.027.565 1.203 1.188.018.064.028.13.034.196.004.038-.004.077-.011.175-.273-.522-.71-.716-1.194-.853-.205-.057-.298-.035-.352.193-.1.425-.28.822-.543 1.174-.59.791-1.389 1.12-2.365 1.03-.445-.04-.716-.33-.928-.689-.187-.316-.346-.65-.551-.953-.285-.42-.544-.475-1.006-.259-.455.212-.786.578-1.159.953zm11.933 14.905c-.754.962-1.745 1.613-2.852 2.089-1.924.826-3.95 1.163-6.036 1.14a4.2 4.2 0 01-1.445-.254c-.97-.366-1.609-1.032-1.664-2.088-.05-.973.474-1.67 1.303-2.135.816-.457 1.71-.551 2.625-.505.187.01.373.036.564.055-1.289.73-1.574 1.512-.968 2.73-.114-.674-.012-1.256.463-1.727.446-.442 1.011-.641 1.612-.749.89-.16 1.61.135 2.12.877.462.672.339 1.512-.27 2.053-.088.08-.181.154-.29.245 1.14.021 3.35-.35 4.838-1.73z" fill="#E0E6EE"/><path d="M37.243 13.113l.557-.21c.276.169.382.462.512.728.236.485.392.997.385 1.498-.05-.83.032-1.723-.3-2.568l.48-.326c.168.63.393 1.244.502 1.89.325 1.939.502 3.876-.031 5.81-.014.05-.047.096-.071.144-.32.72-.65 1.429-1.088 2.088a14.56 14.56 0 01-2.84 3.172c-.105.087-.208.209-.377.172-.208-.282-.17-.486.094-.756 1.011-1.031 1.752-2.245 2.262-3.595.035-.093.048-.193.072-.289-.085-.12-.04-.233.021-.343.13-.24.243-.49.35-.742-.683 1.547-1.77 2.768-3.094 3.795-.085.066-.171.148-.298.12-.146-.267-.076-.466.145-.673.439-.41.814-.876 1.026-1.469-.308.238-.607.484-.924.707-.137.098-.298.287-.46.196-.139-.079-.057-.308-.066-.47-.059-1.022.073-2.005.69-2.86a3.229 3.229 0 012.09-1.33c.344-.064.537-.254.632-.565.145-.475.17-.964.13-1.454a18.626 18.626 0 00-.399-2.67z" fill="#8FA0BD"/><path d="M18.57 11.57c.556.64 1.029 1.24 1.205 2.01.135.592-.175 1.05-.777 1.201-.99.25-1.896.067-2.729-.518-.735-.515-1.364-1.154-2.038-1.739-.75-.651-1.562-.802-2.484-.467-.276.1-.557.153-.852.076-.428-.113-.636-.417-.749-.897-.074.497-.036.903.256 1.232.158.178.072.215-.071.298-1.358.783-2.613.447-3.824-.347a3.419 3.419 0 01-.79-.734c1.082.22 1.915-.259 2.766-.739 1.247-.702 2.547-1.274 4.003-1.404 1.529-.136 2.722.446 3.635 1.643.359.47.685.964 1.034 1.44.212.289.44.567.782.714.458.197.74.026.775-.47a3.482 3.482 0 00-.104-1.029c-.014-.061-.018-.126-.038-.27z" fill="#E0E6EE"/><path d="M30.866 31.997c-1.944.127-3.856-.147-5.755-.497-1.633-.302-3.264-.498-4.924-.291-1.084.135-2.151.37-3.225.569-.22.04-.44.071-.66.106-.353.11-.395-.172-.486-.35.049.4.049.4-.47.467-.58-.007-1.162.013-1.732-.125-.174-.042-.343-.1-.478-.227-.15-.14-.186-.307-.084-.483.38-.66.862-1.19 1.687-1.267.319-.029.615.126.91.135.265.007.466-.34.782-.373.649-.067 1.234.13 1.79.43.162.087.266.114.43-.026.512-.43 1.108-.406 1.712-.238a3.6 3.6 0 01.944.417c.126.079.216.099.358.012.82-.501 1.627-.444 2.416.083.08.054.14.16.274.035.763-.71 1.72-.522 2.493.078.182.14.26.135.415-.027.323-.337.729-.262 1.127-.159.043.012.088.023.124.047.352.232.69.265 1.098.082.437-.197.845.019 1.212.281.155-.442.36-.58.827-.524.323.039.646.044.97.047.348.036.465.186.477.611-.21.514-.64.766-1.134.935-.157.054-.318.094-.476.14-.149.064-.22-.052-.32-.154-.1.095-.122.282-.302.266zM15.562 26.05c.908-.234 1.731.038 2.539.414.09.043.18.081.27.122.15.044.134.177.153.294.118.036.212-.113.332-.043 1.755.954 3.62 1.429 5.626 1.274a11.106 11.106 0 002.611-.546c.228-.075.402-.112.544.245.003-.345.109-.491.362-.562.428-.12.84-.29 1.267-.421.583-.18 1.358.352 1.392.953a.66.66 0 01-.304.602c-.63.42-1.335.595-2.09.59-.24-.001-.447-.289-.603-.222-.18.078-.337.282-.549.35a5.76 5.76 0 01-1.977.29c-.088-.002-.198-.003-.257-.053-.31-.257-.622-.099-.95-.055a5.164 5.164 0 01-2.656-.345c-.275-.112-.491-.194-.797-.156-.557.07-1.115-.027-1.648-.207-.352-.12-.65-.305-.587-.766-1.06.674-2.564.29-3.022-.753-.077-.4-.12-.79.344-1.006z" fill="#F5F8FA"/><path d="M12.69 26.524c.038-1.747.752-3.333 2.358-4 .605-.25 1.23-.295 1.871-.224.178.02.3.08.371.293.233.7.898 1.145 1.708 1.166 1.005.027 2.006.079 2.998.266.303.057.42.168.35.475-.043.195-.054.397-.07.596-.054.684-.453.969-1.119.76-.645-.204-1.264-.482-1.924-.648-1.77-.444-3.506-.47-5.182.37-.479.24-.903.566-1.361.947z" fill="#E0E6EE"/><path d="M12.16 32.133c.626.158 1.202.315 1.79.425 1.072.202 2.13.141 3.197-.043 2.026-.35 4.058-.652 6.125-.575 1.673.062 3.287.443 4.89.891.698.195 1.406.333 2.14.333 1.108 0 1.977-.46 2.669-1.299.069-.083.135-.17.252-.315.019.438-.117.754-.303 1.049-.468.735-1.198 1.068-2.003 1.284-1.208.324-2.366.057-3.515-.3-1.31-.407-2.622-.795-4.006-.867-1.08-.057-2.137.086-3.195.266-1.374.233-2.736.541-4.125.68-1.464.146-2.784-.13-3.774-1.33-.041-.05-.075-.105-.142-.2z" fill="#F5F8FA"/><path d="M12.15 34.855c.848.538 1.743.976 2.697 1.29a11.95 11.95 0 002.816.55c.097.007.243-.058.25.129.035.895.481 1.553 1.242 2.076-2.856-.601-5.777-2.315-7.005-4.045zm19.181-.283c-1.043 1.078-2.233 1.904-3.708 2.261-.054.013-.109.022-.163.035-.428.097-.438.084-.336-.33a2.02 2.02 0 00-.34-1.74c-.104-.143-.22-.277-.391-.491.856.335 1.66.53 2.492.577.83.047 1.644-.038 2.446-.312zm-2.783-16.859c.32.327.604.561.832.866-.14.023-.215-.075-.304-.126-.78-.45-1.603-.78-2.511-.855-.076-.006-.153 0-.199-.089-.132-.256-.308-.492-.374-.78-.092-.4.047-.582.455-.538 1.244.133 2.338.632 3.314 1.399.48.378.91.804 1.252 1.319-.76-.463-1.54-.878-2.465-1.196z" fill="#8FA0BD"/><path d="M32.861 16.582c-.888-.094-1.752-.28-2.49-.829a1.351 1.351 0 01-.537-.855c-.047-.241-.04-.332.265-.287.918.137 1.843.184 2.76-.03a3.013 3.013 0 001.021-.44c-.601 1.055-1.5 1.6-2.75 1.57.545.388 1.162.571 1.731.871zm-21.455-2.493c1.265.88 1.942.967 4.078.483.041.468-.157.824-.5 1.107-.615.506-1.362.688-2.118.843-.162.033-.328.05-.5.053.588-.313 1.23-.514 1.806-.901-1.298.106-2.224-.41-2.766-1.585z" fill="#F4F7F9"/><path d="M34.973 25.511c1.85-1.39 3.209-3.167 4.167-5.26.03-.067.009-.181.138-.172-.482 1.612-1.399 2.978-2.437 4.274a20.841 20.841 0 01-1.623 1.765c-.138-.192-.183-.403-.245-.607z" fill="#DFE5ED"/><path d="M7.147 15.446c-.3.997-.27 2.022-.254 3.045.001.037.04.074.061.111.1.56.222 1.114.457 1.638.034.075.09.16.013.245-.506-.66-.738-1.43-.902-2.227-.205-.997-.114-2.396.235-3.368.185.162.312.34.39.556z" fill="#E0E6EE"/><path d="M34.377 23.7c1.494-1.078 2.655-2.432 3.442-4.131 0 .271-.063.468-.284.9-.065.128-.142.25-.136.402-.264.42-.517.848-.791 1.26a9.066 9.066 0 01-2.073 2.193c-.086-.219-.158-.411-.158-.625z" fill="#DFE5ED"/><path d="M25.098 9.289c-.416.148-.815.327-1.121.768.043-.485.205-.818.511-1.066.15-.12.189-.29.266-.445.023.173.116.116.211.065.298-.16.622-.245.949-.315.122-.026.288-.085.37.052.086.146-.066.235-.147.337-.157.197-.391.241-.603.339-.152.07-.368.053-.436.265z" fill="#637298"/><path d="M15.562 26.05c-.296.273-.38.619-.346 1.005-.038-.412-.277-.35-.56-.252-.998.346-1.615 1.068-2.015 2.024.065-1.254 1.43-2.545 2.921-2.777z" fill="#8E9FBC"/><path d="M33.098 30.81c-.081-.264-.188-.51-.477-.611.57-.527.64-1.154.32-1.9.595.676.643 1.743.157 2.51z" fill="#8E9EBC"/><path d="M7.425 20.486c-.136-.498-.368-.967-.433-1.488a7.226 7.226 0 01-.037-.395c.091.323.187.646.273.97.117.443.35.835.519 1.255-.088.06-.168.037-.16-.064.01-.143-.119-.182-.162-.278z" fill="#434E71"/><path d="M15.346 32c.316-.037.555-.135.384-.578.25.147.268.487.572.462.018.093.122.221-.11.188-.28-.04-.564-.05-.846-.073z" fill="#4F5F86"/><path d="M30.865 31.997c.185-.083.163-.291.246-.433.203.028.134.353.376.32-.19.13-.359.386-.622.113z" fill="#51628A"/><path d="M18.856 26.838l-.408.192c-.045-.155.064-.322-.077-.443.287-.158.392.034.485.251z" fill="#52638A"/><path d="M33.57 19.069l.116.12v.31c-.133-.143-.142-.283-.116-.43z" fill="#747C9E"/><path d="M38.398 12.562c.19.019.169.19.198.303.209.808.197 1.63.106 2.46-.096-.885-.423-1.682-.901-2.421l.597-.342z" fill="#00030B"/><path d="M98.347 16.954c-.106-.05-.23-.153-.37-.31a4.017 4.017 0 01-.46-.659l-.07-.117-1.025.082.658-.657-.538-.959c-.357-.607-.728-1.029-1.108-1.27.292-.088.556-.213.794-.38.24-.166.428-.378.57-.636.14-.256.209-.552.209-.88 0-.408-.11-.771-.332-1.089-.222-.317-.543-.562-.965-.733-.42-.174-.908-.26-1.467-.26H90.01v.162c.354 0 .61.08.769.239.158.16.238.435.238.825v5.695c0 .317-.06.57-.183.762-.12.191-.397.288-.824.288v.16h3.833v-.15a2.068 2.068 0 01-.531-.075.626.626 0 01-.34-.29c-.09-.154-.137-.384-.137-.695v-2.6h.259c.33 0 .6.075.814.222.212.146.418.385.617.718.2.33.517.92.952 1.77.138.273.333.638.587 1.098h2.633v-.158a1.338 1.338 0 01-.35-.103zM94.641 12.5c-.322.304-.8.455-1.436.455h-.372V9.54h.443c.403 0 .742.065 1.017.193.274.128.482.317.621.56.138.246.207.544.207.897.001.571-.16 1.007-.48 1.31zm11.847 15.577c-.107-.048-.23-.152-.37-.307a3.914 3.914 0 01-.349-.483l-1.031.242.615-.7c.013.003.034-.16.047-.156l-.718-1.214c-.358-.606-.729-1.031-1.109-1.268a2.81 2.81 0 00.796-.381c.239-.165.427-.377.568-.635a1.82 1.82 0 00.211-.883 1.85 1.85 0 00-.333-1.086c-.222-.319-.544-.562-.964-.735-.421-.172-.91-.258-1.469-.258h-4.234v.159c.356 0 .612.08.771.24.16.16.24.436.24.825v5.696c0 .317-.063.57-.184.76-.121.191-.397.289-.827.289v.158h3.836v-.146c-.22-.008-.4-.034-.531-.075a.626.626 0 01-.338-.294c-.094-.153-.141-.383-.141-.691v-2.6h.261c.329 0 .599.075.812.22.212.149.417.387.618.718.2.332.516.92.952 1.77.137.273.334.64.587 1.098h2.633v-.158a1.311 1.311 0 01-.349-.105zm-3.707-4.452c-.322.301-.8.454-1.434.454h-.373v-3.415h.444c.402 0 .742.063 1.018.193.273.128.48.313.619.56.138.245.209.542.209.896 0 .571-.161 1.009-.483 1.312zM55.316 11.879h-.194a3.147 3.147 0 00-.34-1.049 2.516 2.516 0 00-1.413-1.215 2.865 2.865 0 00-.945-.154c-.443 0-.833.093-1.171.28a2.153 2.153 0 00-.78.704 3.574 3.574 0 00-.459 1.172 6.768 6.768 0 00-.132 1.371c0 .885.154 1.59.464 2.12.31.53.684.898 1.123 1.106a2.99 2.99 0 001.294.311c1.026 0 1.916-.5 2.67-1.5v.745a5.423 5.423 0 01-.798.762c-.284.22-.638.404-1.063.551-.425.147-.922.222-1.49.222-.673 0-1.273-.116-1.8-.34a3.744 3.744 0 01-1.31-.913 3.906 3.906 0 01-.787-1.314c-.177-.494-.265-1-.265-1.524 0-.448.057-.867.171-1.253.115-.386.27-.728.466-1.03.195-.298.428-.576.697-.837.463-.418.942-.704 1.442-.855a5.414 5.414 0 011.612-.231c.568 0 1.189.094 1.862.283.236.055.41.082.521.082.203 0 .358-.132.465-.397h.16v2.903zm.754 1.248c0-.55.095-1.08.286-1.584a3.798 3.798 0 012.183-2.215c.526-.212 1.122-.319 1.786-.319.673 0 1.271.11 1.798.325a3.81 3.81 0 012.176 2.224c.188.502.282 1.037.282 1.605a4.59 4.59 0 01-.273 1.589 3.907 3.907 0 01-.807 1.318c-.355.381-.8.683-1.338.905-.537.22-1.146.332-1.825.332-.732 0-1.37-.126-1.915-.374a3.745 3.745 0 01-1.335-.984 4.099 4.099 0 01-.767-1.354 4.532 4.532 0 01-.25-1.468zm1.94-.105c0 .551.041 1.096.124 1.63a3.34 3.34 0 00.645 1.501c.347.466.87.7 1.569.7.979 0 1.606-.395 1.881-1.179a7.246 7.246 0 00.413-2.404c0-.637-.055-1.232-.167-1.788a3.046 3.046 0 00-.679-1.427c-.341-.396-.824-.594-1.448-.594-.702 0-1.226.227-1.571.677-.345.45-.56.929-.643 1.436a9.03 9.03 0 00-.124 1.448zm10.1-3.935l4.981 5.237v-3.72c0-.488-.1-.824-.3-1.002-.198-.177-.504-.297-.913-.355v-.16h2.815v.16c-.31.033-.542.117-.693.25a.916.916 0 00-.293.475c-.044.179-.067.39-.067.632v6.702h-.205l-5.974-6.26v4.575c0 .382.083.71.247.98.164.269.468.421.91.456v.16h-2.913v-.16c.817-.066 1.221-.466 1.214-1.2v-5.38a.477.477 0 01-.089-.076 9.748 9.748 0 00-.166-.16l-.21-.199c-.496-.474-.93-.741-1.304-.795v-.16h2.96zm14.95 0v.16c-.3.044-.557.16-.773.344-.218.187-.44.601-.669 1.251l-2.317 6.463h-.215l-2.781-6.982c-.134-.351-.297-.613-.49-.783-.195-.17-.476-.266-.846-.293v-.16h3.73v.16c-.186.012-.335.04-.45.092-.114.048-.172.172-.172.373 0 .14.05.328.144.567l1.59 4.01 1.27-3.551c.106-.283.16-.54.16-.766 0-.13-.05-.273-.148-.432-.1-.159-.326-.256-.677-.293v-.16h2.644zm6.202 0l.066 1.82h-.161a4.362 4.362 0 00-.246-.754 1.022 1.022 0 00-.386-.457c-.166-.105-.393-.156-.681-.156h-1.647v3.415h1.315c.391 0 .676-.086.856-.258.178-.174.282-.43.313-.767h.161v2.383h-.161c-.056-.361-.19-.6-.405-.722a1.513 1.513 0 00-.763-.183h-1.315v2.34c0 .677.35 1.018 1.053 1.018h.5c.335 0 .61-.047.822-.134.213-.088.388-.24.526-.455.139-.216.263-.522.375-.915h.16l-.122 1.954h-6.15v-.159c.429 0 .705-.097.83-.291.126-.193.19-.445.19-.76v-5.695c0-.298-.058-.547-.173-.756-.114-.204-.378-.308-.793-.308h-.055v-.16h5.89zm10.116 0h5.702c.263 0 .481-.032.653-.099h.162l.044 1.91h-.155c-.082-.56-.218-.915-.412-1.068a1.103 1.103 0 00-.712-.23h-1.524v6.407c0 .216.025.396.071.545.049.15.147.269.295.364.147.095.362.142.647.142v.158h-3.839v-.159c.425 0 .701-.097.826-.288.125-.191.187-.445.187-.762V9.601h-1.524a.853.853 0 00-.63.245c-.164.164-.324.514-.477 1.052h-.172l.043-1.91h.162c.175.067.392.1.653.1zM58.053 20.212v.16a2.577 2.577 0 00-.53.08.606.606 0 00-.346.265c-.092.138-.125.342-.1.613l.45 5.46c.032.382.087.663.163.847.076.183.17.303.283.367a2.1 2.1 0 00.534.177v.159h-3.746v-.159c.314-.01.56-.09.74-.248.18-.159.25-.471.214-.938l-.4-5.176h-.02l-2.666 6.52h-.194l-2.749-6.306h-.022l-.36 4.53c-.037.448-.005.787.094 1.027.1.235.232.39.396.461.165.07.356.116.574.13v.159h-2.77v-.159c.35-.023.615-.162.795-.42.18-.257.3-.685.363-1.285l.55-5.145c-.344-.549-.814-.867-1.409-.959v-.159h2.949l2.36 5.346 2.189-5.346h2.657zm.965 4.039c0-.553.095-1.08.285-1.585.19-.504.47-.945.84-1.327a3.86 3.86 0 011.343-.888c.527-.212 1.123-.317 1.787-.317.673 0 1.272.11 1.798.323a3.88 3.88 0 011.342.896c.368.384.645.826.834 1.329.188.502.282 1.035.282 1.602 0 .563-.091 1.092-.273 1.588a3.93 3.93 0 01-.807 1.32c-.354.382-.8.684-1.338.904-.538.221-1.146.332-1.826.332-.73 0-1.368-.124-1.913-.372a3.758 3.758 0 01-1.336-.988 4.097 4.097 0 01-.767-1.35 4.507 4.507 0 01-.251-1.467zm1.938-.107c0 .552.042 1.097.126 1.632.082.535.298 1.037.645 1.503.347.466.87.697 1.568.697.979 0 1.606-.394 1.88-1.178a7.214 7.214 0 00.414-2.403 9.14 9.14 0 00-.167-1.79 3.062 3.062 0 00-.679-1.426c-.342-.395-.825-.591-1.449-.591-.702 0-1.225.225-1.57.675-.346.451-.56.93-.643 1.439a9.04 9.04 0 00-.125 1.442zm10.101-3.932l4.983 5.236V21.73c0-.49-.1-.824-.3-1.003-.2-.178-.504-.296-.914-.355v-.159h2.815v.16c-.31.033-.541.117-.693.25a.926.926 0 00-.293.473 2.69 2.69 0 00-.066.634v6.7h-.205l-5.974-6.26v4.574c0 .384.083.709.247.983.165.268.468.42.911.454v.159h-2.914v-.159c.816-.066 1.22-.466 1.213-1.198v-5.38a.818.818 0 01-.088-.078l-.166-.16c-.078-.075-.148-.14-.211-.199-.495-.476-.93-.739-1.302-.795v-.159h2.957zm11.67 2.013h-.217c-.147-.508-.381-.91-.702-1.2a1.67 1.67 0 00-1.169-.438 1.38 1.38 0 00-.618.135 1.06 1.06 0 00-.445.386c-.11.167-.164.359-.164.577 0 .124.022.248.065.37.041.12.144.27.307.445.162.177.41.373.742.586.373.23.6.378.682.44.465.292.846.562 1.14.813.296.25.522.52.677.81.155.291.233.62.233.986 0 .34-.065.648-.197.927-.13.276-.318.517-.56.722-.242.204-.53.363-.864.475-.334.11-.697.168-1.089.168-.401 0-.868-.076-1.397-.227a8.324 8.324 0 00-.224-.05 1.157 1.157 0 00-.242-.026c-.172 0-.298.09-.376.27h-.194l.05-2.294h.217c.07.433.221.795.451 1.086.231.289.493.501.785.633a2.1 2.1 0 00.859.194c.41 0 .75-.114 1.016-.342a1.05 1.05 0 00.403-.835.998.998 0 00-.17-.575 2.022 2.022 0 00-.507-.487c-.225-.16-.65-.438-1.274-.835a7.845 7.845 0 01-.839-.619 3.206 3.206 0 01-.54-.571 1.855 1.855 0 01-.275-.546 2.05 2.05 0 01-.08-.583c0-.397.102-.79.306-1.174.206-.388.497-.703.873-.945a2.312 2.312 0 011.292-.37c.224 0 .441.022.648.068.055.006.129.024.22.046.094.025.17.043.234.059.164.029.285.042.365.042.126 0 .214-.02.264-.06a.627.627 0 00.141-.175h.172v2.114zm1.879-2.013h5.701c.262 0 .48-.034.653-.099h.161l.045 1.909h-.155c-.082-.559-.219-.915-.412-1.068a1.12 1.12 0 00-.713-.229h-1.525v6.408c0 .212.024.394.075.545a.665.665 0 00.291.363c.147.093.365.14.65.14v.16h-3.84v-.16c.424 0 .7-.097.824-.288.127-.189.19-.443.19-.76v-6.408h-1.524a.855.855 0 00-.63.244c-.164.165-.323.515-.478 1.053h-.171l.044-1.909h.16c.173.065.391.1.654.1zm12.794 0l.067 1.82h-.161a4.112 4.112 0 00-.247-.756 1.023 1.023 0 00-.384-.454c-.168-.106-.395-.157-.682-.157h-1.645v3.415h1.312c.392 0 .677-.086.856-.26.178-.172.283-.428.315-.768h.16v2.383h-.16c-.056-.359-.192-.602-.406-.722a1.536 1.536 0 00-.765-.181h-1.313v2.34c0 .677.35 1.013 1.052 1.013h.5c.335 0 .61-.042.82-.13.214-.09.389-.242.528-.456.138-.214.262-.52.373-.912h.161l-.123 1.952h-6.15v-.159c.429 0 .707-.097.83-.29.127-.193.19-.445.19-.759v-5.695c0-.298-.058-.55-.172-.756-.115-.207-.379-.31-.793-.31h-.055v-.159h5.891v.001z" fill="#fff"/><path d="M48.45 12.208s-.467 3.428 2.078 4.637c0 0-2.482-.571-2.376-4.156l.298-.481zm8.113-.285s-.467 3.591 2.08 4.861c0 0-2.482-.6-2.376-4.358l.296-.503zm6.344.793s.313 3.068-1.393 4.15c0 0 1.662-.51 1.592-3.72l-.2-.43zm-3.375 10.361s-.467 3.593 2.079 4.86c0 0-2.482-.6-2.375-4.357l.296-.503zm6.344.793s.312 3.066-1.394 4.151c0 0 1.664-.51 1.593-3.723l-.2-.428zm2.12-12.697l5.282 5.579v-.255l-4.996-5.293-.286-.031zm2.884 11.072l5.284 5.576v-.255l-4.996-5.291-.287-.03zm8.19-5.748l-2.545-6.339.255.033 2.419 5.99-.129.316zM52.48 27.724l-2.822-6.22.256.019 2.68 5.878-.113.323zm32.157-17.342l.032 5.831s-.063.476-.286.601c0 0 .477-.253.477-.792s-.065-5.293-.065-5.293l-.158-.347zm6.536 0l.03 5.831s-.063.476-.285.601c0 0 .478-.253.478-.792s-.065-5.293-.065-5.293l-.158-.347zM86.716 22.14l.033 5.313s-.063.473-.286.602c0 0 .476-.255.476-.793 0-.54-.064-4.775-.064-4.775l-.159-.347zm6.068 0l.032 5.313s-.064.473-.287.602c0 0 .478-.255.478-.793 0-.54-.063-4.775-.063-4.775l-.16-.347zm6.661-.013l.032 5.326s-.064.473-.286.602c0 0 .477-.255.477-.793 0-.54-.063-4.786-.063-4.786l-.16-.349zm2.078-11.745l.032 5.831s-.063.476-.285.601c0 0 .477-.253.477-.792s-.064-5.293-.064-5.293l-.16-.347zM78.37 22.561s-.17.93.975 1.733c1.147.802 3.097 1.688 2.63 2.747 0 0 .383-.93-.296-1.394-.874-.6-2.419-1.649-2.419-1.649s-.933-.76-.89-1.437z" fill="#8FA0BD"/></svg>