<svg width="439" height="402" viewBox="0 0 439 402" fill="none" xmlns="http://www.w3.org/2000/svg">
<g opacity="0.03">
<path d="M0.0893555 220.601C9.73749 231.841 21.6089 240.076 35.0068 246.226C39.7272 248.395 44.6052 250.116 50.3708 251.581C22.563 223.846 18.3237 190.176 21.9408 153.667C24.1226 155.041 23.1603 156.854 23.658 158.17C24.2138 159.635 24.4212 161.24 24.7448 162.788C29.1582 183.679 36.4171 203.361 49.4997 220.535C52.6605 224.682 56.2775 228.464 60.4006 231.7C60.525 231.8 60.9398 231.535 61.2136 231.444C62.01 231.361 62.4911 231.882 62.9059 232.42C70.2644 241.922 75.5904 252.127 75.1175 264.65C74.8354 272.166 75.1009 279.706 75.0511 287.238C75.0179 291.699 74.1054 292.228 70.3059 290.002C60.0107 283.985 50.6778 276.643 41.7182 269.442C46.422 276.403 51.3995 283.654 57.0573 290.424C61.8938 296.21 66.7635 301.954 72.6619 306.713C74.0639 307.847 74.9765 309.212 75.018 311.075C75.3166 323.854 81.6961 333.803 89.9174 342.866C93.3768 346.681 97.309 349.992 101.44 353.079C102.469 353.849 103.962 354.404 103.738 356.158C97.533 353.717 92.2817 349.711 86.9557 345.87C74.8271 337.146 63.553 327.405 53.3573 316.496C40.3577 302.583 29.1333 287.362 19.9829 270.626C12.1599 256.324 5.93797 241.384 1.44159 225.725C1.13464 224.665 1.0185 223.473 0.09765 222.662C0.0893541 221.967 0.0893555 221.28 0.0893555 220.601Z" fill="#E0E6EE"/>
<path d="M103.739 356.147C97.2764 350.916 90.6728 345.817 85.5625 339.155C79.0835 330.704 73.9898 321.682 74.2303 310.583C74.2718 308.704 72.8781 308.1 71.8162 307.173C58.6175 295.668 48.6873 281.548 39.4207 266.849C50.529 275.415 61.4547 284.189 74.2469 291.24C73.9068 278.759 75.0682 266.708 73.3925 254.74C72.1232 245.627 66.3243 238.666 61.2141 231.432C48.2061 210.74 40.2503 188.476 39.6862 163.803C39.3046 147.225 41.7187 131.159 47.7332 115.707C48.5131 113.704 47.5756 112.752 46.7045 111.477C39.0889 100.32 36.5172 88.5091 42.0008 75.6553C42.0837 75.4649 42.2496 75.3076 42.6561 74.7531C44.9707 85.157 52.1052 90.1148 61.745 92.7551C57.0081 70.3995 54.2704 48.8137 73.857 31.4987C69.6842 42.664 72.0651 51.6278 82.3023 58.423C81.3731 41.4556 85.8446 32.0532 98.0396 25.4401C94.2235 42.1674 97.9732 56.2379 112.317 67.4944C106.136 47.7956 106.253 29.835 121.442 13.9188C124.719 28.1549 129.78 40.7769 142.879 48.8468C143.252 42.3826 143.319 36.3489 144.928 30.4972C145.874 27.0623 147.218 23.8178 149.715 21.1858C151.042 19.7788 151.789 19.547 152.56 21.9059C156.94 35.397 163.76 47.5225 173.607 57.8354C177.39 61.7917 181.538 65.3258 186.623 68.3717C185.885 61.2785 185.968 54.5578 186.714 47.8039C189.245 24.9517 205.505 6.13864 227.738 0.394561C230.077 -0.209643 230.567 1.18913 231.23 2.57135C234.242 8.86998 234.947 15.6487 235.204 22.5018C235.312 25.407 235.221 28.3121 235.221 31.5897C240.414 25.3325 243.857 18.471 245.524 10.1529C254.741 17.7178 261.295 26.6816 264.995 37.7145C268.678 48.6978 268.437 59.8466 266.222 71.5334C283.934 63.4305 299.68 53.7384 309.137 36.4068C311.949 31.2504 313.7 25.7049 313.816 19.8119C313.874 16.915 314.687 16.7577 316.877 18.1234C329.404 25.945 336.091 37.2096 336.995 51.9009C337.069 53.1424 337.003 54.3922 337.003 56.0724C349.48 51.5202 359.444 44.4353 366.205 32.5995C375.173 48.5323 380.283 64.4651 371.97 82.5829C382.191 78.8584 389.317 72.6425 393.059 62.2055C395.157 67.3537 396.12 72.3197 396.7 77.4017C398.136 89.8996 394.602 101.76 392.154 113.77C392.021 114.432 391.972 115.119 391.889 115.789C388.322 117.602 384.962 116.154 381.668 114.97C375.745 112.843 371.497 108.531 367.681 103.763C363.318 98.3088 360.306 91.9605 356.25 86.2992C355.461 85.1984 354.831 83.9734 353.786 83.063C352.641 83.5182 352.798 84.6024 352.467 85.3805C351.073 88.6746 349.414 91.7701 346.601 94.1042C345.415 95.0891 344.129 96.8852 342.561 95.7099C341.334 94.7994 342.653 93.1855 343.175 91.9771C345.224 87.1931 345.78 82.3512 344.154 77.3106C343.217 74.4303 341.392 72.6839 338.413 72.0797C330.441 70.474 323.008 71.8562 315.956 75.8539C309.95 79.2557 304.4 83.3113 299.439 88.0208C287.336 99.4924 275.58 111.303 266.305 125.299C264.596 127.882 263.136 130.588 262.166 133.526C261.9 134.329 261.096 135.331 262 136.034C262.796 136.663 263.734 135.902 264.547 135.554C268.612 133.824 271.83 130.894 275.141 128.089C276.169 127.22 277.256 125.159 278.658 126.491C279.869 127.642 278.301 129.214 277.414 130.34C273.581 135.207 269.425 139.709 263.667 142.441C261.137 143.641 261.12 145.015 263.493 146.529C265.816 148.011 268.454 148.185 271.109 147.961C276.144 147.531 280.541 145.371 284.731 142.714C293.541 137.119 301.198 130.067 309.228 123.487C310.73 122.253 312.273 121.078 313.775 119.845C320.876 113.993 328.674 113.497 336.92 116.956C343.988 119.919 350.368 124.256 357.428 127.253C358.921 127.89 359.551 129.156 359.792 130.754C361.227 140.421 360.041 150.08 359.784 159.747C359.734 161.552 358.813 162.719 357.112 163.331C356.034 163.72 354.964 164.101 353.869 164.448C341.84 168.281 334.689 175.978 334.282 189.022C334.315 190.247 334.133 191.497 334.324 192.126C334.116 191.878 334.332 190.959 334.282 190.082C334.68 184.147 338.994 180.795 343.125 177.7C349.829 172.684 357.569 169.969 366.039 169.679C370.369 169.53 370.983 168.976 371.058 164.697C371.19 156.983 369.191 149.583 367.648 142.118C367.092 139.444 366.312 136.821 365.674 134.155C364.346 128.651 365.383 127.493 371.224 127.873C372.219 128.618 372.493 129.744 372.709 130.861C374.625 140.595 376.093 150.386 376.326 160.318C376.409 163.869 375.753 167.354 374.625 170.731C373.488 174.141 371.182 176.276 367.59 176.996C351.131 180.298 340.338 194.303 339.99 211.874C339.94 214.498 339.915 217.122 340.006 219.737C340.097 222.626 340.728 222.94 343.291 221.426C345.166 220.325 346.842 218.943 348.543 217.602C348.899 217.321 349.206 216.973 349.58 216.708C350.99 215.715 352.558 213.406 354.076 214.813C355.511 216.137 353.578 218.115 352.657 219.605C350.318 223.404 347.622 226.946 344.32 229.967C342.578 231.565 341.732 233.411 342.445 235.769C342.91 237.383 342.545 239.875 344.038 240.388C345.747 240.984 347.141 238.882 348.443 237.698C356.731 230.216 363.492 221.525 369.042 211.85C369.971 210.227 370.278 207.827 372.841 207.546C373.779 209.044 372.991 210.426 372.46 211.75C367.142 225.051 359.767 237.102 349.862 247.481C347.622 249.823 346.875 251.843 348.551 254.616C350.534 259.822 350.069 260.095 354.341 255.865C366.512 243.831 376.55 230.199 384.696 215.193C387.575 209.888 389.699 204.218 391.507 198.441C394.303 187.574 395.713 176.549 395.016 165.342C394.12 151.032 392.602 136.804 387.882 123.123C387.509 122.047 387.044 121.004 387.226 119.82C388.147 117.817 389.209 115.996 391.922 116.509C396.493 128.693 399.803 141.174 401.056 154.169C403.014 174.546 401.097 194.352 392.577 213.223C392.212 214.035 391.939 214.887 391.623 215.723C392.104 217.221 391.217 218.372 390.57 219.547C387.002 226.052 383.037 232.31 378.532 238.211C376.317 241.116 374.285 244.146 372.211 247.15C367.491 253.987 364.404 261.245 365.276 269.837C365.649 273.545 365.317 277.327 365.358 281.457C367.499 280.845 369.042 279.694 370.577 278.66C380.241 272.138 389.607 265.235 397.447 256.511C397.829 256.089 398.177 255.634 398.633 255.286C399.09 254.947 399.604 254.566 400.151 255.021C400.517 255.327 400.492 255.841 400.4 256.304C400.268 256.983 399.928 257.579 399.604 258.183C391.366 273.752 380.714 287.474 367.814 299.451C366.064 301.073 365.168 302.729 365.317 305.087C365.433 306.9 365.242 308.737 365.358 310.558C366.221 324.505 359.875 335.082 349.754 343.897C348.982 344.568 348.227 345.271 347.406 345.892C323.954 364.515 299.049 380.853 271.723 393.318C267.483 395.255 263.029 396.695 258.731 398.507C250.676 401.893 242.197 401.388 233.761 401.305C228.907 401.255 223.88 402.19 219.55 398.946C218.894 398.449 218.297 398.822 217.625 399.012C202.261 403.324 187.154 401.984 172.263 396.786C152.121 389.75 134.517 378.188 117.344 365.889C112.806 362.652 108.277 359.4 103.739 356.147Z" fill="#00030B"/>
<path d="M371.168 128.272C365.435 129.455 365.551 129.43 366.887 134.992C369.276 144.916 372.146 154.774 372.063 165.128C372.022 170.169 371.574 170.467 366.646 170.649C356.127 171.046 346.844 174.539 339.328 182.087C337.055 184.372 335.304 187.02 334.823 190.323C333.488 190.819 334.226 189.321 333.645 189.098C333.438 177.179 339.668 168.729 352.062 164.118C358.757 161.627 358.732 161.627 359.097 154.509C359.495 146.654 359.62 138.808 358.981 130.962C358.898 129.902 359.338 128.702 357.761 128.148C351.498 125.954 345.981 122.254 340.108 119.267C330.219 114.234 321.093 114.176 312.35 122.006C305.481 128.156 298.213 133.892 290.88 139.503C284.915 144.064 278.685 148.368 270.787 148.988C267.51 149.245 264.374 148.781 261.819 146.563C259.48 144.536 259.729 143.195 262.5 141.995C269.808 138.841 274.719 133.221 278.303 126.145C277.258 127.154 276.238 128.189 275.167 129.166C274.072 130.167 272.952 131.135 271.799 132.062C268.954 134.372 265.868 136.275 262.334 137.376C261.695 137.575 261.015 138.055 260.426 137.542C259.82 137.012 260.226 136.259 260.417 135.638C261.429 132.377 262.69 129.182 264.632 126.368C277.855 107.166 293.435 90.1902 312.681 76.8315C318.663 72.6849 325.349 70.2432 332.857 70.3922C344.728 70.6239 346.952 76.3101 345.624 87.3347C345.276 90.2068 343.882 92.8636 342.19 96.0254C348.918 92.5822 351.456 87.0947 352.908 80.5395C356.384 84.173 358.649 88.121 361.038 91.9697C364.581 97.6724 367.874 103.574 372.868 108.209C378.219 113.175 384.375 116.254 391.916 115.807C391.924 116.047 391.924 116.295 391.932 116.535C390.057 116.692 389.352 118.571 387.875 119.308C386.946 121.344 384.989 122.172 383.255 123.272C381.239 124.63 379.19 125.938 376.975 126.956C375.067 127.543 373.333 128.876 371.168 128.272Z" fill="#E0E6EE"/>
<path d="M347.397 345.91C350.259 342.665 353.411 339.702 356.074 336.268C362.329 328.181 365.598 319.259 364.329 308.938C363.765 304.361 364.652 300.843 368.551 297.358C380.904 286.342 390.502 273.033 398.433 258.532C398.964 257.555 399.437 256.554 399.802 255.437C389.648 266.751 377.544 275.541 364.088 283.735C364.901 273.861 362.636 264.433 366.477 255.461C368.601 250.512 371.687 246.133 374.84 241.821C380.954 233.47 386.952 225.044 391.606 215.758C393.505 215.096 394.219 213.266 395.206 211.835C407.849 193.659 414.909 173.29 418.659 151.646C418.849 150.528 419.082 149.461 420.376 147.723C422.027 164.889 422.234 181.169 418.675 197.367C415.1 213.622 408.388 228.33 397.205 240.96C413.872 235.614 427.444 225.797 439 212.819C437.233 220.194 434.52 227.147 431.791 234.082C422.201 258.391 408.944 280.615 392.925 301.199C384.952 311.445 376.358 321.204 366.826 330.027C361.168 335.266 355.61 340.679 349.18 345.041C348.649 345.413 348.002 345.629 347.397 345.91Z" fill="#E0E6EE"/>
<path d="M247.115 89.2042C257.12 86.1004 267.399 83.8657 276.989 79.479C293.49 71.9306 306.381 59.9872 317.705 46.1981C319.962 43.4502 321.671 44.1703 323.562 46.016C327.088 49.4674 328.946 53.9038 330.232 58.5388C331.028 61.4273 332.563 62.3709 335.558 62.5613C344.908 63.1406 353.494 61.1873 361.234 55.8902C362.81 54.8142 363.764 55.1453 365.017 56.3702C368.435 59.6975 369.621 63.9269 369.911 68.4129C370.218 73.1886 370.11 77.9892 368.791 82.649C368.153 84.9085 368.891 85.7611 371.255 85.7114C378.498 85.5624 384.944 83.5181 390.178 78.2954C391.024 77.4512 392.194 75.5475 392.874 78.3368C394.6 85.3638 393.646 100.61 385.981 106.983C385.806 107.123 385.591 107.214 384.902 107.612C387.416 102.513 389.929 97.8451 389.772 91.6955C387.25 95.089 385.557 98.3583 382.405 100.328C381.534 100.874 380.688 101.446 379.792 101.934C377.145 103.374 375.204 103.051 373.752 100.055C371.521 95.4449 369.098 90.9175 366.568 86.4646C360.545 75.862 352.366 67.7922 340.03 64.9615C331.601 63.0248 323.521 64.6718 315.714 67.9743C304.739 72.6175 295.472 79.8101 286.687 87.673C283.286 90.7188 279.959 93.8475 276.649 96.9926C274.143 99.3681 271.622 100.494 268.535 97.8865C266.81 96.4298 264.844 96.496 262.728 97.2492C256.988 99.3018 252.574 103.308 248.02 107.082C244.137 110.302 240.081 113.24 235.476 115.334C228.475 118.521 222.991 117.312 218.113 111.369C212.812 104.913 207.229 98.7473 200.517 93.715C195.532 89.9739 190.197 87.0026 183.677 86.9777C179.703 86.9612 176.327 88.3186 173.398 90.9506C172.038 92.1673 170.685 93.3922 169.267 94.5427C164.588 98.3335 161.319 98.408 156.242 95.1386C145.142 87.9875 133.08 83.7664 119.748 84.5195C108.118 85.1817 97.7145 89.9243 87.5687 95.2711C80.2102 99.1529 72.9596 103.275 64.9457 105.783C51.5644 109.962 41.7919 102.795 41.9412 88.8483C41.9495 88.2855 41.9412 87.7227 41.9412 86.2908C42.8371 88.2193 43.3598 89.4194 43.9405 90.5864C48.2959 99.2936 57.355 102.513 66.1735 98.3418C73.5901 94.8324 79.4387 89.0883 85.7021 83.9981C94.8773 76.5407 104.783 71.5167 117.003 72.7251C119.334 72.9569 119.599 72.1209 119.151 69.969C118.33 66.0623 117.998 62.0729 121.117 58.2408C127.513 69.4972 137.535 75.5723 149.439 79.9094C145.424 65.1602 145.375 63.7283 148.66 59.1016C150.825 61.4439 152.7 64.0014 155.213 65.9796C163.924 72.8576 174.17 75.3985 184.888 75.9696C196.535 76.5904 205.868 81.3661 213.534 89.7587C213.6 84.6189 211.485 79.2472 207.262 73.6604C204.068 69.431 200.252 65.8389 195.988 62.7433C194.735 61.8329 194.154 60.9142 194.229 59.3747C194.743 48.4328 198.792 39.0718 206.548 31.2833C208.025 29.8018 209.386 30.2487 210.896 30.8943C222.784 35.9763 229.478 45.1469 232.009 57.6035C232.656 60.7983 232.83 64.0345 233.12 67.3204C238.056 59.0354 239.956 50.2123 238.388 40.7437C244.494 46.3388 247.265 63.0662 243.59 81.5978C243.631 83.7333 242.943 85.4796 241.259 86.9198C238.596 89.1959 237.185 92.2004 236.58 95.3207C238.761 91.2899 242.461 89.4856 247.115 89.2042Z" fill="#637298"/>
<path d="M318.662 353.613C324.344 346.834 329.106 340.237 332.79 332.945C342.537 313.644 345.316 293.879 336.241 273.518C331.479 262.841 324.311 254.995 311.643 254.167C302.742 253.588 294.172 255.028 285.768 257.892C280.467 259.696 275.622 262.461 270.554 264.753C261.163 268.991 251.357 271.135 241.012 270.63C236.441 270.406 232.899 267.046 232.666 262.452C232.251 254.382 231.911 246.304 231.438 238.234C231.339 236.521 231.629 235.809 233.512 235.329C239.527 233.806 244.281 230.016 248.827 226.01C251.05 224.048 253.049 221.846 255.156 219.752C257.537 217.394 258.873 214.265 263.867 216.268C268.695 218.205 274.395 211.542 274.503 204.854C274.619 197.761 271.118 192.033 267.244 186.471C266.646 185.611 265.095 184.907 265.734 183.732C266.397 182.515 267.982 182.954 269.218 182.921C271.192 182.871 273.034 183.484 274.859 184.129C289.709 189.393 301.663 198.539 311.054 211.087C314.398 215.556 317.567 220.158 320.852 224.669C321.499 225.563 321.797 226.788 323.025 227.193C325.099 220.878 328.393 215.473 334.308 211.575C329.662 228.642 334.664 244.21 340.679 259.506C346.843 275.207 351.63 291.214 354.06 307.933C355.346 316.764 352.55 323.998 346.685 330.413C338.796 339.062 329.803 346.412 320.246 353.116C319.997 353.29 319.665 353.306 318.662 353.613Z" fill="#E0E6EE"/>
<path d="M63.7771 152.091C65.345 158.406 67.5351 164.489 70.729 170.184C71.4176 171.409 71.5752 172.717 71.4591 174.124C70.4387 186.737 73.6824 196.711 82.4345 207.131C81.1072 203.548 80.0121 200.626 78.9337 197.688C77.7805 194.559 77.457 191.256 77.1335 187.987C76.8016 184.693 77.1335 181.399 77.8635 177.898C80.85 179.702 83.8946 180.753 84.0522 185.339C84.2016 189.684 86.9973 193.259 90.8134 196.876C89.1044 192.192 88.7643 188.169 89.4612 183.849C108.036 189.543 123.673 181.895 139.021 173.147C144.363 170.101 149.399 166.542 154.883 163.687C160.98 160.508 167.409 159.73 174.137 160.285C176.104 160.45 176.659 160.897 176.021 163.016C174.519 168.015 173.457 173.114 172.81 178.328C171.972 185.065 172.337 191.455 176.386 197.605C168.587 198.631 161.146 200.03 153.829 202.058C144.787 204.566 136.15 207.967 127.938 212.553C113.843 220.424 106.318 232.582 103.672 248.217C101.913 258.572 102.519 268.818 104.17 279.123C100.827 271.963 98.6364 264.44 96.8362 256.8C95.1936 249.806 94.0405 242.73 94.1235 235.521C94.1401 234.056 93.493 233.195 92.4477 232.417C84.0274 226.176 77.54 218.106 71.1604 209.937C70.5299 209.134 70.3059 208.009 69.8911 207.032C65.8178 201.909 63.9347 195.85 62.4165 189.626C61.9603 187.755 61.6948 185.819 60.6827 184.105C59.4217 174.099 59.9775 164.175 62.0183 154.317C62.2257 153.39 62.4829 152.289 63.7771 152.091Z" fill="#8FA0BD"/>
<path d="M182.2 207.71C180.906 202.918 182.549 199.45 185.402 196.387C188.314 193.267 191.832 190.95 195.648 189.096C196.983 188.442 197.697 187.755 197.879 186.141C199.655 170.771 201.745 155.434 203.645 140.089C205.346 126.325 199.331 114.853 190.139 104.904C188.447 103.067 186.887 101.105 185.17 99.0775C192.429 98.2746 199.165 100.004 204.773 105.326C209.734 110.028 213.683 115.73 219.15 119.96C221.05 121.433 222.991 122.815 225.14 123.883C231.138 126.846 235.958 125.936 240.545 121.019C246.352 114.779 256.001 108.381 262.405 106.626C258.166 111.849 254.092 116.889 250.691 122.41C248.667 125.696 246.668 129.048 245.739 132.822C245.067 135.553 243.947 136.099 241.201 135.206C234.199 132.929 228.159 134.651 223.464 140.461C223.049 140.966 222.767 141.579 222.211 142.473C223.199 142.142 223.821 141.959 224.426 141.736C230.341 139.592 234.133 141.372 235.435 147.439C236.845 153.986 237.75 160.64 238.894 167.237C239.442 170.382 240.421 173.411 241.756 176.3C243.913 180.96 247.232 184.237 252.375 185.694C258.614 187.465 262.87 191.471 264.67 197.828C264.852 198.482 264.952 199.16 265.018 199.839C265.06 200.228 264.977 200.625 264.902 201.627C262.115 196.288 257.66 194.31 252.707 192.911C250.616 192.324 249.662 192.555 249.115 194.881C248.103 199.226 246.261 203.282 243.573 206.874C237.542 214.952 229.387 218.313 219.416 217.394C214.869 216.98 212.099 214.017 209.933 210.359C208.025 207.131 206.408 203.721 204.309 200.625C201.397 196.338 198.751 195.775 194.03 197.977C189.384 200.137 186.008 203.878 182.2 207.71Z" fill="#E0E6EE"/>
<path d="M304.077 359.942C296.37 369.767 286.249 376.413 274.942 381.272C255.289 389.714 234.607 393.157 213.295 392.917C208.292 392.859 203.29 392.122 198.545 390.326C188.64 386.585 182.111 379.79 181.547 368.997C181.032 359.065 186.383 351.947 194.853 347.196C203.182 342.528 212.308 341.568 221.665 342.04C223.574 342.139 225.473 342.404 227.423 342.602C214.257 350.06 211.345 358.039 217.534 370.479C216.373 363.592 217.41 357.65 222.263 352.841C226.817 348.33 232.591 346.294 238.73 345.193C247.822 343.563 255.173 346.567 260.382 354.149C265.095 361.01 263.842 369.593 257.628 375.122C256.724 375.933 255.77 376.695 254.658 377.622C266.297 377.837 288.879 374.038 304.077 359.942Z" fill="#E0E6EE"/>
<path d="M371.166 128.261C373.066 127.549 374.957 126.837 376.857 126.117C379.669 127.839 380.756 130.835 382.083 133.549C384.497 138.499 386.082 143.73 386.016 148.845C385.51 140.37 386.347 131.249 382.954 122.624C384.589 121.515 386.223 120.406 387.857 119.297C389.566 125.728 391.864 131.993 392.976 138.59C396.294 158.396 398.111 178.178 392.661 197.926C392.52 198.448 392.179 198.911 391.939 199.408C388.679 206.749 385.294 214 380.822 220.729C372.717 232.937 363.102 243.763 351.828 253.124C350.75 254.018 349.696 255.259 347.971 254.887C345.847 252.007 346.237 249.921 348.933 247.165C359.261 236.628 366.827 224.238 372.037 210.441C372.394 209.497 372.526 208.479 372.767 207.494C371.896 206.269 372.369 205.119 372.983 203.993C374.318 201.535 375.463 198.986 376.558 196.412C369.581 212.212 358.49 224.685 344.959 235.172C344.088 235.842 343.209 236.678 341.915 236.388C340.421 233.674 341.135 231.637 343.391 229.527C347.879 225.331 351.712 220.58 353.869 214.521C350.733 216.946 347.672 219.462 344.436 221.747C343.034 222.74 341.392 224.668 339.741 223.741C338.322 222.939 339.152 220.596 339.061 218.941C338.463 208.504 339.807 198.464 346.112 189.732C351.388 182.424 358.556 177.781 367.466 176.142C370.967 175.496 372.941 173.559 373.912 170.381C375.388 165.531 375.646 160.532 375.247 155.524C374.493 146.345 373.24 137.241 371.166 128.261Z" fill="#8FA0BD"/>
<path d="M180.455 112.497C186.129 119.035 190.957 125.169 192.757 133.04C194.134 139.073 190.974 143.75 184.826 145.298C174.714 147.847 165.456 145.976 156.952 140.009C149.444 134.745 143.023 128.223 136.138 122.247C128.472 115.592 120.185 114.053 110.769 117.471C107.948 118.497 105.078 119.044 102.067 118.249C97.6946 117.099 95.5709 113.995 94.4177 109.095C93.6628 114.169 94.0444 118.315 97.0309 121.676C98.6403 123.488 97.7693 123.869 96.3009 124.713C82.4384 132.709 69.6213 129.282 57.2521 121.171C54.3153 119.242 51.7519 116.85 49.1802 113.672C60.2303 115.932 68.7419 111.032 77.436 106.132C90.1702 98.956 103.444 93.1126 118.318 91.7883C133.931 90.3978 146.118 96.3488 155.442 108.574C159.101 113.374 162.436 118.415 166.003 123.281C168.168 126.228 170.499 129.067 173.992 130.573C178.663 132.584 181.55 130.83 181.906 125.764C182.155 122.205 181.633 118.721 180.836 115.261C180.695 114.632 180.654 113.97 180.455 112.497Z" fill="#E0E6EE"/>
<path d="M306.03 321.124C286.178 322.415 266.649 319.618 247.254 316.042C230.579 312.963 213.921 310.96 196.972 313.071C185.897 314.453 174.996 316.845 164.029 318.881C161.789 319.295 159.533 319.609 157.293 319.965C153.684 321.091 153.253 318.211 152.324 316.398C152.821 320.487 152.821 320.487 147.529 321.157C141.605 321.091 135.657 321.29 129.833 319.883C128.058 319.452 126.333 318.856 124.955 317.565C123.421 316.133 123.056 314.428 124.093 312.632C127.983 305.887 132.903 300.474 141.323 299.696C144.584 299.398 147.612 300.978 150.615 301.069C153.327 301.144 155.377 297.593 158.604 297.262C165.232 296.584 171.205 298.586 176.888 301.649C178.547 302.543 179.601 302.816 181.285 301.392C186.511 296.997 192.592 297.246 198.764 298.959C202.174 299.911 205.401 301.343 208.404 303.221C209.69 304.024 210.611 304.223 212.062 303.337C220.433 298.222 228.679 298.81 236.734 304.19C237.547 304.736 238.161 305.82 239.53 304.546C247.328 297.287 257.101 299.216 264.999 305.34C266.857 306.78 267.662 306.723 269.238 305.067C272.54 301.624 276.679 302.385 280.744 303.445C281.184 303.561 281.648 303.677 282.013 303.925C285.606 306.292 289.065 306.632 293.23 304.761C297.693 302.75 301.857 304.951 305.599 307.633C307.192 303.114 309.274 301.699 314.052 302.278C317.354 302.675 320.648 302.725 323.958 302.758C327.517 303.13 328.703 304.653 328.827 308.999C326.679 314.246 322.298 316.82 317.246 318.55C315.645 319.096 314.002 319.51 312.385 319.982C310.867 320.636 310.137 319.444 309.116 318.409C308.096 319.378 307.872 321.29 306.03 321.124Z" fill="#F5F8FA"/>
<path d="M149.735 260.393C159.002 258.009 167.414 260.79 175.66 264.631C176.573 265.061 177.502 265.458 178.423 265.872C179.957 266.319 179.783 267.677 179.982 268.877C181.185 269.241 182.147 267.726 183.375 268.438C201.303 278.18 220.35 283.03 240.833 281.449C249.95 280.746 258.835 278.718 267.504 275.871C269.827 275.109 271.602 274.728 273.054 278.37C273.087 274.852 274.166 273.354 276.754 272.634C281.126 271.418 285.34 269.663 289.687 268.33C295.644 266.501 303.566 271.931 303.906 278.064C304.047 280.605 302.903 282.823 300.804 284.213C294.366 288.501 287.174 290.289 279.467 290.247C277.011 290.231 274.896 287.292 273.303 287.979C271.453 288.774 269.86 290.851 267.695 291.555C261.149 293.69 254.405 294.717 247.503 294.518C246.607 294.493 245.478 294.485 244.873 293.972C241.712 291.348 238.526 292.962 235.183 293.409C225.867 294.667 216.675 293.392 208.047 289.883C205.243 288.741 203.028 287.905 199.909 288.294C194.218 288.997 188.519 288.013 183.077 286.175C179.484 284.958 176.44 283.063 177.087 278.354C166.253 285.24 150.897 281.317 146.218 270.664C145.43 266.576 144.998 262.603 149.735 260.393Z" fill="#F5F8FA"/>
<path d="M120.393 265.244C120.791 247.4 128.075 231.202 144.484 224.39C150.657 221.824 157.053 221.378 163.59 222.098C165.407 222.296 166.651 222.925 167.381 225.094C169.762 232.237 176.548 236.781 184.827 237.004C195.089 237.277 205.31 237.807 215.439 239.719C218.534 240.298 219.728 241.432 219.023 244.569C218.575 246.555 218.467 248.625 218.301 250.661C217.754 257.646 213.672 260.551 206.878 258.408C200.291 256.33 193.961 253.491 187.225 251.795C169.148 247.259 151.411 246.994 134.297 255.569C129.411 258.035 125.08 261.354 120.393 265.244Z" fill="#E0E6EE"/>
<path d="M114.987 322.51C121.375 324.132 127.265 325.729 133.271 326.855C144.214 328.916 155.023 328.295 165.916 326.416C186.606 322.841 207.362 319.753 228.475 320.54C245.557 321.177 262.049 325.067 278.408 329.644C285.551 331.639 292.777 333.046 300.268 333.046C311.592 333.046 320.468 328.345 327.528 319.778C328.233 318.926 328.914 318.048 330.1 316.559C330.299 321.036 328.914 324.264 327.006 327.269C322.236 334.776 314.777 338.178 306.556 340.387C294.212 343.698 282.39 340.967 270.652 337.317C257.279 333.162 243.881 329.205 229.736 328.469C218.703 327.889 207.91 329.346 197.108 331.184C183.08 333.567 169.168 336.713 154.982 338.128C140.033 339.626 126.552 336.812 116.439 324.554C116.016 324.041 115.668 323.47 114.987 322.51Z" fill="#F5F8FA"/>
<path d="M114.888 350.31C123.549 355.805 132.691 360.283 142.43 363.486C151.771 366.565 161.386 368.336 171.192 369.106C172.179 369.181 173.672 368.51 173.747 370.422C174.096 379.56 178.658 386.289 186.423 391.627C157.263 385.486 127.423 367.98 114.888 350.31Z" fill="#8FA0BD"/>
<path d="M310.785 347.431C300.133 358.447 287.979 366.882 272.914 370.532C272.358 370.664 271.802 370.755 271.246 370.879C266.874 371.872 266.775 371.74 267.82 367.519C269.413 361.071 268.218 355.129 264.336 349.749C263.282 348.284 262.096 346.918 260.345 344.725C269.089 348.151 277.294 350.138 285.797 350.618C294.276 351.098 302.597 350.229 310.785 347.431Z" fill="#8FA0BD"/>
<path d="M282.357 175.248C285.625 178.584 288.529 180.976 290.852 184.096C289.433 184.328 288.661 183.326 287.749 182.805C279.777 178.203 271.381 174.843 262.106 174.073C261.326 174.007 260.547 174.081 260.074 173.162C258.722 170.547 256.93 168.138 256.258 165.2C255.312 161.103 256.731 159.249 260.903 159.696C273.604 161.062 284.779 166.152 294.742 173.99C299.645 177.847 304.042 182.201 307.535 187.456C299.77 182.73 291.814 178.493 282.357 175.248Z" fill="#8FA0BD"/>
<path d="M326.409 163.704C317.334 162.743 308.515 160.84 300.974 155.236C298.046 153.06 296.204 150.163 295.491 146.496C295.018 144.038 295.076 143.111 298.203 143.574C307.578 144.965 317.018 145.453 326.393 143.268C330.151 142.391 333.627 140.934 336.821 138.766C330.674 149.542 321.49 155.112 308.739 154.806C314.297 158.771 320.602 160.641 326.409 163.704Z" fill="#F4F7F9"/>
<path d="M107.288 138.228C120.205 147.224 127.115 148.102 148.933 143.16C149.356 147.936 147.332 151.578 143.823 154.467C137.551 159.631 129.919 161.494 122.196 163.074C120.536 163.414 118.844 163.588 117.085 163.621C123.1 160.418 129.645 158.365 135.535 154.417C122.279 155.501 112.821 150.221 107.288 138.228Z" fill="#F4F7F9"/>
<path d="M347.975 254.891C366.873 240.697 380.752 222.546 390.541 201.159C390.848 200.48 390.624 199.313 391.943 199.412C387.024 215.875 377.658 229.829 367.056 243.064C362.003 249.363 356.437 255.198 350.48 261.091C349.07 259.129 348.614 256.969 347.975 254.891Z" fill="#DFE5ED"/>
<path d="M63.786 152.091C60.7166 162.272 61.0318 172.742 61.1977 183.187C61.206 183.568 61.6042 183.94 61.8199 184.321C62.832 190.049 64.0847 195.702 66.4822 201.049C66.8306 201.818 67.403 202.679 66.6232 203.556C61.4466 196.819 59.0823 188.956 57.4065 180.804C55.3159 170.623 56.2451 156.337 59.804 146.405C61.6955 148.061 62.9896 149.882 63.786 152.091Z" fill="#E0E6EE"/>
<path d="M341.891 236.387C357.147 225.387 369.01 211.557 377.041 194.2C377.041 196.973 376.402 198.976 374.146 203.396C373.482 204.703 372.694 205.953 372.752 207.501C370.064 211.797 367.476 216.158 364.672 220.371C358.956 228.979 351.896 236.337 343.501 242.768C342.629 240.534 341.891 238.564 341.891 236.387Z" fill="#DFE5ED"/>
<path d="M247.124 89.2025C242.869 90.7171 238.795 92.5463 235.668 97.0489C236.116 92.0993 237.767 88.6976 240.894 86.1649C242.429 84.9316 242.819 83.1935 243.607 81.6209C243.848 83.3839 244.793 82.8045 245.764 82.2831C248.809 80.6526 252.119 79.7752 255.454 79.0634C256.698 78.7986 258.399 78.1944 259.228 79.5931C260.116 81.0829 258.565 81.9934 257.735 83.0363C256.134 85.0475 253.736 85.5028 251.571 86.496C250.02 87.2078 247.813 87.0422 247.124 89.2025Z" fill="#637298"/>
<path d="M149.735 260.387C146.707 263.176 145.852 266.71 146.201 270.658C145.811 266.445 143.364 267.083 140.485 268.084C130.281 271.618 123.984 278.985 119.894 288.751C120.566 275.939 134.512 262.754 149.735 260.387Z" fill="#8E9FBC"/>
<path d="M328.828 308.995C327.998 306.297 326.912 303.798 323.958 302.755C329.782 297.375 330.487 290.977 327.227 283.346C333.299 290.257 333.789 301.157 328.828 308.995Z" fill="#8E9EBC"/>
<path d="M66.6305 203.553C65.2368 198.471 62.8725 193.679 62.2005 188.365C62.0263 187.016 61.9267 185.675 61.8272 184.326C62.7563 187.629 63.7352 190.923 64.6146 194.242C65.8092 198.753 68.1984 202.759 69.9157 207.046C69.0197 207.667 68.1984 207.427 68.2731 206.392C68.3809 204.935 67.0702 204.538 66.6305 203.553Z" fill="#434E71"/>
<path d="M147.524 321.155C150.752 320.782 153.199 319.781 151.448 315.262C154.004 316.76 154.186 320.228 157.289 319.971C157.48 320.931 158.541 322.239 156.161 321.9C153.307 321.494 150.403 321.387 147.524 321.155Z" fill="#4F5F86"/>
<path d="M306.025 321.119C307.917 320.267 307.685 318.139 308.539 316.699C310.613 316.981 309.9 320.3 312.38 319.969C310.431 321.293 308.713 323.908 306.025 321.119Z" fill="#51628A"/>
<path d="M183.373 268.432C182.004 269.078 180.636 269.724 179.209 270.394C178.744 268.805 179.856 267.108 178.421 265.867C181.349 264.253 182.428 266.214 183.373 268.432Z" fill="#52638A"/>
<path d="M333.652 189.094C334.042 189.499 334.44 189.913 334.83 190.319C334.83 191.279 334.83 192.231 334.83 193.48C333.478 192.024 333.387 190.6 333.652 189.094Z" fill="#747C9E"/>
<path d="M382.957 122.628C384.89 122.827 384.682 124.565 384.981 125.732C387.113 133.984 386.997 142.368 386.068 150.852C385.08 141.813 381.745 133.677 376.859 126.121C378.892 124.962 380.924 123.795 382.957 122.628Z" fill="#00030B"/>
</g>
</svg>
