<svg width="20" height="20" viewBox="0 0 20 20" fill="none" xmlns="http://www.w3.org/2000/svg">
<path d="M0 3.33333C0 1.49238 1.49238 0 3.33333 0L16.6667 0C18.5076 0 20 1.49238 20 3.33333V16.6667C20 18.5076 18.5076 20 16.6667 20H3.33333C1.49238 20 0 18.5076 0 16.6667L0 3.33333Z" fill="#F5265C"/>
<path fill-rule="evenodd" clip-rule="evenodd" d="M14.7236 7.30981C15.1048 7.70945 15.0898 8.34244 14.6902 8.72363L9.28205 13.8819L5.30981 10.0932C4.91016 9.71201 4.89519 9.07902 5.27638 8.67937C5.65756 8.27973 6.29055 8.26476 6.6902 8.64594L9.28205 11.1181L13.3098 7.27638C13.7095 6.89519 14.3424 6.91016 14.7236 7.30981Z" fill="white"/>
</svg>
