<svg width="342" height="47" viewBox="0 0 342 47" fill="none" xmlns="http://www.w3.org/2000/svg">
<path d="M0.418701 8.32901C0.418701 3.8164 4.07689 0.158203 8.58951 0.158203L333.646 0.158203C338.158 0.158203 341.816 3.8164 341.816 8.32901V38.3881C341.816 42.9008 338.158 46.559 333.646 46.559L8.58951 46.559C4.0769 46.559 0.418701 42.9008 0.418701 38.3882L0.418701 8.32901Z" fill="#0061F4"/>
<path d="M16.6521 23.0274C16.6521 18.918 17.7045 15.623 19.8093 13.1424C21.9392 10.6617 24.8959 9.42139 28.6795 9.42139C31.8117 9.42139 34.355 10.2357 36.3094 11.8645C38.2639 13.4681 39.4541 15.6481 39.8801 18.4044L34.8436 18.8554C34.5679 17.3019 33.8663 16.0615 32.7388 15.1344C31.6363 14.1822 30.2832 13.7062 28.6795 13.7062C26.4494 13.7062 24.7581 14.6082 23.6055 16.4123C22.4779 18.1914 21.9141 20.3964 21.9141 23.0274C21.9141 25.7837 22.5405 28.0263 23.7934 29.7552C25.0713 31.4842 26.8128 32.3487 29.0178 32.3487C30.7217 32.3487 32.1123 31.835 33.1898 30.8076C34.2673 29.7553 34.9313 28.4272 35.1818 26.8236L40.2183 27.1618C39.8425 30.1186 38.6898 32.4364 36.7604 34.1152C34.8561 35.794 32.2752 36.6334 29.0178 36.6334C25.1089 36.6334 22.0644 35.4056 19.8845 32.95C17.7296 30.4944 16.6521 27.1869 16.6521 23.0274Z" fill="white"/>
<path d="M45.4877 33.8897C43.6836 32.0354 42.7815 29.5172 42.7815 26.3349C42.7815 23.1527 43.6836 20.647 45.4877 18.8178C47.3168 16.9636 49.785 16.0365 52.892 16.0365C55.9991 16.0365 58.4547 16.9636 60.2588 18.8178C62.088 20.647 63.0026 23.1527 63.0026 26.3349C63.0026 29.5172 62.088 32.0354 60.2588 33.8897C58.4547 35.7188 55.9991 36.6334 52.892 36.6334C49.785 36.6334 47.3168 35.7188 45.4877 33.8897ZM49.1711 21.7119C48.244 22.8896 47.7804 24.4306 47.7804 26.3349C47.7804 28.2393 48.244 29.7803 49.1711 30.958C50.0982 32.1357 51.3385 32.7245 52.892 32.7245C54.4706 32.7245 55.7235 32.1357 56.6506 30.958C57.5777 29.7803 58.0413 28.2393 58.0413 26.3349C58.0413 24.4306 57.5777 22.8896 56.6506 21.7119C55.7235 20.5342 54.4706 19.9454 52.892 19.9454C51.3385 19.9454 50.0982 20.5342 49.1711 21.7119Z" fill="white"/>
<path d="M66.6983 36.1824V16.4875H71.3965V19.9454C72.6995 17.3394 74.9922 16.0365 78.2747 16.0365C80.5299 16.0365 82.2212 16.688 83.3488 17.9909C84.5014 19.2688 85.0777 21.1481 85.0777 23.6288V36.1824H80.0788V25.1698C80.0788 23.516 79.7782 22.2757 79.1768 21.4488C78.6005 20.5969 77.6483 20.1709 76.3203 20.1709C74.8419 20.1709 73.7018 20.6846 72.9 21.7119C72.1232 22.7142 71.7348 24.0798 71.7348 25.8088V36.1824H66.6983Z" fill="white"/>
<path d="M102.249 16.4875H107.586L101.121 36.1824H93.4911L87.1015 16.4875H92.5138L97.3624 33.2507L102.249 16.4875Z" fill="white"/>
<path d="M108.813 26.3349C108.813 22.9272 109.728 20.3588 111.557 18.6299C113.411 16.9009 115.88 16.0365 118.962 16.0365C125.376 16.0365 128.583 19.77 128.583 27.237V27.8008H113.887C114.063 29.5548 114.614 30.8703 115.541 31.7473C116.493 32.6243 117.721 33.0628 119.225 33.0628C121.279 33.0628 122.708 32.2108 123.509 30.507L128.32 30.8076C127.819 32.6619 126.779 34.1027 125.201 35.13C123.622 36.1323 121.63 36.6334 119.225 36.6334C116.017 36.6334 113.474 35.7815 111.595 34.0776C109.741 32.3487 108.813 29.7678 108.813 26.3349ZM113.887 24.606H123.622C123.522 23.0274 123.058 21.7996 122.231 20.9226C121.43 20.0456 120.34 19.6071 118.962 19.6071C117.583 19.6071 116.443 20.0331 115.541 20.885C114.664 21.7119 114.113 22.9522 113.887 24.606Z" fill="white"/>
<path d="M142.666 16.0741C143.443 16.0741 144.195 16.1743 144.921 16.3747V20.7723C143.643 20.5969 142.654 20.5092 141.952 20.5092C140.348 20.5092 139.158 20.9978 138.381 21.975C137.63 22.9522 137.254 24.5434 137.254 26.7484V36.1824H132.18L132.217 16.4875H136.878V20.2837C138.031 17.4773 139.96 16.0741 142.666 16.0741Z" fill="white"/>
<path d="M160.507 20.2461H155.846V29.6049C155.846 30.6573 155.996 31.384 156.297 31.7849C156.623 32.1607 157.262 32.3487 158.214 32.3487C158.916 32.3487 159.68 32.286 160.507 32.1607V36.22C159.329 36.3954 158.239 36.4831 157.237 36.4831C155.007 36.4831 153.378 36.0195 152.351 35.0924C151.323 34.1653 150.81 32.5867 150.81 30.3566V20.2461H146.713V16.5627H149.682C150.183 16.5627 150.534 16.4624 150.734 16.262C150.96 16.0615 151.073 15.7358 151.073 15.2848V11.9772H155.846V16.4875H160.507V20.2461Z" fill="white"/>
<path d="M193.933 9.87241H203.067L203.029 36.1824H198.03V12.9544L191.866 36.1824H184.725L178.561 12.9544V36.1824H173.524V9.87241H182.733L188.333 33.0628L193.933 9.87241Z" fill="white"/>
<path d="M210.072 33.8897C208.268 32.0354 207.366 29.5172 207.366 26.3349C207.366 23.1527 208.268 20.647 210.072 18.8178C211.901 16.9636 214.369 16.0365 217.476 16.0365C220.583 16.0365 223.039 16.9636 224.843 18.8178C226.672 20.647 227.587 23.1527 227.587 26.3349C227.587 29.5172 226.672 32.0354 224.843 33.8897C223.039 35.7188 220.583 36.6334 217.476 36.6334C214.369 36.6334 211.901 35.7188 210.072 33.8897ZM213.755 21.7119C212.828 22.8896 212.365 24.4306 212.365 26.3349C212.365 28.2393 212.828 29.7803 213.755 30.958C214.682 32.1357 215.923 32.7245 217.476 32.7245C219.055 32.7245 220.308 32.1357 221.235 30.958C222.162 29.7803 222.626 28.2393 222.626 26.3349C222.626 24.4306 222.162 22.8896 221.235 21.7119C220.308 20.5342 219.055 19.9454 217.476 19.9454C215.923 19.9454 214.682 20.5342 213.755 21.7119Z" fill="white"/>
<path d="M231.283 36.1824V16.4875H235.981V19.9454C237.284 17.3394 239.576 16.0365 242.859 16.0365C245.114 16.0365 246.805 16.688 247.933 17.9909C249.086 19.2688 249.662 21.1481 249.662 23.6288V36.1824H244.663V25.1698C244.663 23.516 244.362 22.2757 243.761 21.4488C243.185 20.5969 242.233 20.1709 240.905 20.1709C239.426 20.1709 238.286 20.6846 237.484 21.7119C236.707 22.7142 236.319 24.0798 236.319 25.8088V36.1824H231.283Z" fill="white"/>
<path d="M252.572 30.2063L257.195 30.0559C257.446 32.0605 258.974 33.0628 261.78 33.0628C264.411 33.0628 265.727 32.3737 265.727 30.9956C265.727 30.4694 265.476 30.0309 264.975 29.6801C264.474 29.3293 263.622 28.9785 262.419 28.6277L258.097 27.4625C254.84 26.5855 253.211 24.6812 253.211 21.7495C253.211 19.795 253.963 18.3543 255.466 17.4271C256.969 16.5 258.886 16.0365 261.217 16.0365C263.647 16.0365 265.689 16.5501 267.343 17.5775C268.997 18.5798 269.937 20.1333 270.162 22.2381L265.577 22.4636C265.426 21.5365 264.963 20.8349 264.186 20.3588C263.409 19.8577 262.419 19.6071 261.217 19.6071C260.239 19.5821 259.488 19.7449 258.962 20.0957C258.435 20.4465 258.172 20.9477 258.172 21.5992C258.172 22.6014 259.087 23.3532 260.916 23.8543L265.276 25.0195C268.859 25.9466 270.651 27.8509 270.651 30.7325C270.651 32.6869 269.824 34.1653 268.17 35.1676C266.541 36.1448 264.361 36.6334 261.63 36.6334C255.942 36.6334 252.923 34.491 252.572 30.2063Z" fill="white"/>
<path d="M286 20.2461H281.34V29.6049C281.34 30.6573 281.49 31.384 281.791 31.7849C282.116 32.1607 282.755 32.3487 283.708 32.3487C284.409 32.3487 285.173 32.286 286 32.1607V36.22C284.823 36.3954 283.733 36.4831 282.73 36.4831C280.5 36.4831 278.872 36.0195 277.844 35.0924C276.817 34.1653 276.303 32.5867 276.303 30.3566V20.2461H272.206V16.5627H275.176C275.677 16.5627 276.028 16.4624 276.228 16.262C276.454 16.0615 276.566 15.7358 276.566 15.2848V11.9772H281.34V16.4875H286V20.2461Z" fill="white"/>
<path d="M288.336 26.3349C288.336 22.9272 289.251 20.3588 291.08 18.6299C292.934 16.9009 295.403 16.0365 298.485 16.0365C304.899 16.0365 308.107 19.77 308.107 27.237V27.8008H293.411C293.586 29.5548 294.137 30.8703 295.064 31.7473C296.017 32.6243 297.244 33.0628 298.748 33.0628C300.802 33.0628 302.231 32.2108 303.033 30.507L307.843 30.8076C307.342 32.6619 306.302 34.1027 304.724 35.13C303.145 36.1323 301.153 36.6334 298.748 36.6334C295.54 36.6334 292.997 35.7815 291.118 34.0776C289.264 32.3487 288.336 29.7678 288.336 26.3349ZM293.411 24.606H303.145C303.045 23.0274 302.581 21.7996 301.755 20.9226C300.953 20.0456 299.863 19.6071 298.485 19.6071C297.106 19.6071 295.966 20.0331 295.064 20.885C294.187 21.7119 293.636 22.9522 293.411 24.606Z" fill="white"/>
<path d="M322.189 16.0741C322.966 16.0741 323.718 16.1743 324.444 16.3747V20.7723C323.166 20.5969 322.177 20.5092 321.475 20.5092C319.871 20.5092 318.681 20.9978 317.904 21.975C317.153 22.9522 316.777 24.5434 316.777 26.7484V36.1824H311.703L311.74 16.4875H316.401V20.2837C317.554 17.4773 319.483 16.0741 322.189 16.0741Z" fill="white"/>
</svg>
