<svg width="440" height="400" viewBox="0 0 440 400" fill="none" xmlns="http://www.w3.org/2000/svg">
<rect x="50" width="340" height="346" rx="20" fill="white"/>
<path d="M167.061 39.8H168.805V51H166.629V42.184L164.053 43.832V41.704L167.061 39.8ZM180.635 42.616H182.907L180.139 51.672C179.851 52.7067 179.457 53.416 178.955 53.8C178.454 54.1947 177.713 54.392 176.731 54.392C176.358 54.392 175.974 54.3707 175.579 54.328V52.696C176.049 52.7173 176.385 52.728 176.587 52.728C177.046 52.728 177.393 52.6373 177.627 52.456C177.862 52.2853 178.054 51.9387 178.203 51.416L178.315 51H177.051L174.123 42.616H176.427L178.763 50.12L180.635 42.616ZM184.124 54.2V42.616H186.124V44.152C186.722 43 187.666 42.424 188.956 42.424C190.012 42.424 190.871 42.8187 191.532 43.608C192.204 44.3867 192.54 45.4533 192.54 46.808C192.54 48.1627 192.204 49.2347 191.532 50.024C190.871 50.8027 190.018 51.192 188.972 51.192C187.778 51.192 186.876 50.6853 186.268 49.672V54.2H184.124ZM186.748 44.84C186.364 45.3413 186.172 45.9973 186.172 46.808C186.172 47.6187 186.364 48.2747 186.748 48.776C187.132 49.2773 187.65 49.528 188.3 49.528C188.951 49.528 189.468 49.2773 189.852 48.776C190.236 48.2747 190.428 47.6187 190.428 46.808C190.428 45.9973 190.236 45.3413 189.852 44.84C189.468 44.3387 188.951 44.088 188.3 44.088C187.65 44.088 187.132 44.3387 186.748 44.84ZM194.861 50.024C194.093 49.2347 193.709 48.1627 193.709 46.808C193.709 45.4533 194.093 44.3867 194.861 43.608C195.639 42.8187 196.69 42.424 198.013 42.424C199.335 42.424 200.381 42.8187 201.149 43.608C201.927 44.3867 202.317 45.4533 202.317 46.808C202.317 48.1627 201.927 49.2347 201.149 50.024C200.381 50.8027 199.335 51.192 198.013 51.192C196.69 51.192 195.639 50.8027 194.861 50.024ZM196.429 44.84C196.034 45.3413 195.837 45.9973 195.837 46.808C195.837 47.6187 196.034 48.2747 196.429 48.776C196.823 49.2773 197.351 49.528 198.013 49.528C198.685 49.528 199.218 49.2773 199.613 48.776C200.007 48.2747 200.205 47.6187 200.205 46.808C200.205 45.9973 200.007 45.3413 199.613 44.84C199.218 44.3387 198.685 44.088 198.013 44.088C197.351 44.088 196.823 44.3387 196.429 44.84ZM212.018 51H209.378L206.802 47.608H206.034V51H203.89V42.616H206.034V45.944H206.818L209.25 42.616H211.778L208.338 46.6L212.018 51ZM213.14 53.048V48.584H215.508V50.104L214.1 53.048H213.14ZM227.945 46.776H229.641V48.536H227.945V51H225.769V48.536H220.297V46.92L224.425 39.8H227.945V46.776ZM222.409 46.776H225.769V40.984L222.409 46.776ZM233.703 44.376V42.616H241.447V44.376H238.663V51H236.519V44.376H233.703ZM242.131 46.808C242.131 45.3573 242.52 44.264 243.299 43.528C244.088 42.792 245.139 42.424 246.451 42.424C249.181 42.424 250.547 44.0133 250.547 47.192V47.432H244.291C244.365 48.1787 244.6 48.7387 244.995 49.112C245.4 49.4853 245.923 49.672 246.563 49.672C247.437 49.672 248.045 49.3093 248.387 48.584L250.435 48.712C250.221 49.5013 249.779 50.1147 249.107 50.552C248.435 50.9787 247.587 51.192 246.563 51.192C245.197 51.192 244.115 50.8293 243.315 50.104C242.525 49.368 242.131 48.2693 242.131 46.808ZM244.291 46.072H248.435C248.392 45.4 248.195 44.8773 247.843 44.504C247.501 44.1307 247.037 43.944 246.451 43.944C245.864 43.944 245.379 44.1253 244.995 44.488C244.621 44.84 244.387 45.368 244.291 46.072ZM259.47 42.616H262.99V51H260.942V44.136L258.83 51H256.254L254.142 44.136V51H252.078V42.616H255.63L257.566 49.72L259.47 42.616ZM268.745 45.528C271.091 45.528 272.265 46.44 272.265 48.264C272.265 50.088 271.091 51 268.745 51H265.929H264.953V42.616H267.097V45.528H268.745ZM273.401 42.616H275.545V51H273.401V42.616ZM268.601 49.368C269.614 49.368 270.121 48.9947 270.121 48.248C270.121 47.4907 269.614 47.112 268.601 47.112H267.097V49.368H268.601Z" fill="#252D4D"/>
<g opacity="0.1">
<mask id="mask0_491_4" style="mask-type:alpha" maskUnits="userSpaceOnUse" x="198" y="0" width="192" height="97">
<rect x="198" width="192" height="97" fill="white"/>
</mask>
<g mask="url(#mask0_491_4)">
<path d="M220.7 97.4L221.5 96.8L221.5 96.8L220.7 97.4ZM220.7 17.6L219.9 17L219.9 17L220.7 17.6ZM282.5 17.6L283.3 17L283.3 17L282.5 17.6ZM282.5 97.4L281.7 96.8L281.7 96.8L282.5 97.4ZM236 29.45L236.863 29.9547L236.863 29.9547L236 29.45ZM236 85.55L235.137 86.0547L235.137 86.0547L236 85.55ZM267.2 85.55L266.342 85.0355L266.337 85.0453L267.2 85.55ZM267.2 29.45L266.337 29.9547L266.343 29.9645L267.2 29.45ZM221.5 96.8C214.474 87.4321 210.9 74.3712 210.9 57.5H208.9C208.9 74.6288 212.526 88.1679 219.9 98L221.5 96.8ZM210.9 57.5C210.9 40.6288 214.474 27.5679 221.5 18.2L219.9 17C212.526 26.832 208.9 40.3712 208.9 57.5H210.9ZM221.5 18.2C228.487 8.88375 238.473 4.2 251.6 4.2V2.2C237.927 2.2 227.313 7.11624 219.9 17L221.5 18.2ZM251.6 4.2C264.727 4.2 274.713 8.88375 281.7 18.2L283.3 17C275.887 7.11624 265.273 2.2 251.6 2.2V4.2ZM281.7 18.2C288.726 27.5679 292.3 40.6288 292.3 57.5H294.3C294.3 40.3712 290.674 26.832 283.3 17L281.7 18.2ZM292.3 57.5C292.3 74.3712 288.726 87.4321 281.7 96.8L283.3 98C290.674 88.1679 294.3 74.6288 294.3 57.5H292.3ZM281.7 96.8C274.713 106.116 264.727 110.8 251.6 110.8V112.8C265.273 112.8 275.887 107.884 283.3 98L281.7 96.8ZM251.6 110.8C238.473 110.8 228.487 106.116 221.5 96.8L219.9 98C227.313 107.884 237.927 112.8 251.6 112.8V110.8ZM235.137 28.9453C231.208 35.6657 229.3 45.2215 229.3 57.5H231.3C231.3 45.3785 233.192 36.2343 236.863 29.9547L235.137 28.9453ZM229.3 57.5C229.3 69.7785 231.208 79.3343 235.137 86.0547L236.863 85.0453C233.192 78.7657 231.3 69.6215 231.3 57.5H229.3ZM235.137 86.0547C239.086 92.8098 244.589 96.3 251.6 96.3V94.3C245.411 94.3 240.514 91.2902 236.863 85.0453L235.137 86.0547ZM251.6 96.3C258.611 96.3 264.114 92.8098 268.063 86.0547L266.337 85.0453C262.686 91.2902 257.789 94.3 251.6 94.3V96.3ZM268.057 86.0645C272.091 79.3414 274.05 69.7815 274.05 57.5H272.05C272.05 69.6185 270.109 78.7586 266.343 85.0355L268.057 86.0645ZM274.05 57.5C274.05 45.2185 272.091 35.6586 268.057 28.9355L266.343 29.9645C270.109 36.2414 272.05 45.3815 272.05 57.5H274.05ZM268.063 28.9453C264.114 22.1902 258.611 18.7 251.6 18.7V20.7C257.789 20.7 262.686 23.7098 266.337 29.9547L268.063 28.9453ZM251.6 18.7C244.589 18.7 239.086 22.1902 235.137 28.9453L236.863 29.9547C240.514 23.7098 245.411 20.7 251.6 20.7V18.7ZM330.112 93.5L329.43 92.7688L327.574 94.5H330.112V93.5ZM380.062 93.5H381.062V92.5H380.062V93.5ZM380.062 110V111H381.062V110H380.062ZM302.362 110H301.362V111H302.362V110ZM302.362 94.85L301.678 94.1202L301.362 94.4165V94.85H302.362ZM335.512 63.8L334.832 63.0666L334.828 63.0701L335.512 63.8ZM344.212 55.55L343.525 54.823L343.515 54.8328L343.505 54.8429L344.212 55.55ZM350.512 48.8L349.755 48.1471L349.753 48.1492L350.512 48.8ZM355.612 41L356.543 41.3644L356.546 41.3578L356.548 41.3511L355.612 41ZM352.912 23.45L352.219 24.1708L352.233 24.1844L352.248 24.1974L352.912 23.45ZM330.112 25.25L329.356 24.5958L329.354 24.5975L330.112 25.25ZM324.562 42.05L324.485 43.0471L325.48 43.1236L325.559 42.1287L324.562 42.05ZM305.062 40.55L304.065 40.4782L303.993 41.4707L304.985 41.5471L305.062 40.55ZM316.612 12.5L315.938 11.761L315.938 11.761L316.612 12.5ZM367.462 11.15L366.836 11.9297L366.843 11.9355L367.462 11.15ZM372.262 50.9L371.416 50.3671L371.409 50.3785L372.262 50.9ZM354.712 70.55L354.036 69.8128L354.03 69.8188L354.712 70.55ZM330.112 94.5H380.062V92.5H330.112V94.5ZM379.062 93.5V110H381.062V93.5H379.062ZM380.062 109H302.362V111H380.062V109ZM303.362 110V94.85H301.362V110H303.362ZM303.046 95.5798L336.196 64.5298L334.828 63.0701L301.678 94.1202L303.046 95.5798ZM336.192 64.5334C340.292 60.7331 343.205 57.9718 344.919 56.2571L343.505 54.8429C341.82 56.5282 338.932 59.2669 334.832 63.0666L336.192 64.5334ZM344.899 56.277C346.733 54.5443 348.858 52.2659 351.271 49.4508L349.753 48.1492C347.366 50.9341 345.291 53.1557 343.525 54.823L344.899 56.277ZM351.27 49.4529C353.807 46.5091 355.586 43.8111 356.543 41.3644L354.681 40.6356C353.838 42.7889 352.217 45.2909 349.755 48.1471L351.27 49.4529ZM356.548 41.3511C357.489 38.8417 357.962 36.273 357.962 33.65H355.962C355.962 36.027 355.535 38.3583 354.676 40.6489L356.548 41.3511ZM357.962 33.65C357.962 29.032 356.536 25.3331 353.576 22.7026L352.248 24.1974C354.688 26.3669 355.962 29.468 355.962 33.65H357.962ZM353.605 22.7292C350.78 20.0123 347.01 18.7 342.412 18.7V20.7C346.614 20.7 349.845 21.8877 352.219 24.1708L353.605 22.7292ZM342.412 18.7C337.129 18.7 332.75 20.6707 329.356 24.5958L330.868 25.9042C333.874 22.4293 337.695 20.7 342.412 20.7V18.7ZM329.354 24.5975C326.054 28.4296 324.173 34.2776 323.565 41.9713L325.559 42.1287C326.152 34.6224 327.97 29.2704 330.87 25.9025L329.354 24.5975ZM324.639 41.0529L305.139 39.5529L304.985 41.5471L324.485 43.0471L324.639 41.0529ZM306.06 40.6218C306.948 28.2833 310.735 19.2117 317.286 13.239L315.938 11.761C308.889 18.1883 304.976 27.8167 304.065 40.4782L306.06 40.6218ZM317.286 13.239C323.877 7.22901 332.227 4.2 342.412 4.2V2.2C331.798 2.2 322.947 5.37099 315.938 11.761L317.286 13.239ZM342.412 4.2C352.33 4.2 360.446 6.79849 366.836 11.9297L368.088 10.3703C361.278 4.9015 352.694 2.2 342.412 2.2V4.2ZM366.843 11.9355C373.161 16.913 376.362 24.0991 376.362 33.65H378.362C378.362 23.6009 374.963 15.787 368.081 10.3645L366.843 11.9355ZM376.362 33.65C376.362 39.5525 374.72 45.119 371.416 50.3672L373.108 51.4328C376.604 45.881 378.362 39.9475 378.362 33.65H376.362ZM371.409 50.3785C368.182 55.659 362.413 62.1342 354.036 69.8128L355.388 71.2872C363.811 63.5658 369.742 56.941 373.115 51.4214L371.409 50.3785ZM354.03 69.8188L329.43 92.7688L330.794 94.2312L355.394 71.2812L354.03 69.8188Z" fill="#0061F4"/>
</g>
</g>
<g filter="url(#filter0_d_491_4)">
<rect x="60" y="90" width="320" height="246" rx="20" fill="white"/>
</g>
<path d="M181.157 149L180.341 146.392H175.717L174.901 149H172.693L176.341 137.8H179.781L183.445 149H181.157ZM178.037 139.016L176.261 144.68H179.797L178.037 139.016ZM184.632 152.2V140.616H186.632V142.152C187.23 141 188.174 140.424 189.464 140.424C190.52 140.424 191.379 140.819 192.04 141.608C192.712 142.387 193.048 143.453 193.048 144.808C193.048 146.163 192.712 147.235 192.04 148.024C191.379 148.803 190.526 149.192 189.48 149.192C188.286 149.192 187.384 148.685 186.776 147.672V152.2H184.632ZM187.256 142.84C186.872 143.341 186.68 143.997 186.68 144.808C186.68 145.619 186.872 146.275 187.256 146.776C187.64 147.277 188.158 147.528 188.808 147.528C189.459 147.528 189.976 147.277 190.36 146.776C190.744 146.275 190.936 145.619 190.936 144.808C190.936 143.997 190.744 143.341 190.36 142.84C189.976 142.339 189.459 142.088 188.808 142.088C188.158 142.088 187.64 142.339 187.256 142.84ZM193.726 142.376V140.616H201.47V142.376H198.686V149H196.542V142.376H193.726ZM202.154 144.808C202.154 143.357 202.543 142.264 203.322 141.528C204.111 140.792 205.162 140.424 206.474 140.424C209.205 140.424 210.57 142.013 210.57 145.192V145.432H204.314C204.389 146.179 204.623 146.739 205.018 147.112C205.423 147.485 205.946 147.672 206.586 147.672C207.461 147.672 208.069 147.309 208.41 146.584L210.458 146.712C210.245 147.501 209.802 148.115 209.13 148.552C208.458 148.979 207.61 149.192 206.586 149.192C205.221 149.192 204.138 148.829 203.338 148.104C202.549 147.368 202.154 146.269 202.154 144.808ZM204.314 144.072H208.458C208.415 143.4 208.218 142.877 207.866 142.504C207.525 142.131 207.061 141.944 206.474 141.944C205.887 141.944 205.402 142.125 205.018 142.488C204.645 142.84 204.41 143.368 204.314 144.072ZM218.597 140.424C220.058 140.424 221.178 140.813 221.957 141.592C222.736 142.371 223.125 143.443 223.125 144.808C223.125 146.173 222.736 147.245 221.957 148.024C221.178 148.803 220.058 149.192 218.597 149.192H218.485V152.2H216.405V149.192H216.293C214.832 149.192 213.706 148.803 212.917 148.024C212.138 147.235 211.749 146.163 211.749 144.808C211.749 143.453 212.138 142.387 212.917 141.608C213.706 140.819 214.832 140.424 216.293 140.424H216.405V137.224H218.485V140.424H218.597ZM216.357 147.528H216.405V142.088H216.357C215.578 142.088 214.965 142.333 214.517 142.824C214.069 143.304 213.845 143.965 213.845 144.808C213.845 145.651 214.069 146.317 214.517 146.808C214.965 147.288 215.578 147.528 216.357 147.528ZM218.549 147.528C219.328 147.528 219.936 147.288 220.373 146.808C220.81 146.317 221.029 145.651 221.029 144.808C221.029 143.965 220.81 143.304 220.373 142.824C219.936 142.333 219.328 142.088 218.549 142.088H218.485V147.528H218.549ZM224.249 146.712C224.249 145.165 225.422 144.28 227.769 144.056L229.961 143.832V143.416C229.961 142.968 229.827 142.611 229.561 142.344C229.294 142.077 228.889 141.944 228.345 141.944C227.865 141.944 227.47 142.051 227.161 142.264C226.862 142.477 226.697 142.792 226.665 143.208H224.713C224.745 142.237 225.097 141.533 225.769 141.096C226.441 140.648 227.299 140.424 228.345 140.424C229.55 140.424 230.478 140.712 231.129 141.288C231.779 141.864 232.105 142.723 232.105 143.864V149H230.105V147.48C229.518 148.621 228.499 149.192 227.049 149.192C226.142 149.192 225.449 148.963 224.969 148.504C224.489 148.045 224.249 147.448 224.249 146.712ZM226.377 146.6C226.377 146.931 226.489 147.197 226.713 147.4C226.947 147.603 227.289 147.704 227.737 147.704C228.398 147.704 228.931 147.496 229.337 147.08C229.753 146.653 229.961 146.131 229.961 145.512V145.144L228.041 145.336C226.931 145.443 226.377 145.864 226.377 146.6ZM242.12 149H239.48L236.904 145.608H236.136V149H233.992V140.616H236.136V143.944H236.92L239.352 140.616H241.88L238.44 144.6L242.12 149ZM242.523 142.376V140.616H250.267V142.376H247.483V149H245.339V142.376H242.523ZM255.377 143.528C257.724 143.528 258.897 144.44 258.897 146.264C258.897 148.088 257.724 149 255.377 149H252.561H251.585V140.616H253.729V143.528H255.377ZM260.033 140.616H262.177V149H260.033V140.616ZM255.233 147.368C256.247 147.368 256.753 146.995 256.753 146.248C256.753 145.491 256.247 145.112 255.233 145.112H253.729V147.368H255.233ZM264.164 143.224V140.808H266.532V143.224H264.164ZM264.164 149V146.584H266.532V149H264.164Z" fill="#252D4D"/>
<path d="M130.05 195V183.8H131.522V193.8H137.234V183.8H138.706V193.8H139.682V197.624H138.322V195H130.05ZM140.471 190.808C140.471 189.379 140.828 188.291 141.543 187.544C142.268 186.797 143.228 186.424 144.423 186.424C145.649 186.424 146.583 186.803 147.223 187.56C147.873 188.317 148.199 189.469 148.199 191.016V191.208H141.879C141.932 192.168 142.193 192.904 142.663 193.416C143.143 193.917 143.767 194.168 144.535 194.168C145.623 194.168 146.364 193.688 146.759 192.728L148.087 192.808C147.863 193.555 147.447 194.141 146.839 194.568C146.231 194.984 145.463 195.192 144.535 195.192C143.287 195.192 142.295 194.824 141.559 194.088C140.833 193.341 140.471 192.248 140.471 190.808ZM141.895 190.28H146.807C146.796 189.405 146.572 188.717 146.135 188.216C145.708 187.704 145.137 187.448 144.423 187.448C143.719 187.448 143.137 187.693 142.679 188.184C142.22 188.664 141.959 189.363 141.895 190.28ZM150.595 186.616H156.483V195H155.075V187.768H151.843C151.811 188.227 151.769 188.861 151.715 189.672C151.673 190.461 151.635 191.032 151.603 191.384C151.582 191.736 151.539 192.173 151.475 192.696C151.411 193.219 151.337 193.587 151.251 193.8C151.166 194.013 151.049 194.248 150.899 194.504C150.75 194.749 150.569 194.915 150.355 195C150.142 195.075 149.886 195.112 149.587 195.112C149.427 195.112 149.198 195.091 148.899 195.048V193.928C149.006 193.939 149.134 193.944 149.283 193.944C149.518 193.944 149.705 193.843 149.843 193.64C149.982 193.437 150.094 193.037 150.179 192.44C150.275 191.832 150.339 191.299 150.371 190.84C150.403 190.381 150.446 189.587 150.499 188.456C150.542 187.667 150.574 187.053 150.595 186.616ZM162.317 189.832C164.44 189.832 165.501 190.691 165.501 192.408C165.501 194.136 164.44 195 162.317 195H159.357H158.685V186.616H160.093V189.832H162.317ZM162.205 193.928C163.474 193.928 164.109 193.416 164.109 192.392C164.109 191.389 163.474 190.888 162.205 190.888H160.093V193.928H162.205ZM167.105 196.84V193.16H168.721V194.28L167.745 196.84H167.105ZM182.365 186.616H184.701V195H183.341V187.592L180.557 195H178.797L176.029 187.592V195H174.669V186.616H177.021L179.693 194.232L182.365 186.616ZM192.168 186.616H194.264V195H192.92V187.624L189.016 195H186.904V186.616H188.264V193.992L192.168 186.616ZM195.986 190.808C195.986 189.411 196.333 188.333 197.026 187.576C197.719 186.808 198.658 186.424 199.842 186.424C200.802 186.424 201.607 186.68 202.258 187.192C202.919 187.704 203.314 188.435 203.442 189.384L202.098 189.512C201.991 188.861 201.73 188.371 201.314 188.04C200.909 187.699 200.418 187.528 199.842 187.528C199.095 187.528 198.498 187.821 198.05 188.408C197.602 188.984 197.378 189.784 197.378 190.808C197.378 191.832 197.602 192.637 198.05 193.224C198.509 193.8 199.117 194.088 199.874 194.088C200.471 194.088 200.973 193.912 201.378 193.56C201.794 193.197 202.061 192.685 202.178 192.024L203.522 192.136C203.394 193.107 202.999 193.859 202.338 194.392C201.677 194.925 200.855 195.192 199.874 195.192C198.669 195.192 197.719 194.813 197.026 194.056C196.333 193.299 195.986 192.216 195.986 190.808ZM204.658 190.808C204.658 189.411 205.005 188.333 205.698 187.576C206.391 186.808 207.33 186.424 208.514 186.424C209.474 186.424 210.279 186.68 210.93 187.192C211.591 187.704 211.986 188.435 212.114 189.384L210.77 189.512C210.663 188.861 210.402 188.371 209.986 188.04C209.581 187.699 209.09 187.528 208.514 187.528C207.767 187.528 207.17 187.821 206.722 188.408C206.274 188.984 206.05 189.784 206.05 190.808C206.05 191.832 206.274 192.637 206.722 193.224C207.181 193.8 207.789 194.088 208.546 194.088C209.143 194.088 209.645 193.912 210.05 193.56C210.466 193.197 210.733 192.685 210.85 192.024L212.194 192.136C212.066 193.107 211.671 193.859 211.01 194.392C210.349 194.925 209.527 195.192 208.546 195.192C207.341 195.192 206.391 194.813 205.698 194.056C205.005 193.299 204.658 192.216 204.658 190.808ZM219.074 186.616H221.17V195H219.826V187.624L215.922 195H213.81V186.616H215.17V193.992L219.074 186.616ZM226.124 186.616H229.9V195H228.476V191.544H226.652L224.428 195H222.748L225.26 191.48C224.546 191.363 223.996 191.101 223.612 190.696C223.228 190.28 223.036 189.741 223.036 189.08C223.036 188.291 223.303 187.683 223.836 187.256C224.38 186.829 225.143 186.616 226.124 186.616ZM228.476 190.616V187.688H226.3C225.714 187.688 225.255 187.821 224.924 188.088C224.604 188.344 224.444 188.701 224.444 189.16C224.444 189.608 224.604 189.965 224.924 190.232C225.255 190.488 225.714 190.616 226.3 190.616H228.476ZM241.199 186.616H243.295V195H241.951V187.624L238.047 195H235.935V186.616H237.295V193.992L241.199 186.616ZM249.326 195V186.616H256.366V195H254.974V187.768H250.734V195H249.326ZM259.424 186.616H265.312V195H263.904V187.768H260.672C260.64 188.227 260.597 188.861 260.544 189.672C260.501 190.461 260.464 191.032 260.432 191.384C260.41 191.736 260.368 192.173 260.304 192.696C260.24 193.219 260.165 193.587 260.08 193.8C259.994 194.013 259.877 194.248 259.728 194.504C259.578 194.749 259.397 194.915 259.184 195C258.97 195.075 258.714 195.112 258.416 195.112C258.256 195.112 258.026 195.091 257.728 195.048V193.928C257.834 193.939 257.962 193.944 258.112 193.944C258.346 193.944 258.533 193.843 258.672 193.64C258.81 193.437 258.922 193.037 259.008 192.44C259.104 191.832 259.168 191.299 259.2 190.84C259.232 190.381 259.274 189.587 259.328 188.456C259.37 187.667 259.402 187.053 259.424 186.616ZM267.065 192.808C267.065 191.304 268.164 190.445 270.361 190.232L272.857 189.992V189.192C272.857 188.669 272.686 188.248 272.345 187.928C272.014 187.597 271.524 187.437 270.873 187.448C270.276 187.448 269.785 187.587 269.401 187.864C269.017 188.131 268.809 188.536 268.777 189.08H267.481C267.513 188.173 267.838 187.507 268.457 187.08C269.076 186.643 269.881 186.424 270.873 186.424C271.972 186.424 272.809 186.685 273.385 187.208C273.961 187.731 274.249 188.483 274.249 189.464V195H272.969V193.272C272.702 193.88 272.297 194.355 271.753 194.696C271.209 195.027 270.548 195.192 269.769 195.192C268.873 195.192 268.196 194.973 267.737 194.536C267.289 194.088 267.065 193.512 267.065 192.808ZM268.457 192.76C268.457 193.176 268.601 193.517 268.889 193.784C269.177 194.051 269.609 194.184 270.185 194.184C271.006 194.184 271.657 193.928 272.137 193.416C272.617 192.893 272.857 192.221 272.857 191.4V190.888L270.521 191.128C269.145 191.256 268.457 191.8 268.457 192.76ZM276.372 195V186.616H277.78V190.152H282.116V186.616H283.508V195H282.116V191.304H277.78V195H276.372ZM289.544 198.2V186.616H290.84V188.408C291.096 187.779 291.48 187.293 291.992 186.952C292.515 186.6 293.112 186.424 293.784 186.424C294.83 186.424 295.672 186.813 296.312 187.592C296.952 188.371 297.272 189.443 297.272 190.808C297.272 192.173 296.952 193.245 296.312 194.024C295.672 194.803 294.83 195.192 293.784 195.192C293.155 195.192 292.595 195.037 292.104 194.728C291.614 194.419 291.23 193.976 290.952 193.4V198.2H289.544ZM291.544 188.424C291.096 189.021 290.872 189.816 290.872 190.808C290.872 191.8 291.096 192.595 291.544 193.192C292.003 193.789 292.616 194.088 293.384 194.088C294.152 194.088 294.76 193.789 295.208 193.192C295.656 192.595 295.88 191.8 295.88 190.808C295.88 189.816 295.656 189.021 295.208 188.424C294.76 187.827 294.152 187.528 293.384 187.528C292.616 187.528 292.003 187.827 291.544 188.424ZM298.471 192.808C298.471 191.304 299.57 190.445 301.767 190.232L304.263 189.992V189.192C304.263 188.669 304.093 188.248 303.751 187.928C303.421 187.597 302.93 187.437 302.279 187.448C301.682 187.448 301.191 187.587 300.807 187.864C300.423 188.131 300.215 188.536 300.183 189.08H298.887C298.919 188.173 299.245 187.507 299.863 187.08C300.482 186.643 301.287 186.424 302.279 186.424C303.378 186.424 304.215 186.685 304.791 187.208C305.367 187.731 305.655 188.483 305.655 189.464V195H304.375V193.272C304.109 193.88 303.703 194.355 303.159 194.696C302.615 195.027 301.954 195.192 301.175 195.192C300.279 195.192 299.602 194.973 299.143 194.536C298.695 194.088 298.471 193.512 298.471 192.808ZM299.863 192.76C299.863 193.176 300.007 193.517 300.295 193.784C300.583 194.051 301.015 194.184 301.591 194.184C302.413 194.184 303.063 193.928 303.543 193.416C304.023 192.893 304.263 192.221 304.263 191.4V190.888L301.927 191.128C300.551 191.256 299.863 191.8 299.863 192.76ZM311.779 190.664C313.485 190.845 314.339 191.555 314.339 192.792C314.339 193.507 314.061 194.088 313.507 194.536C312.952 194.973 312.051 195.192 310.803 195.192C308.488 195.192 307.256 194.28 307.107 192.456L308.451 192.392C308.557 193.544 309.341 194.12 310.803 194.12C311.507 194.12 312.035 193.987 312.387 193.72C312.749 193.443 312.931 193.069 312.931 192.6C312.931 191.661 312.168 191.192 310.643 191.192H309.587V190.264H310.579C311.283 190.264 311.805 190.141 312.147 189.896C312.499 189.64 312.675 189.309 312.675 188.904C312.675 188.477 312.504 188.136 312.163 187.88C311.821 187.624 311.368 187.496 310.803 187.496C310.227 187.496 309.747 187.635 309.363 187.912C308.989 188.189 308.776 188.6 308.723 189.144L307.363 189.064C307.427 188.179 307.768 187.517 308.387 187.08C309.005 186.643 309.811 186.424 310.803 186.424C311.869 186.424 312.68 186.627 313.235 187.032C313.8 187.427 314.083 187.96 314.083 188.632C314.083 189.773 313.315 190.451 311.779 190.664ZM320.588 190.68C322.23 190.829 323.052 191.512 323.052 192.728C323.052 193.389 322.812 193.933 322.332 194.36C321.852 194.787 321.084 195 320.028 195H316.076V186.616H319.836C320.806 186.616 321.542 186.808 322.044 187.192C322.545 187.576 322.796 188.088 322.796 188.728C322.796 189.816 322.06 190.467 320.588 190.68ZM317.484 187.672V190.264H319.724C320.289 190.264 320.705 190.147 320.972 189.912C321.249 189.677 321.388 189.363 321.388 188.968C321.388 188.104 320.806 187.672 319.644 187.672H317.484ZM319.868 193.944C321.052 193.944 321.644 193.48 321.644 192.552C321.644 191.645 321.025 191.192 319.788 191.192H317.484V193.944H319.868ZM330.058 186.616H332.154V195H330.81V187.624L326.906 195H324.794V186.616H326.154V193.992L330.058 186.616ZM333.621 187.768V186.616H340.693V187.768H337.861V195H336.453V187.768H333.621ZM347.433 186.616H349.529V195H348.185V187.624L344.281 195H342.169V186.616H343.529V193.992L347.433 186.616ZM354.484 186.616H358.26V195H356.836V191.544H355.012L352.788 195H351.108L353.62 191.48C352.905 191.363 352.356 191.101 351.972 190.696C351.588 190.28 351.396 189.741 351.396 189.08C351.396 188.291 351.662 187.683 352.196 187.256C352.74 186.829 353.502 186.616 354.484 186.616ZM356.836 190.616V187.688H354.66C354.073 187.688 353.614 187.821 353.284 188.088C352.964 188.344 352.804 188.701 352.804 189.16C352.804 189.608 352.964 189.965 353.284 190.232C353.614 190.488 354.073 190.616 354.66 190.616H356.836ZM137.25 214H135.506L132.37 210.304H131.218V214H129.81V205.616H131.218V209.2H132.402L135.362 205.616H137.058L133.41 209.648L137.25 214ZM138.543 213.024C137.828 212.235 137.471 211.163 137.471 209.808C137.471 208.453 137.828 207.387 138.543 206.608C139.268 205.819 140.233 205.424 141.439 205.424C142.644 205.424 143.604 205.819 144.319 206.608C145.033 207.387 145.391 208.453 145.391 209.808C145.391 211.163 145.033 212.235 144.319 213.024C143.604 213.803 142.644 214.192 141.439 214.192C140.233 214.192 139.268 213.803 138.543 213.024ZM139.551 207.424C139.092 208.021 138.863 208.816 138.863 209.808C138.863 210.8 139.092 211.595 139.551 212.192C140.02 212.789 140.649 213.088 141.439 213.088C142.217 213.088 142.836 212.789 143.295 212.192C143.764 211.595 143.999 210.8 143.999 209.808C143.999 208.816 143.764 208.021 143.295 207.424C142.836 206.827 142.217 206.528 141.439 206.528C140.649 206.528 140.02 206.827 139.551 207.424ZM154.818 205.616H157.154V214H155.794V206.592L153.01 214H151.25L148.482 206.592V214H147.122V205.616H149.474L152.146 213.232L154.818 205.616ZM159.357 214V205.616H166.397V214H165.005V206.768H160.765V214H159.357ZM168.159 211.808C168.159 210.304 169.257 209.445 171.455 209.232L173.951 208.992V208.192C173.951 207.669 173.78 207.248 173.439 206.928C173.108 206.597 172.617 206.437 171.967 206.448C171.369 206.448 170.879 206.587 170.495 206.864C170.111 207.131 169.903 207.536 169.871 208.08H168.575C168.607 207.173 168.932 206.507 169.551 206.08C170.169 205.643 170.975 205.424 171.967 205.424C173.065 205.424 173.903 205.685 174.479 206.208C175.055 206.731 175.343 207.483 175.343 208.464V214H174.063V212.272C173.796 212.88 173.391 213.355 172.847 213.696C172.303 214.027 171.641 214.192 170.863 214.192C169.967 214.192 169.289 213.973 168.831 213.536C168.383 213.088 168.159 212.512 168.159 211.808ZM169.551 211.76C169.551 212.176 169.695 212.517 169.983 212.784C170.271 213.051 170.703 213.184 171.279 213.184C172.1 213.184 172.751 212.928 173.231 212.416C173.711 211.893 173.951 211.221 173.951 210.4V209.888L171.615 210.128C170.239 210.256 169.551 210.8 169.551 211.76ZM177.466 214V205.616H178.874V209.152H183.21V205.616H184.602V214H183.21V210.304H178.874V214H177.466ZM192.074 205.616H194.17V214H192.826V206.624L188.922 214H186.81V205.616H188.17V212.992L192.074 205.616ZM201.636 205.616H203.732V214H202.388V206.624L198.484 214H196.372V205.616H197.732V212.992L201.636 205.616Z" fill="#252D4D"/>
<path d="M138.706 238.8V250H137.234V240H131.522V250H130.05V238.8H138.706ZM141.746 249.024C141.031 248.235 140.674 247.163 140.674 245.808C140.674 244.453 141.031 243.387 141.746 242.608C142.471 241.819 143.436 241.424 144.642 241.424C145.847 241.424 146.807 241.819 147.522 242.608C148.236 243.387 148.594 244.453 148.594 245.808C148.594 247.163 148.236 248.235 147.522 249.024C146.807 249.803 145.847 250.192 144.642 250.192C143.436 250.192 142.471 249.803 141.746 249.024ZM142.754 243.424C142.295 244.021 142.066 244.816 142.066 245.808C142.066 246.8 142.295 247.595 142.754 248.192C143.223 248.789 143.852 249.088 144.642 249.088C145.42 249.088 146.039 248.789 146.498 248.192C146.967 247.595 147.202 246.8 147.202 245.808C147.202 244.816 146.967 244.021 146.498 243.424C146.039 242.827 145.42 242.528 144.642 242.528C143.852 242.528 143.223 242.827 142.754 243.424ZM154.326 245.664C156.032 245.845 156.886 246.555 156.886 247.792C156.886 248.507 156.608 249.088 156.054 249.536C155.499 249.973 154.598 250.192 153.35 250.192C151.035 250.192 149.803 249.28 149.654 247.456L150.998 247.392C151.104 248.544 151.888 249.12 153.35 249.12C154.054 249.12 154.582 248.987 154.934 248.72C155.296 248.443 155.478 248.069 155.478 247.6C155.478 246.661 154.715 246.192 153.19 246.192H152.134V245.264H153.126C153.83 245.264 154.352 245.141 154.694 244.896C155.046 244.64 155.222 244.309 155.222 243.904C155.222 243.477 155.051 243.136 154.71 242.88C154.368 242.624 153.915 242.496 153.35 242.496C152.774 242.496 152.294 242.635 151.91 242.912C151.536 243.189 151.323 243.6 151.27 244.144L149.91 244.064C149.974 243.179 150.315 242.517 150.934 242.08C151.552 241.643 152.358 241.424 153.35 241.424C154.416 241.424 155.227 241.627 155.782 242.032C156.347 242.427 156.63 242.96 156.63 243.632C156.63 244.773 155.862 245.451 154.326 245.664ZM163.886 241.616H165.982V250H164.638V242.624L160.734 250H158.622V241.616H159.982V248.992L163.886 241.616ZM168.185 250V241.616H169.593V248.848H173.833V241.616H175.225V248.848H176.217V252.256H174.889V250H168.185ZM182.902 241.616H184.998V250H183.654V242.624L179.75 250H177.638V241.616H178.998V248.992L182.902 241.616ZM187.793 249.024C187.078 248.235 186.721 247.163 186.721 245.808C186.721 244.453 187.078 243.387 187.793 242.608C188.518 241.819 189.483 241.424 190.689 241.424C191.894 241.424 192.854 241.819 193.569 242.608C194.283 243.387 194.641 244.453 194.641 245.808C194.641 247.163 194.283 248.235 193.569 249.024C192.854 249.803 191.894 250.192 190.689 250.192C189.483 250.192 188.518 249.803 187.793 249.024ZM188.801 243.424C188.342 244.021 188.113 244.816 188.113 245.808C188.113 246.8 188.342 247.595 188.801 248.192C189.27 248.789 189.899 249.088 190.689 249.088C191.467 249.088 192.086 248.789 192.545 248.192C193.014 247.595 193.249 246.8 193.249 245.808C193.249 244.816 193.014 244.021 192.545 243.424C192.086 242.827 191.467 242.528 190.689 242.528C189.899 242.528 189.27 242.827 188.801 243.424ZM196.372 250V241.616H197.78V245.152H202.116V241.616H203.508V250H202.116V246.304H197.78V250H196.372ZM210.98 241.616H213.076V250H211.732V242.624L207.828 250H205.716V241.616H207.076V248.992L210.98 241.616ZM215.279 253.2V241.616H216.575V243.408C216.831 242.779 217.215 242.293 217.727 241.952C218.249 241.6 218.847 241.424 219.519 241.424C220.564 241.424 221.407 241.813 222.047 242.592C222.687 243.371 223.007 244.443 223.007 245.808C223.007 247.173 222.687 248.245 222.047 249.024C221.407 249.803 220.564 250.192 219.519 250.192C218.889 250.192 218.329 250.037 217.839 249.728C217.348 249.419 216.964 248.976 216.687 248.4V253.2H215.279ZM217.279 243.424C216.831 244.021 216.607 244.816 216.607 245.808C216.607 246.8 216.831 247.595 217.279 248.192C217.737 248.789 218.351 249.088 219.119 249.088C219.887 249.088 220.495 248.789 220.943 248.192C221.391 247.595 221.615 246.8 221.615 245.808C221.615 244.816 221.391 244.021 220.943 243.424C220.495 242.827 219.887 242.528 219.119 242.528C218.351 242.528 217.737 242.827 217.279 243.424ZM225.324 249.024C224.609 248.235 224.252 247.163 224.252 245.808C224.252 244.453 224.609 243.387 225.324 242.608C226.049 241.819 227.014 241.424 228.22 241.424C229.425 241.424 230.385 241.819 231.1 242.608C231.814 243.387 232.172 244.453 232.172 245.808C232.172 247.163 231.814 248.235 231.1 249.024C230.385 249.803 229.425 250.192 228.22 250.192C227.014 250.192 226.049 249.803 225.324 249.024ZM226.332 243.424C225.873 244.021 225.644 244.816 225.644 245.808C225.644 246.8 225.873 247.595 226.332 248.192C226.801 248.789 227.43 249.088 228.22 249.088C228.998 249.088 229.617 248.789 230.076 248.192C230.545 247.595 230.78 246.8 230.78 245.808C230.78 244.816 230.545 244.021 230.076 243.424C229.617 242.827 228.998 242.528 228.22 242.528C227.43 242.528 226.801 242.827 226.332 243.424ZM238.416 245.68C240.058 245.829 240.88 246.512 240.88 247.728C240.88 248.389 240.64 248.933 240.16 249.36C239.68 249.787 238.912 250 237.856 250H233.904V241.616H237.664C238.634 241.616 239.37 241.808 239.872 242.192C240.373 242.576 240.624 243.088 240.624 243.728C240.624 244.816 239.888 245.467 238.416 245.68ZM235.312 242.672V245.264H237.552C238.117 245.264 238.533 245.147 238.8 244.912C239.077 244.677 239.216 244.363 239.216 243.968C239.216 243.104 238.634 242.672 237.472 242.672H235.312ZM237.696 248.944C238.88 248.944 239.472 248.48 239.472 247.552C239.472 246.645 238.853 246.192 237.616 246.192H235.312V248.944H237.696ZM242.128 247.808C242.128 246.304 243.226 245.445 245.424 245.232L247.92 244.992V244.192C247.92 243.669 247.749 243.248 247.408 242.928C247.077 242.597 246.586 242.437 245.936 242.448C245.338 242.448 244.848 242.587 244.464 242.864C244.08 243.131 243.872 243.536 243.84 244.08H242.544C242.576 243.173 242.901 242.507 243.52 242.08C244.138 241.643 244.944 241.424 245.936 241.424C247.034 241.424 247.872 241.685 248.448 242.208C249.024 242.731 249.312 243.483 249.312 244.464V250H248.032V248.272C247.765 248.88 247.36 249.355 246.816 249.696C246.272 250.027 245.61 250.192 244.832 250.192C243.936 250.192 243.258 249.973 242.8 249.536C242.352 249.088 242.128 248.512 242.128 247.808ZM243.52 247.76C243.52 248.176 243.664 248.517 243.952 248.784C244.24 249.051 244.672 249.184 245.248 249.184C246.069 249.184 246.72 248.928 247.2 248.416C247.68 247.893 247.92 247.221 247.92 246.4V245.888L245.584 246.128C244.208 246.256 243.52 246.8 243.52 247.76ZM251.435 250V241.616H252.843V245.152H257.179V241.616H258.571V250H257.179V246.304H252.843V250H251.435ZM266.043 241.616H268.139V250H266.795V242.624L262.891 250H260.779V241.616H262.139V248.992L266.043 241.616ZM269.861 245.808C269.861 244.379 270.218 243.291 270.933 242.544C271.658 241.797 272.618 241.424 273.813 241.424C275.04 241.424 275.973 241.803 276.613 242.56C277.264 243.317 277.589 244.469 277.589 246.016V246.208H271.269C271.322 247.168 271.584 247.904 272.053 248.416C272.533 248.917 273.157 249.168 273.925 249.168C275.013 249.168 275.754 248.688 276.149 247.728L277.477 247.808C277.253 248.555 276.837 249.141 276.229 249.568C275.621 249.984 274.853 250.192 273.925 250.192C272.677 250.192 271.685 249.824 270.949 249.088C270.224 248.341 269.861 247.248 269.861 245.808ZM271.285 245.28H276.197C276.186 244.405 275.962 243.717 275.525 243.216C275.098 242.704 274.528 242.448 273.813 242.448C273.109 242.448 272.528 242.693 272.069 243.184C271.61 243.664 271.349 244.363 271.285 245.28ZM288.371 241.616H290.467V250H289.123V242.624L285.219 250H283.107V241.616H284.467V248.992L288.371 241.616ZM303.559 238.8H305.175L301.655 247.392C301.239 248.427 300.812 249.136 300.375 249.52C299.937 249.904 299.388 250.096 298.727 250.096C298.364 250.096 297.921 250.064 297.399 250V248.864C297.783 248.907 298.119 248.928 298.407 248.928C298.791 248.928 299.105 248.832 299.351 248.64C299.607 248.448 299.847 248.069 300.071 247.504L300.263 247.024H299.623L295.543 238.8H297.207L300.727 246.272L303.559 238.8ZM305.856 240V238.8H314.336V240H310.832V250H309.36V240H305.856ZM324.737 238.8V250H323.265V240H317.553V250H316.081V238.8H324.737ZM327.105 251.84V248.16H328.721V249.28L327.745 251.84H327.105ZM134.322 264.68C135.965 264.829 136.786 265.512 136.786 266.728C136.786 267.389 136.546 267.933 136.066 268.36C135.586 268.787 134.818 269 133.762 269H129.81V260.616H133.57C134.541 260.616 135.277 260.808 135.778 261.192C136.279 261.576 136.53 262.088 136.53 262.728C136.53 263.816 135.794 264.467 134.322 264.68ZM131.218 261.672V264.264H133.458C134.023 264.264 134.439 264.147 134.706 263.912C134.983 263.677 135.122 263.363 135.122 262.968C135.122 262.104 134.541 261.672 133.378 261.672H131.218ZM133.602 267.944C134.786 267.944 135.378 267.48 135.378 266.552C135.378 265.645 134.759 265.192 133.522 265.192H131.218V267.944H133.602ZM138.529 269V260.616H139.937V264.152H144.273V260.616H145.665V269H144.273V265.304H139.937V269H138.529ZM147.392 264.808C147.392 263.379 147.75 262.291 148.464 261.544C149.19 260.797 150.15 260.424 151.344 260.424C152.571 260.424 153.504 260.803 154.144 261.56C154.795 262.317 155.12 263.469 155.12 265.016V265.208H148.8C148.854 266.168 149.115 266.904 149.584 267.416C150.064 267.917 150.688 268.168 151.456 268.168C152.544 268.168 153.286 267.688 153.68 266.728L155.008 266.808C154.784 267.555 154.368 268.141 153.76 268.568C153.152 268.984 152.384 269.192 151.456 269.192C150.208 269.192 149.216 268.824 148.48 268.088C147.755 267.341 147.392 266.248 147.392 264.808ZM148.816 264.28H153.728C153.718 263.405 153.494 262.717 153.056 262.216C152.63 261.704 152.059 261.448 151.344 261.448C150.64 261.448 150.059 261.693 149.6 262.184C149.142 262.664 148.88 263.363 148.816 264.28ZM163.322 267.848H164.298V271.256H162.97V269H157.226V271.256H155.898V267.848H156.522C156.65 267.571 156.757 267.24 156.842 266.856C156.938 266.461 157.018 265.853 157.082 265.032C157.157 264.211 157.205 263.608 157.226 263.224C157.258 262.829 157.311 261.96 157.386 260.616H163.322V267.848ZM161.914 267.848V261.768H158.602C158.41 264.509 158.255 266.211 158.138 266.872C158.063 267.256 157.978 267.581 157.882 267.848H161.914ZM165.716 272.2V260.616H167.012V262.408C167.268 261.779 167.652 261.293 168.164 260.952C168.687 260.6 169.284 260.424 169.956 260.424C171.001 260.424 171.844 260.813 172.484 261.592C173.124 262.371 173.444 263.443 173.444 264.808C173.444 266.173 173.124 267.245 172.484 268.024C171.844 268.803 171.001 269.192 169.956 269.192C169.327 269.192 168.767 269.037 168.276 268.728C167.785 268.419 167.401 267.976 167.124 267.4V272.2H165.716ZM167.716 262.424C167.268 263.021 167.044 263.816 167.044 264.808C167.044 265.8 167.268 266.595 167.716 267.192C168.175 267.789 168.788 268.088 169.556 268.088C170.324 268.088 170.932 267.789 171.38 267.192C171.828 266.595 172.052 265.8 172.052 264.808C172.052 263.816 171.828 263.021 171.38 262.424C170.932 261.827 170.324 261.528 169.556 261.528C168.788 261.528 168.175 261.827 167.716 262.424ZM174.689 264.808C174.689 263.379 175.047 262.291 175.761 261.544C176.487 260.797 177.447 260.424 178.641 260.424C179.868 260.424 180.801 260.803 181.441 261.56C182.092 262.317 182.417 263.469 182.417 265.016V265.208H176.097C176.151 266.168 176.412 266.904 176.881 267.416C177.361 267.917 177.985 268.168 178.753 268.168C179.841 268.168 180.583 267.688 180.977 266.728L182.305 266.808C182.081 267.555 181.665 268.141 181.057 268.568C180.449 268.984 179.681 269.192 178.753 269.192C177.505 269.192 176.513 268.824 175.777 268.088C175.052 267.341 174.689 266.248 174.689 264.808ZM176.113 264.28H181.025C181.015 263.405 180.791 262.717 180.353 262.216C179.927 261.704 179.356 261.448 178.641 261.448C177.937 261.448 177.356 261.693 176.897 262.184C176.439 262.664 176.177 263.363 176.113 264.28ZM184.107 269V260.616H185.515V264.152H189.851V260.616H191.243V269H189.851V265.304H185.515V269H184.107ZM193.451 269V260.616H194.859V264.152H199.195V260.616H200.587V269H199.195V265.304H194.859V269H193.451ZM203.386 268.024C202.672 267.235 202.314 266.163 202.314 264.808C202.314 263.453 202.672 262.387 203.386 261.608C204.112 260.819 205.077 260.424 206.282 260.424C207.488 260.424 208.448 260.819 209.162 261.608C209.877 262.387 210.234 263.453 210.234 264.808C210.234 266.163 209.877 267.235 209.162 268.024C208.448 268.803 207.488 269.192 206.282 269.192C205.077 269.192 204.112 268.803 203.386 268.024ZM204.394 262.424C203.936 263.021 203.706 263.816 203.706 264.808C203.706 265.8 203.936 266.595 204.394 267.192C204.864 267.789 205.493 268.088 206.282 268.088C207.061 268.088 207.68 267.789 208.138 267.192C208.608 266.595 208.842 265.8 208.842 264.808C208.842 263.816 208.608 263.021 208.138 262.424C207.68 261.827 207.061 261.528 206.282 261.528C205.493 261.528 204.864 261.827 204.394 262.424ZM211.486 264.808C211.486 263.379 211.843 262.291 212.558 261.544C213.283 260.797 214.243 260.424 215.438 260.424C216.665 260.424 217.598 260.803 218.238 261.56C218.889 262.317 219.214 263.469 219.214 265.016V265.208H212.894C212.947 266.168 213.209 266.904 213.678 267.416C214.158 267.917 214.782 268.168 215.55 268.168C216.638 268.168 217.379 267.688 217.774 266.728L219.102 266.808C218.878 267.555 218.462 268.141 217.854 268.568C217.246 268.984 216.478 269.192 215.55 269.192C214.302 269.192 213.31 268.824 212.574 268.088C211.849 267.341 211.486 266.248 211.486 264.808ZM212.91 264.28H217.822C217.811 263.405 217.587 262.717 217.15 262.216C216.723 261.704 216.153 261.448 215.438 261.448C214.734 261.448 214.153 261.693 213.694 262.184C213.235 262.664 212.974 263.363 212.91 264.28ZM224.732 269V260.616H226.14V264.152H230.476V260.616H231.868V269H230.476V265.304H226.14V269H224.732ZM233.628 266.808C233.628 265.304 234.726 264.445 236.924 264.232L239.42 263.992V263.192C239.42 262.669 239.249 262.248 238.908 261.928C238.577 261.597 238.086 261.437 237.436 261.448C236.838 261.448 236.348 261.587 235.964 261.864C235.58 262.131 235.372 262.536 235.34 263.08H234.044C234.076 262.173 234.401 261.507 235.02 261.08C235.638 260.643 236.444 260.424 237.436 260.424C238.534 260.424 239.372 260.685 239.948 261.208C240.524 261.731 240.812 262.483 240.812 263.464V269H239.532V267.272C239.265 267.88 238.86 268.355 238.316 268.696C237.772 269.027 237.11 269.192 236.332 269.192C235.436 269.192 234.758 268.973 234.3 268.536C233.852 268.088 233.628 267.512 233.628 266.808ZM235.02 266.76C235.02 267.176 235.164 267.517 235.452 267.784C235.74 268.051 236.172 268.184 236.748 268.184C237.569 268.184 238.22 267.928 238.7 267.416C239.18 266.893 239.42 266.221 239.42 265.4V264.888L237.084 265.128C235.708 265.256 235.02 265.8 235.02 266.76ZM251.275 264.68C252.918 264.829 253.739 265.512 253.739 266.728C253.739 267.389 253.499 267.933 253.019 268.36C252.539 268.787 251.771 269 250.715 269H246.763V260.616H250.523C251.494 260.616 252.23 260.808 252.731 261.192C253.232 261.576 253.483 262.088 253.483 262.728C253.483 263.816 252.747 264.467 251.275 264.68ZM248.171 261.672V264.264H250.411C250.976 264.264 251.392 264.147 251.659 263.912C251.936 263.677 252.075 263.363 252.075 262.968C252.075 262.104 251.494 261.672 250.331 261.672H248.171ZM250.555 267.944C251.739 267.944 252.331 267.48 252.331 266.552C252.331 265.645 251.712 265.192 250.475 265.192H248.171V267.944H250.555ZM255.002 264.808C255.002 263.411 255.348 262.333 256.042 261.576C256.735 260.808 257.674 260.424 258.858 260.424C259.818 260.424 260.623 260.68 261.274 261.192C261.935 261.704 262.33 262.435 262.458 263.384L261.114 263.512C261.007 262.861 260.746 262.371 260.33 262.04C259.924 261.699 259.434 261.528 258.858 261.528C258.111 261.528 257.514 261.821 257.066 262.408C256.618 262.984 256.394 263.784 256.394 264.808C256.394 265.832 256.618 266.637 257.066 267.224C257.524 267.8 258.132 268.088 258.89 268.088C259.487 268.088 259.988 267.912 260.394 267.56C260.81 267.197 261.076 266.685 261.194 266.024L262.538 266.136C262.41 267.107 262.015 267.859 261.354 268.392C260.692 268.925 259.871 269.192 258.89 269.192C257.684 269.192 256.735 268.813 256.042 268.056C255.348 267.299 255.002 266.216 255.002 264.808ZM263.674 264.808C263.674 263.379 264.031 262.291 264.746 261.544C265.471 260.797 266.431 260.424 267.626 260.424C268.852 260.424 269.786 260.803 270.426 261.56C271.076 262.317 271.402 263.469 271.402 265.016V265.208H265.082C265.135 266.168 265.396 266.904 265.866 267.416C266.346 267.917 266.97 268.168 267.738 268.168C268.826 268.168 269.567 267.688 269.962 266.728L271.29 266.808C271.066 267.555 270.65 268.141 270.042 268.568C269.434 268.984 268.666 269.192 267.738 269.192C266.49 269.192 265.498 268.824 264.762 268.088C264.036 267.341 263.674 266.248 263.674 264.808ZM265.098 264.28H270.01C269.999 263.405 269.775 262.717 269.338 262.216C268.911 261.704 268.34 261.448 267.626 261.448C266.922 261.448 266.34 261.693 265.882 262.184C265.423 262.664 265.162 263.363 265.098 264.28ZM279.991 260.424C281.175 260.424 282.109 260.808 282.791 261.576C283.485 262.333 283.831 263.411 283.831 264.808C283.831 266.216 283.485 267.299 282.791 268.056C282.098 268.813 281.149 269.192 279.943 269.192C278.994 269.192 278.194 268.941 277.543 268.44C276.893 267.939 276.487 267.224 276.327 266.296L277.687 266.2C277.826 266.819 278.093 267.293 278.487 267.624C278.893 267.955 279.378 268.12 279.943 268.12C280.658 268.12 281.234 267.864 281.671 267.352C282.119 266.84 282.375 266.125 282.439 265.208H279.175V264.248H282.423C282.349 263.373 282.093 262.696 281.655 262.216C281.218 261.736 280.663 261.496 279.991 261.496C279.447 261.496 278.973 261.656 278.567 261.976C278.162 262.285 277.895 262.733 277.767 263.32L276.407 263.224C276.567 262.328 276.973 261.64 277.623 261.16C278.274 260.669 279.063 260.424 279.991 260.424ZM284.402 261.768V260.616H291.474V261.768H288.642V269H287.234V261.768H284.402ZM292.143 266.808C292.143 265.304 293.242 264.445 295.439 264.232L297.935 263.992V263.192C297.935 262.669 297.764 262.248 297.423 261.928C297.092 261.597 296.602 261.437 295.951 261.448C295.354 261.448 294.863 261.587 294.479 261.864C294.095 262.131 293.887 262.536 293.855 263.08H292.559C292.591 262.173 292.916 261.507 293.535 261.08C294.154 260.643 294.959 260.424 295.951 260.424C297.05 260.424 297.887 260.685 298.463 261.208C299.039 261.731 299.327 262.483 299.327 263.464V269H298.047V267.272C297.78 267.88 297.375 268.355 296.831 268.696C296.287 269.027 295.626 269.192 294.847 269.192C293.951 269.192 293.274 268.973 292.815 268.536C292.367 268.088 292.143 267.512 292.143 266.808ZM293.535 266.76C293.535 267.176 293.679 267.517 293.967 267.784C294.255 268.051 294.687 268.184 295.263 268.184C296.084 268.184 296.735 267.928 297.215 267.416C297.695 266.893 297.935 266.221 297.935 265.4V264.888L295.599 265.128C294.223 265.256 293.535 265.8 293.535 266.76ZM301.451 269V260.616H308.491V269H307.099V261.768H302.859V269H301.451ZM314.141 263.832C316.263 263.832 317.325 264.691 317.325 266.408C317.325 268.136 316.263 269 314.141 269H311.373H310.701V260.616H312.109V263.832H314.141ZM318.653 260.616H320.061V269H318.653V260.616ZM314.029 267.928C315.298 267.928 315.933 267.416 315.933 266.392C315.933 265.389 315.298 264.888 314.029 264.888H312.109V267.928H314.029ZM129.81 288V279.616H136.85V288H135.458V280.768H131.218V288H129.81ZM144.868 279.616H146.372L143.252 288.96C142.964 289.888 142.623 290.523 142.228 290.864C141.833 291.216 141.236 291.392 140.436 291.392C140.169 291.392 139.86 291.376 139.508 291.344V290.256C139.892 290.277 140.175 290.288 140.356 290.288C140.793 290.288 141.124 290.181 141.348 289.968C141.572 289.755 141.78 289.349 141.972 288.752L142.212 288H141.428L138.26 279.616H139.796L142.548 287.44L144.868 279.616ZM147.058 280.768V279.616H154.13V280.768H151.298V288H149.89V280.768H147.058ZM160.871 279.616H162.967V288H161.623V280.624L157.719 288H155.607V279.616H156.967V286.992L160.871 279.616ZM168.997 288V279.616H176.037V288H174.645V280.768H170.405V288H168.997ZM178.839 287.024C178.125 286.235 177.767 285.163 177.767 283.808C177.767 282.453 178.125 281.387 178.839 280.608C179.565 279.819 180.53 279.424 181.735 279.424C182.941 279.424 183.901 279.819 184.615 280.608C185.33 281.387 185.687 282.453 185.687 283.808C185.687 285.163 185.33 286.235 184.615 287.024C183.901 287.803 182.941 288.192 181.735 288.192C180.53 288.192 179.565 287.803 178.839 287.024ZM179.847 281.424C179.389 282.021 179.159 282.816 179.159 283.808C179.159 284.8 179.389 285.595 179.847 286.192C180.317 286.789 180.946 287.088 181.735 287.088C182.514 287.088 183.133 286.789 183.591 286.192C184.061 285.595 184.295 284.8 184.295 283.808C184.295 282.816 184.061 282.021 183.591 281.424C183.133 280.827 182.514 280.528 181.735 280.528C180.946 280.528 180.317 280.827 179.847 281.424ZM188.111 279.616H193.999V288H192.591V280.768H189.359C189.327 281.227 189.284 281.861 189.231 282.672C189.188 283.461 189.151 284.032 189.119 284.384C189.098 284.736 189.055 285.173 188.991 285.696C188.927 286.219 188.852 286.587 188.767 286.8C188.682 287.013 188.564 287.248 188.415 287.504C188.266 287.749 188.084 287.915 187.871 288C187.658 288.075 187.402 288.112 187.103 288.112C186.943 288.112 186.714 288.091 186.415 288.048V286.928C186.522 286.939 186.65 286.944 186.799 286.944C187.034 286.944 187.22 286.843 187.359 286.64C187.498 286.437 187.61 286.037 187.695 285.44C187.791 284.832 187.855 284.299 187.887 283.84C187.919 283.381 187.962 282.587 188.015 281.456C188.058 280.667 188.09 280.053 188.111 279.616ZM199.833 282.832C201.955 282.832 203.017 283.691 203.017 285.408C203.017 287.136 201.955 288 199.833 288H196.873H196.201V279.616H197.609V282.832H199.833ZM199.721 286.928C200.99 286.928 201.625 286.416 201.625 285.392C201.625 284.389 200.99 283.888 199.721 283.888H197.609V286.928H199.721ZM208.701 283.664C210.407 283.845 211.261 284.555 211.261 285.792C211.261 286.507 210.983 287.088 210.429 287.536C209.874 287.973 208.973 288.192 207.725 288.192C205.41 288.192 204.178 287.28 204.029 285.456L205.373 285.392C205.479 286.544 206.263 287.12 207.725 287.12C208.429 287.12 208.957 286.987 209.309 286.72C209.671 286.443 209.853 286.069 209.853 285.6C209.853 284.661 209.09 284.192 207.565 284.192H206.509V283.264H207.501C208.205 283.264 208.727 283.141 209.069 282.896C209.421 282.64 209.597 282.309 209.597 281.904C209.597 281.477 209.426 281.136 209.085 280.88C208.743 280.624 208.29 280.496 207.725 280.496C207.149 280.496 206.669 280.635 206.285 280.912C205.911 281.189 205.698 281.6 205.645 282.144L204.285 282.064C204.349 281.179 204.69 280.517 205.309 280.08C205.927 279.643 206.733 279.424 207.725 279.424C208.791 279.424 209.602 279.627 210.157 280.032C210.722 280.427 211.005 280.96 211.005 281.632C211.005 282.773 210.237 283.451 208.701 283.664ZM213.589 287.024C212.875 286.235 212.517 285.163 212.517 283.808C212.517 282.453 212.875 281.387 213.589 280.608C214.315 279.819 215.28 279.424 216.485 279.424C217.691 279.424 218.651 279.819 219.365 280.608C220.08 281.387 220.437 282.453 220.437 283.808C220.437 285.163 220.08 286.235 219.365 287.024C218.651 287.803 217.691 288.192 216.485 288.192C215.28 288.192 214.315 287.803 213.589 287.024ZM214.597 281.424C214.139 282.021 213.909 282.816 213.909 283.808C213.909 284.8 214.139 285.595 214.597 286.192C215.067 286.789 215.696 287.088 216.485 287.088C217.264 287.088 217.883 286.789 218.341 286.192C218.811 285.595 219.045 284.8 219.045 283.808C219.045 282.816 218.811 282.021 218.341 281.424C217.883 280.827 217.264 280.528 216.485 280.528C215.696 280.528 215.067 280.827 214.597 281.424ZM226.681 283.68C228.324 283.829 229.145 284.512 229.145 285.728C229.145 286.389 228.905 286.933 228.425 287.36C227.945 287.787 227.177 288 226.121 288H222.169V279.616H225.929C226.9 279.616 227.636 279.808 228.137 280.192C228.639 280.576 228.889 281.088 228.889 281.728C228.889 282.816 228.153 283.467 226.681 283.68ZM223.577 280.672V283.264H225.817C226.383 283.264 226.799 283.147 227.065 282.912C227.343 282.677 227.481 282.363 227.481 281.968C227.481 281.104 226.9 280.672 225.737 280.672H223.577ZM225.961 286.944C227.145 286.944 227.737 286.48 227.737 285.552C227.737 284.645 227.119 284.192 225.881 284.192H223.577V286.944H225.961ZM230.393 285.808C230.393 284.304 231.492 283.445 233.689 283.232L236.185 282.992V282.192C236.185 281.669 236.014 281.248 235.673 280.928C235.342 280.597 234.852 280.437 234.201 280.448C233.604 280.448 233.113 280.587 232.729 280.864C232.345 281.131 232.137 281.536 232.105 282.08H230.809C230.841 281.173 231.166 280.507 231.785 280.08C232.404 279.643 233.209 279.424 234.201 279.424C235.3 279.424 236.137 279.685 236.713 280.208C237.289 280.731 237.577 281.483 237.577 282.464V288H236.297V286.272C236.03 286.88 235.625 287.355 235.081 287.696C234.537 288.027 233.876 288.192 233.097 288.192C232.201 288.192 231.524 287.973 231.065 287.536C230.617 287.088 230.393 286.512 230.393 285.808ZM231.785 285.76C231.785 286.176 231.929 286.517 232.217 286.784C232.505 287.051 232.937 287.184 233.513 287.184C234.334 287.184 234.985 286.928 235.465 286.416C235.945 285.893 236.185 285.221 236.185 284.4V283.888L233.849 284.128C232.473 284.256 231.785 284.8 231.785 285.76ZM238.715 280.768V279.616H245.787V280.768H242.955V288H241.547V280.768H238.715ZM246.377 283.808C246.377 282.379 246.734 281.291 247.449 280.544C248.174 279.797 249.134 279.424 250.329 279.424C251.555 279.424 252.489 279.803 253.129 280.56C253.779 281.317 254.105 282.469 254.105 284.016V284.208H247.785C247.838 285.168 248.099 285.904 248.569 286.416C249.049 286.917 249.673 287.168 250.441 287.168C251.529 287.168 252.27 286.688 252.665 285.728L253.993 285.808C253.769 286.555 253.353 287.141 252.745 287.568C252.137 287.984 251.369 288.192 250.441 288.192C249.193 288.192 248.201 287.824 247.465 287.088C246.739 286.341 246.377 285.248 246.377 283.808ZM247.801 283.28H252.713C252.702 282.405 252.478 281.717 252.041 281.216C251.614 280.704 251.043 280.448 250.329 280.448C249.625 280.448 249.043 280.693 248.585 281.184C248.126 281.664 247.865 282.363 247.801 283.28ZM256.502 279.616H262.39V288H260.982V280.768H257.75C257.718 281.227 257.675 281.861 257.622 282.672C257.579 283.461 257.542 284.032 257.51 284.384C257.488 284.736 257.446 285.173 257.382 285.696C257.318 286.219 257.243 286.587 257.158 286.8C257.072 287.013 256.955 287.248 256.806 287.504C256.656 287.749 256.475 287.915 256.262 288C256.048 288.075 255.792 288.112 255.494 288.112C255.334 288.112 255.104 288.091 254.806 288.048V286.928C254.912 286.939 255.04 286.944 255.19 286.944C255.424 286.944 255.611 286.843 255.75 286.64C255.888 286.437 256 286.037 256.086 285.44C256.182 284.832 256.246 284.299 256.278 283.84C256.31 283.381 256.352 282.587 256.406 281.456C256.448 280.667 256.48 280.053 256.502 279.616ZM267.343 279.616H271.119V288H269.695V284.544H267.871L265.647 288H263.967L266.479 284.48C265.764 284.363 265.215 284.101 264.831 283.696C264.447 283.28 264.255 282.741 264.255 282.08C264.255 281.291 264.522 280.683 265.055 280.256C265.599 279.829 266.362 279.616 267.343 279.616ZM269.695 283.616V280.688H267.519C266.932 280.688 266.474 280.821 266.143 281.088C265.823 281.344 265.663 281.701 265.663 282.16C265.663 282.608 265.823 282.965 266.143 283.232C266.474 283.488 266.932 283.616 267.519 283.616H269.695Z" fill="#252D4D"/>
<path d="M95.7647 187.333C95.7647 185.492 97.1693 184 98.902 184H111.451C113.184 184 114.588 185.492 114.588 187.333V200.667C114.588 202.508 113.184 204 111.451 204H98.902C97.1693 204 95.7647 202.508 95.7647 200.667V187.333Z" fill="#F5265C"/>
<path fill-rule="evenodd" clip-rule="evenodd" d="M109.622 191.31C109.981 191.709 109.967 192.342 109.591 192.724L104.501 197.882L100.762 194.093C100.386 193.712 100.372 193.079 100.731 192.679C101.089 192.28 101.685 192.265 102.061 192.646L104.501 195.118L108.292 191.276C108.668 190.895 109.263 190.91 109.622 191.31Z" fill="white"/>
<path d="M95.7647 239.333C95.7647 237.492 97.1693 236 98.902 236H111.451C113.184 236 114.588 237.492 114.588 239.333V252.667C114.588 254.508 113.184 256 111.451 256H98.902C97.1693 256 95.7647 254.508 95.7647 252.667V239.333Z" fill="#F5265C"/>
<path fill-rule="evenodd" clip-rule="evenodd" d="M109.622 243.31C109.981 243.709 109.967 244.342 109.591 244.724L104.501 249.882L100.762 246.093C100.386 245.712 100.372 245.079 100.731 244.679C101.089 244.28 101.685 244.265 102.061 244.646L104.501 247.118L108.292 243.276C108.668 242.895 109.263 242.91 109.622 243.31Z" fill="white"/>
<defs>
<filter id="filter0_d_491_4" x="0" y="34" width="440" height="366" filterUnits="userSpaceOnUse" color-interpolation-filters="sRGB">
<feFlood flood-opacity="0" result="BackgroundImageFix"/>
<feColorMatrix in="SourceAlpha" type="matrix" values="0 0 0 0 0 0 0 0 0 0 0 0 0 0 0 0 0 0 127 0" result="hardAlpha"/>
<feOffset dy="4"/>
<feGaussianBlur stdDeviation="30"/>
<feComposite in2="hardAlpha" operator="out"/>
<feColorMatrix type="matrix" values="0 0 0 0 0 0 0 0 0 0.147985 0 0 0 0 0.370833 0 0 0 0.15 0"/>
<feBlend mode="normal" in2="BackgroundImageFix" result="effect1_dropShadow_491_4"/>
<feBlend mode="normal" in="SourceGraphic" in2="effect1_dropShadow_491_4" result="shape"/>
</filter>
</defs>
</svg>
